NotoSerifBengali-SemiCondensed.ufo
<glyph name="exclam" format="2">
  <advance width="316.43333333333334"/>
  <unicode hex="0021"/>
  <outline>
    <contour>
      <point x="140.23333333333335" y="201.66666666666666" type="line"/>
      <point x="184.7" y="201.66666666666666" type="line"/>
      <point x="215.23333333333335" y="714.0" type="line"/>
      <point x="109.7" y="714.0" type="line"/>
    </contour>
    <contour>
      <point x="162.33333333333334" y="-7.0" type="curve" smooth="yes"/>
      <point x="192.5" y="-7.0"/>
      <point x="219.03333333333333" y="8.633333333333333"/>
      <point x="219.03333333333333" y="57.53333333333333" type="curve" smooth="yes"/>
      <point x="219.03333333333333" y="105.8"/>
      <point x="192.5" y="121.43333333333334"/>
      <point x="162.33333333333334" y="121.43333333333334" type="curve" smooth="yes"/>
      <point x="130.8" y="121.43333333333334"/>
      <point x="105.63333333333334" y="105.8"/>
      <point x="105.63333333333334" y="57.53333333333333" type="curve" smooth="yes"/>
      <point x="105.63333333333334" y="8.633333333333333"/>
      <point x="130.8" y="-7.0"/>
    </contour>
  </outline>
</glyph>
<glyph name="quotedbl" format="2">
  <advance width="376.3"/>
  <unicode hex="0022"/>
  <outline>
    <contour>
      <point x="253.7" y="483.6333333333333" type="line"/>
      <point x="295.6" y="483.6333333333333" type="line"/>
      <point x="323.23333333333335" y="714.0" type="line"/>
      <point x="225.43333333333334" y="714.0" type="line"/>
    </contour>
    <contour>
      <point x="80.06666666666666" y="483.6333333333333" type="line"/>
      <point x="122.6" y="483.6333333333333" type="line"/>
      <point x="150.23333333333332" y="714.0" type="line"/>
      <point x="53.06666666666667" y="714.0" type="line"/>
    </contour>
  </outline>
</glyph>
<glyph name="numbersign" format="2">
  <advance width="516.4666666666667"/>
  <unicode hex="0023"/>
  <outline>
    <contour>
      <point x="66.8" y="0.0" type="line"/>
      <point x="123.06666666666666" y="0.0" type="line"/>
      <point x="161.43333333333334" y="206.1" type="line"/>
      <point x="290.1333333333333" y="206.1" type="line"/>
      <point x="251.13333333333333" y="0.0" type="line"/>
      <point x="307.4" y="0.0" type="line"/>
      <point x="346.4" y="206.1" type="line"/>
      <point x="465.06666666666666" y="206.1" type="line"/>
      <point x="465.06666666666666" y="259.6333333333333" type="line"/>
      <point x="357.03333333333336" y="259.6333333333333" type="line"/>
      <point x="394.4" y="460.0" type="line"/>
      <point x="497.7" y="460.0" type="line"/>
      <point x="497.7" y="514.9" type="line"/>
      <point x="405.03333333333336" y="514.9" type="line"/>
      <point x="443.03333333333336" y="714.0" type="line"/>
      <point x="386.4" y="714.0" type="line"/>
      <point x="348.76666666666665" y="514.9" type="line"/>
      <point x="220.06666666666666" y="514.9" type="line"/>
      <point x="257.43333333333334" y="714.0" type="line"/>
      <point x="200.8" y="714.0" type="line"/>
      <point x="163.8" y="514.9" type="line"/>
      <point x="50.4" y="514.9" type="line"/>
      <point x="50.4" y="460.0" type="line"/>
      <point x="153.43333333333334" y="460.0" type="line"/>
      <point x="115.16666666666667" y="259.6333333333333" type="line"/>
      <point x="17.766666666666666" y="259.6333333333333" type="line"/>
      <point x="17.766666666666666" y="206.1" type="line"/>
      <point x="105.16666666666667" y="206.1" type="line"/>
    </contour>
    <contour>
      <point x="172.7" y="259.6333333333333" type="line"/>
      <point x="210.06666666666666" y="460.0" type="line"/>
      <point x="338.76666666666665" y="460.0" type="line"/>
      <point x="301.4" y="259.6333333333333" type="line"/>
    </contour>
  </outline>
</glyph>
<glyph name="percent" format="2">
  <advance width="827.5333333333333"/>
  <unicode hex="0025"/>
  <outline>
    <contour>
      <point x="216.76666666666668" y="0.0" type="line"/>
      <point x="276.2" y="0.0" type="line"/>
      <point x="606.5" y="714.0" type="line"/>
      <point x="547.4333333333334" y="714.0" type="line"/>
    </contour>
    <contour>
      <point x="192.6" y="280.0" type="curve" smooth="yes"/>
      <point x="294.6333333333333" y="280.0"/>
      <point x="344.3333333333333" y="369.0"/>
      <point x="344.3333333333333" y="503.0" type="curve"/>
      <point x="344.3333333333333" y="637.0"/>
      <point x="294.0" y="724.0"/>
      <point x="193.6" y="724.0" type="curve" smooth="yes"/>
      <point x="86.56666666666666" y="724.0"/>
      <point x="41.233333333333334" y="637.0"/>
      <point x="41.233333333333334" y="503.0" type="curve" smooth="yes"/>
      <point x="41.233333333333334" y="369.0"/>
      <point x="85.93333333333334" y="280.0"/>
    </contour>
    <contour>
      <point x="192.6" y="317.9" type="curve" smooth="yes"/>
      <point x="138.9" y="317.9"/>
      <point x="119.1" y="385.53333333333336"/>
      <point x="119.1" y="503.0" type="curve"/>
      <point x="119.1" y="617.8333333333334"/>
      <point x="138.26666666666668" y="685.1"/>
      <point x="192.96666666666667" y="685.1" type="curve" smooth="yes"/>
      <point x="247.3" y="685.1"/>
      <point x="265.4666666666667" y="619.1"/>
      <point x="265.4666666666667" y="503.0" type="curve" smooth="yes"/>
      <point x="265.4666666666667" y="386.1666666666667"/>
      <point x="247.3" y="317.9"/>
    </contour>
    <contour>
      <point x="633.9333333333334" y="-10.0" type="curve" smooth="yes"/>
      <point x="735.9666666666667" y="-10.0"/>
      <point x="785.6666666666666" y="79.0"/>
      <point x="785.6666666666666" y="213.0" type="curve" smooth="yes"/>
      <point x="785.6666666666666" y="347.0"/>
      <point x="735.3333333333334" y="434.0"/>
      <point x="634.9333333333334" y="434.0" type="curve" smooth="yes"/>
      <point x="527.6333333333333" y="434.0"/>
      <point x="482.56666666666666" y="347.0"/>
      <point x="482.56666666666666" y="213.0" type="curve" smooth="yes"/>
      <point x="482.56666666666666" y="79.0"/>
      <point x="527.6333333333333" y="-10.0"/>
    </contour>
    <contour>
      <point x="633.9333333333334" y="27.9" type="curve" smooth="yes"/>
      <point x="580.2333333333333" y="27.9"/>
      <point x="560.4333333333334" y="95.53333333333333"/>
      <point x="560.4333333333334" y="213.0" type="curve" smooth="yes"/>
      <point x="560.4333333333334" y="327.8333333333333"/>
      <point x="579.6" y="395.1"/>
      <point x="634.5666666666667" y="395.1" type="curve" smooth="yes"/>
      <point x="688.6333333333333" y="395.1"/>
      <point x="706.1666666666666" y="329.1"/>
      <point x="706.1666666666666" y="213.0" type="curve" smooth="yes"/>
      <point x="706.1666666666666" y="96.16666666666667"/>
      <point x="688.6333333333333" y="27.9"/>
    </contour>
  </outline>
</glyph>
<glyph name="quotesingle" format="2">
  <advance width="203.3"/>
  <unicode hex="0027"/>
  <outline>
    <contour>
      <point x="80.06666666666666" y="483.6333333333333" type="line"/>
      <point x="122.6" y="483.6333333333333" type="line"/>
      <point x="150.23333333333332" y="714.0" type="line"/>
      <point x="53.06666666666667" y="714.0" type="line"/>
    </contour>
  </outline>
</glyph>
<glyph name="parenleft" format="2">
  <advance width="339.73333333333335"/>
  <unicode hex="0028"/>
  <outline>
    <contour>
      <point x="275.2" y="-126.36666666666666" type="curve"/>
      <point x="275.2" y="-83.0" type="line"/>
      <point x="148.93333333333334" y="-0.6333333333333333"/>
      <point x="133.66666666666666" y="158.0"/>
      <point x="133.66666666666666" y="317.0" type="curve" smooth="yes"/>
      <point x="133.66666666666666" y="476.0"/>
      <point x="148.93333333333334" y="633.9"/>
      <point x="275.2" y="715.3666666666667" type="curve"/>
      <point x="275.2" y="758.0" type="line"/>
      <point x="105.36666666666666" y="688.0"/>
      <point x="38.03333333333333" y="560.0"/>
      <point x="38.03333333333333" y="317.0" type="curve" smooth="yes"/>
      <point x="38.03333333333333" y="73.0"/>
      <point x="105.36666666666666" y="-55.63333333333333"/>
    </contour>
  </outline>
</glyph>
<glyph name="parenright" format="2">
  <advance width="358.1"/>
  <unicode hex="0029"/>
  <outline>
    <contour>
      <point x="83.26666666666667" y="-126.36666666666666" type="line"/>
      <point x="253.1" y="-55.63333333333333"/>
      <point x="320.43333333333334" y="73.0"/>
      <point x="320.43333333333334" y="317.0" type="curve" smooth="yes"/>
      <point x="320.43333333333334" y="560.0"/>
      <point x="253.1" y="688.0"/>
      <point x="83.26666666666667" y="758.0" type="curve"/>
      <point x="83.26666666666667" y="715.3666666666667" type="line"/>
      <point x="209.53333333333333" y="633.9"/>
      <point x="225.16666666666669" y="476.0"/>
      <point x="225.16666666666669" y="317.0" type="curve" smooth="yes"/>
      <point x="225.16666666666669" y="158.0"/>
      <point x="209.53333333333333" y="-0.6333333333333333"/>
      <point x="83.26666666666667" y="-83.0" type="curve"/>
    </contour>
  </outline>
</glyph>
<glyph name="asterisk" format="2">
  <advance width="449.4666666666667"/>
  <unicode hex="002A"/>
  <outline>
    <contour>
      <point x="184.03333333333333" y="376.53333333333336" type="line"/>
      <point x="262.6333333333333" y="376.53333333333336" type="line"/>
      <point x="237.1" y="539.1" type="line"/>
      <point x="376.1666666666667" y="445.0" type="line"/>
      <point x="407.7" y="517.9" type="line"/>
      <point x="256.8333333333333" y="568.2666666666667" type="line"/>
      <point x="407.7" y="619.2666666666667" type="line"/>
      <point x="376.1666666666667" y="691.5333333333333" type="line"/>
      <point x="237.1" y="597.8" type="line"/>
      <point x="262.0" y="760.0" type="line"/>
      <point x="184.03333333333333" y="760.0" type="line"/>
      <point x="207.56666666666666" y="597.4333333333333" type="line"/>
      <point x="69.5" y="694.1666666666666" type="line"/>
      <point x="37.333333333333336" y="620.2666666666667" type="line"/>
      <point x="188.2" y="568.2666666666667" type="line"/>
      <point x="37.333333333333336" y="516.9" type="line"/>
      <point x="69.5" y="443.0" type="line"/>
      <point x="206.93333333333334" y="539.1" type="line"/>
    </contour>
  </outline>
</glyph>
<glyph name="plus" format="2">
  <advance width="509.8666666666667"/>
  <unicode hex="002B"/>
  <outline>
    <contour>
      <point x="225.06666666666666" y="143.0" type="line"/>
      <point x="282.8" y="143.0" type="line"/>
      <point x="282.8" y="329.6333333333333" type="line"/>
      <point x="452.93333333333334" y="329.6333333333333" type="line"/>
      <point x="452.93333333333334" y="386.0" type="line"/>
      <point x="282.8" y="386.0" type="line"/>
      <point x="282.8" y="572.0" type="line"/>
      <point x="225.06666666666666" y="572.0" type="line"/>
      <point x="225.06666666666666" y="386.0" type="line"/>
      <point x="56.3" y="386.0" type="line"/>
      <point x="56.3" y="329.6333333333333" type="line"/>
      <point x="225.06666666666666" y="329.6333333333333" type="line"/>
    </contour>
  </outline>
</glyph>
<glyph name="comma" format="2">
  <advance width="275.4"/>
  <unicode hex="002C"/>
  <outline>
    <contour>
      <point x="67.46666666666667" y="-154.0" type="line"/>
      <point x="173.3" y="-120.73333333333333"/>
      <point x="213.63333333333333" y="-47.56666666666666"/>
      <point x="213.63333333333333" y="33.6" type="curve" smooth="yes"/>
      <point x="213.63333333333333" y="90.33333333333333"/>
      <point x="182.66666666666666" y="121.43333333333334"/>
      <point x="144.76666666666668" y="121.43333333333334" type="curve" smooth="yes"/>
      <point x="112.06666666666666" y="121.43333333333334"/>
      <point x="87.9" y="100.8"/>
      <point x="87.9" y="65.9" type="curve" smooth="yes"/>
      <point x="87.9" y="10.0"/>
      <point x="151.56666666666666" y="14.8"/>
      <point x="151.56666666666666" y="-24.1" type="curve" smooth="yes"/>
      <point x="151.56666666666666" y="-61.0"/>
      <point x="125.13333333333334" y="-94.46666666666667"/>
      <point x="67.46666666666667" y="-114.73333333333333" type="curve"/>
    </contour>
  </outline>
</glyph>
<glyph name="hyphen" format="2">
  <advance width="286.53333333333336"/>
  <unicode hex="002D"/>
  <outline>
    <contour>
      <point x="22.533333333333335" y="236.63333333333333" type="line"/>
      <point x="263.3666666666667" y="236.63333333333333" type="line"/>
      <point x="263.3666666666667" y="308.3666666666667" type="line"/>
      <point x="22.533333333333335" y="308.3666666666667" type="line"/>
    </contour>
  </outline>
</glyph>
<glyph name="period" format="2">
  <advance width="265.26666666666665"/>
  <unicode hex="002E"/>
  <outline>
    <contour>
      <point x="150.23333333333335" y="-7.0" type="curve" smooth="yes"/>
      <point x="180.4" y="-7.0"/>
      <point x="206.3" y="8.633333333333333"/>
      <point x="206.3" y="57.53333333333333" type="curve" smooth="yes"/>
      <point x="206.3" y="105.8"/>
      <point x="180.4" y="121.43333333333334"/>
      <point x="150.23333333333335" y="121.43333333333334" type="curve" smooth="yes"/>
      <point x="118.7" y="121.43333333333334"/>
      <point x="93.16666666666667" y="105.8"/>
      <point x="93.16666666666667" y="57.53333333333333" type="curve" smooth="yes"/>
      <point x="93.16666666666667" y="8.633333333333333"/>
      <point x="118.7" y="-7.0"/>
    </contour>
  </outline>
</glyph>
<glyph name="zero" format="2">
  <advance width="516.1"/>
  <unicode hex="0030"/>
  <outline>
    <contour>
      <point x="258.3666666666667" y="-10.0" type="curve" smooth="yes"/>
      <point x="405.8333333333333" y="-10.0"/>
      <point x="475.1333333333333" y="132.6"/>
      <point x="475.1333333333333" y="358.0" type="curve" smooth="yes"/>
      <point x="475.1333333333333" y="585.1333333333333"/>
      <point x="406.93333333333334" y="724.0"/>
      <point x="259.3666666666667" y="724.0" type="curve" smooth="yes"/>
      <point x="102.53333333333333" y="724.0"/>
      <point x="40.6" y="582.9333333333333"/>
      <point x="40.6" y="359.0" type="curve" smooth="yes"/>
      <point x="40.6" y="131.13333333333333"/>
      <point x="103.63333333333334" y="-10.0"/>
    </contour>
    <contour>
      <point x="258.3666666666667" y="42.53333333333333" type="curve" smooth="yes"/>
      <point x="169.8" y="42.53333333333333"/>
      <point x="139.83333333333334" y="158.9"/>
      <point x="139.83333333333334" y="358.0" type="curve" smooth="yes"/>
      <point x="139.83333333333334" y="557.1"/>
      <point x="169.8" y="671.4666666666667"/>
      <point x="259.3666666666667" y="671.4666666666667" type="curve" smooth="yes"/>
      <point x="346.93333333333334" y="671.4666666666667"/>
      <point x="376.6333333333333" y="557.1"/>
      <point x="376.6333333333333" y="358.0" type="curve" smooth="yes"/>
      <point x="376.6333333333333" y="158.9"/>
      <point x="346.93333333333334" y="42.53333333333333"/>
    </contour>
  </outline>
</glyph>
<glyph name="two" format="2">
  <advance width="516.1"/>
  <unicode hex="0032"/>
  <outline>
    <contour>
      <point x="52.2" y="0.0" type="line"/>
      <point x="455.8" y="0.0" type="line"/>
      <point x="460.06666666666666" y="171.9" type="line"/>
      <point x="419.1666666666667" y="171.9" type="line"/>
      <point x="415.1666666666667" y="153.53333333333333" type="line" smooth="yes"/>
      <point x="406.1666666666667" y="111.6"/>
      <point x="391.53333333333336" y="78.9"/>
      <point x="337.4" y="78.9" type="curve" smooth="yes"/>
      <point x="124.0" y="78.9" type="line"/>
      <point x="280.9" y="264.06666666666666" type="line" smooth="yes"/>
      <point x="377.8333333333333" y="376.03333333333336"/>
      <point x="437.6333333333333" y="458.1333333333333"/>
      <point x="437.6333333333333" y="555.9" type="curve" smooth="yes"/>
      <point x="437.6333333333333" y="656.9"/>
      <point x="365.4" y="724.0"/>
      <point x="246.36666666666667" y="724.0" type="curve" smooth="yes"/>
      <point x="124.7" y="724.0"/>
      <point x="62.1" y="666.6333333333333"/>
      <point x="62.1" y="591.8333333333334" type="curve" smooth="yes"/>
      <point x="62.1" y="541.2"/>
      <point x="99.73333333333333" y="526.8333333333334"/>
      <point x="144.06666666666666" y="526.8333333333334" type="curve"/>
      <point x="144.06666666666666" y="604.7333333333333"/>
      <point x="162.33333333333334" y="674.3666666666667"/>
      <point x="246.36666666666667" y="674.3666666666667" type="curve" smooth="yes"/>
      <point x="310.5" y="674.3666666666667"/>
      <point x="340.3" y="623.3666666666667"/>
      <point x="340.3" y="546.2666666666667" type="curve" smooth="yes"/>
      <point x="340.3" y="455.0"/>
      <point x="307.6" y="385.7"/>
      <point x="208.56666666666666" y="263.8" type="curve" smooth="yes"/>
      <point x="52.2" y="70.8" type="line"/>
    </contour>
  </outline>
</glyph>
<glyph name="four" format="2">
  <advance width="516.1"/>
  <unicode hex="0034"/>
  <outline>
    <contour>
      <point x="196.66666666666666" y="0.0" type="line"/>
      <point x="477.8666666666667" y="0.0" type="line"/>
      <point x="477.8666666666667" y="41.63333333333333" type="line"/>
      <point x="465.9666666666667" y="41.63333333333333" type="line" smooth="yes"/>
      <point x="423.9" y="41.63333333333333"/>
      <point x="389.8333333333333" y="50.63333333333333"/>
      <point x="389.8333333333333" y="113.63333333333334" type="curve" smooth="yes"/>
      <point x="389.8333333333333" y="196.36666666666667" type="line"/>
      <point x="502.4666666666667" y="196.36666666666667" type="line"/>
      <point x="502.4666666666667" y="252.0" type="line"/>
      <point x="389.8333333333333" y="252.0" type="line"/>
      <point x="389.8333333333333" y="714.0" type="line"/>
      <point x="298.1333333333333" y="714.0" type="line"/>
      <point x="15.533333333333333" y="236.63333333333333" type="line"/>
      <point x="15.533333333333333" y="196.36666666666667" type="line"/>
      <point x="298.23333333333335" y="196.36666666666667" type="line"/>
      <point x="298.23333333333335" y="113.63333333333334" type="line" smooth="yes"/>
      <point x="298.23333333333335" y="50.63333333333333"/>
      <point x="264.53333333333336" y="41.63333333333333"/>
      <point x="222.1" y="41.63333333333333" type="curve" smooth="yes"/>
      <point x="196.66666666666666" y="41.63333333333333" type="line"/>
    </contour>
    <contour>
      <point x="82.4" y="252.0" type="line"/>
      <point x="221.1" y="488.53333333333336" type="line" smooth="yes"/>
      <point x="243.36666666666667" y="527.1"/>
      <point x="291.8666666666667" y="615.9"/>
      <point x="304.5" y="644.7333333333333" type="curve"/>
      <point x="299.8666666666667" y="582.7333333333333"/>
      <point x="298.23333333333335" y="496.46666666666664"/>
      <point x="298.23333333333335" y="438.46666666666664" type="curve" smooth="yes"/>
      <point x="298.23333333333335" y="252.0" type="line"/>
    </contour>
  </outline>
</glyph>
<glyph name="five" format="2">
  <advance width="516.1"/>
  <unicode hex="0035"/>
  <outline>
    <contour>
      <point x="225.3" y="-10.0" type="curve" smooth="yes"/>
      <point x="364.0" y="-10.0"/>
      <point x="450.06666666666666" y="83.1"/>
      <point x="450.06666666666666" y="218.0" type="curve" smooth="yes"/>
      <point x="450.06666666666666" y="358.6333333333333"/>
      <point x="358.76666666666665" y="429.0"/>
      <point x="236.36666666666667" y="429.0" type="curve" smooth="yes"/>
      <point x="186.53333333333333" y="429.0"/>
      <point x="149.63333333333333" y="420.0"/>
      <point x="129.63333333333333" y="412.26666666666665" type="curve"/>
      <point x="147.9" y="635.1" type="line"/>
      <point x="327.23333333333335" y="635.1" type="line" smooth="yes"/>
      <point x="365.56666666666666" y="635.1"/>
      <point x="370.6333333333333" y="622.4666666666667"/>
      <point x="376.4666666666667" y="590.8" type="curve" smooth="yes"/>
      <point x="380.8333333333333" y="564.1" type="line"/>
      <point x="421.73333333333335" y="564.1" type="line"/>
      <point x="417.4666666666667" y="714.0" type="line"/>
      <point x="106.2" y="714.0" type="line"/>
      <point x="76.03333333333333" y="359.73333333333335" type="line"/>
      <point x="98.2" y="351.6333333333333" type="line"/>
      <point x="121.73333333333333" y="363.0"/>
      <point x="152.56666666666666" y="375.46666666666664"/>
      <point x="212.76666666666668" y="375.46666666666664" type="curve" smooth="yes"/>
      <point x="296.3333333333333" y="375.46666666666664"/>
      <point x="350.8333333333333" y="323.0"/>
      <point x="350.8333333333333" y="218.0" type="curve" smooth="yes"/>
      <point x="350.8333333333333" y="88.8"/>
      <point x="294.9666666666667" y="46.06666666666667"/>
      <point x="219.93333333333334" y="46.06666666666667" type="curve" smooth="yes"/>
      <point x="145.16666666666666" y="46.06666666666667"/>
      <point x="108.83333333333333" y="93.73333333333333"/>
      <point x="108.83333333333333" y="151.83333333333334" type="curve"/>
      <point x="69.86666666666667" y="151.83333333333334"/>
      <point x="49.5" y="128.73333333333332"/>
      <point x="49.5" y="92.1" type="curve" smooth="yes"/>
      <point x="49.5" y="47.833333333333336"/>
      <point x="88.3" y="-10.0"/>
    </contour>
  </outline>
</glyph>
<glyph name="six" format="2">
  <advance width="516.1"/>
  <unicode hex="0036"/>
  <outline>
    <contour>
      <point x="270.6333333333333" y="-10.0" type="curve" smooth="yes"/>
      <point x="397.1" y="-10.0"/>
      <point x="470.23333333333335" y="88.0"/>
      <point x="470.23333333333335" y="229.0" type="curve" smooth="yes"/>
      <point x="470.23333333333335" y="356.6333333333333"/>
      <point x="397.1" y="433.6333333333333"/>
      <point x="285.73333333333335" y="433.6333333333333" type="curve" smooth="yes"/>
      <point x="224.4" y="433.6333333333333"/>
      <point x="182.7" y="407.53333333333336"/>
      <point x="153.0" y="380.9" type="curve"/>
      <point x="158.53333333333333" y="575.0"/>
      <point x="204.76666666666668" y="676.3666666666667"/>
      <point x="294.8666666666667" y="676.3666666666667" type="curve" smooth="yes"/>
      <point x="354.4666666666667" y="676.3666666666667"/>
      <point x="377.73333333333335" y="626.5666666666667"/>
      <point x="377.73333333333335" y="560.1" type="curve"/>
      <point x="425.1666666666667" y="560.1"/>
      <point x="450.7" y="581.0"/>
      <point x="450.7" y="619.0" type="curve" smooth="yes"/>
      <point x="450.7" y="673.0"/>
      <point x="399.6333333333333" y="724.0"/>
      <point x="295.9666666666667" y="724.0" type="curve" smooth="yes"/>
      <point x="131.8" y="724.0"/>
      <point x="55.13333333333333" y="561.7333333333333"/>
      <point x="55.13333333333333" y="352.6666666666667" type="curve" smooth="yes"/>
      <point x="55.13333333333333" y="97.0"/>
      <point x="146.8" y="-10.0"/>
    </contour>
    <contour>
      <point x="273.26666666666665" y="43.166666666666664" type="curve" smooth="yes"/>
      <point x="200.23333333333335" y="43.166666666666664"/>
      <point x="154.0" y="127.93333333333334"/>
      <point x="152.0" y="325.73333333333335" type="curve"/>
      <point x="176.06666666666666" y="352.6333333333333"/>
      <point x="215.93333333333334" y="383.73333333333335"/>
      <point x="266.4666666666667" y="383.73333333333335" type="curve" smooth="yes"/>
      <point x="336.1333333333333" y="383.73333333333335"/>
      <point x="373.73333333333335" y="333.3666666666667"/>
      <point x="373.73333333333335" y="219.0" type="curve" smooth="yes"/>
      <point x="373.73333333333335" y="96.9"/>
      <point x="338.03333333333336" y="43.166666666666664"/>
    </contour>
  </outline>
</glyph>
<glyph name="seven" format="2">
  <advance width="516.1"/>
  <unicode hex="0037"/>
  <outline>
    <contour>
      <point x="169.83333333333334" y="0.0" type="line"/>
      <point x="240.06666666666666" y="0.0" type="line"/>
      <point x="471.4" y="685.7333333333333" type="line"/>
      <point x="471.4" y="714.0" type="line"/>
      <point x="57.4" y="714.0" type="line"/>
      <point x="52.4" y="534.1" type="line"/>
      <point x="94.4" y="534.1" type="line"/>
      <point x="98.4" y="583.0" type="line" smooth="yes"/>
      <point x="101.4" y="617.8333333333334"/>
      <point x="117.83333333333333" y="635.1"/>
      <point x="151.26666666666668" y="635.1" type="curve" smooth="yes"/>
      <point x="394.4666666666667" y="635.1" type="line"/>
    </contour>
  </outline>
</glyph>
<glyph name="eight" format="2">
  <advance width="516.1"/>
  <unicode hex="0038"/>
  <outline>
    <contour>
      <point x="252.83333333333334" y="-10.0" type="curve" smooth="yes"/>
      <point x="388.56666666666666" y="-10.0"/>
      <point x="474.8666666666667" y="62.53333333333333"/>
      <point x="474.8666666666667" y="186.23333333333332" type="curve" smooth="yes"/>
      <point x="474.8666666666667" y="279.8333333333333"/>
      <point x="413.73333333333335" y="335.6333333333333"/>
      <point x="322.8" y="381.53333333333336" type="curve"/>
      <point x="397.56666666666666" y="420.06666666666666"/>
      <point x="446.8" y="464.73333333333335"/>
      <point x="446.8" y="554.2" type="curve" smooth="yes"/>
      <point x="446.8" y="653.1"/>
      <point x="379.93333333333334" y="724.0"/>
      <point x="262.6333333333333" y="724.0" type="curve" smooth="yes"/>
      <point x="121.83333333333333" y="724.0"/>
      <point x="62.766666666666666" y="640.3"/>
      <point x="62.766666666666666" y="546.1" type="curve" smooth="yes"/>
      <point x="62.766666666666666" y="460.26666666666665"/>
      <point x="112.1" y="406.1"/>
      <point x="182.23333333333335" y="363.8333333333333" type="curve"/>
      <point x="102.93333333333334" y="324.03333333333336"/>
      <point x="41.96666666666667" y="275.0"/>
      <point x="41.96666666666667" y="176.8" type="curve" smooth="yes"/>
      <point x="41.96666666666667" y="72.53333333333333"/>
      <point x="112.73333333333333" y="-10.0"/>
    </contour>
    <contour>
      <point x="256.73333333333335" y="37.1" type="curve" smooth="yes"/>
      <point x="176.16666666666666" y="37.1"/>
      <point x="133.46666666666667" y="90.9"/>
      <point x="133.46666666666667" y="175.36666666666667" type="curve" smooth="yes"/>
      <point x="133.46666666666667" y="250.36666666666667"/>
      <point x="168.7" y="305.1"/>
      <point x="226.2" y="339.46666666666664" type="curve"/>
      <point x="342.3666666666667" y="283.1"/>
      <point x="386.06666666666666" y="237.0"/>
      <point x="386.06666666666666" y="168.26666666666668" type="curve" smooth="yes"/>
      <point x="386.06666666666666" y="89.43333333333334"/>
      <point x="334.56666666666666" y="37.1"/>
    </contour>
    <contour>
      <point x="277.4666666666667" y="404.1666666666667" type="curve"/>
      <point x="196.53333333333333" y="445.1666666666667"/>
      <point x="153.1" y="483.53333333333336"/>
      <point x="153.1" y="558.1" type="curve" smooth="yes"/>
      <point x="153.1" y="627.1"/>
      <point x="190.06666666666666" y="676.2666666666667"/>
      <point x="258.1" y="676.2666666666667" type="curve" smooth="yes"/>
      <point x="333.6666666666667" y="676.2666666666667"/>
      <point x="362.2" y="616.1"/>
      <point x="362.2" y="554.7333333333333" type="curve" smooth="yes"/>
      <point x="362.2" y="484.3666666666667"/>
      <point x="342.93333333333334" y="441.1666666666667"/>
    </contour>
  </outline>
</glyph>
<glyph name="colon" format="2">
  <advance width="264.9"/>
  <unicode hex="003A"/>
  <outline>
    <contour>
      <point x="149.86666666666667" y="408.3666666666667" type="curve" smooth="yes"/>
      <point x="180.03333333333333" y="408.3666666666667"/>
      <point x="205.93333333333334" y="423.6333333333333"/>
      <point x="205.93333333333334" y="471.9" type="curve" smooth="yes"/>
      <point x="205.93333333333334" y="520.8"/>
      <point x="180.03333333333333" y="535.4333333333333"/>
      <point x="149.86666666666667" y="535.4333333333333" type="curve" smooth="yes"/>
      <point x="118.33333333333334" y="535.4333333333333"/>
      <point x="93.16666666666667" y="520.8"/>
      <point x="93.16666666666667" y="471.9" type="curve" smooth="yes"/>
      <point x="93.16666666666667" y="423.6333333333333"/>
      <point x="118.33333333333334" y="408.3666666666667"/>
    </contour>
    <contour>
      <point x="149.86666666666667" y="-7.0" type="curve" smooth="yes"/>
      <point x="180.03333333333333" y="-7.0"/>
      <point x="205.93333333333334" y="8.633333333333333"/>
      <point x="205.93333333333334" y="57.53333333333333" type="curve" smooth="yes"/>
      <point x="205.93333333333334" y="105.8"/>
      <point x="180.03333333333333" y="121.43333333333334"/>
      <point x="149.86666666666667" y="121.43333333333334" type="curve" smooth="yes"/>
      <point x="118.33333333333334" y="121.43333333333334"/>
      <point x="93.16666666666667" y="105.8"/>
      <point x="93.16666666666667" y="57.53333333333333" type="curve" smooth="yes"/>
      <point x="93.16666666666667" y="8.633333333333333"/>
      <point x="118.33333333333334" y="-7.0"/>
    </contour>
  </outline>
</glyph>
<glyph name="semicolon" format="2">
  <advance width="284.56666666666666"/>
  <unicode hex="003B"/>
  <outline>
    <contour>
      <point x="67.46666666666667" y="-154.0" type="line"/>
      <point x="173.66666666666666" y="-120.73333333333333"/>
      <point x="214.0" y="-47.56666666666666"/>
      <point x="214.0" y="33.6" type="curve" smooth="yes"/>
      <point x="214.0" y="90.33333333333333"/>
      <point x="183.03333333333333" y="121.43333333333334"/>
      <point x="144.13333333333333" y="121.43333333333334" type="curve" smooth="yes"/>
      <point x="112.43333333333334" y="121.43333333333334"/>
      <point x="88.26666666666667" y="100.8"/>
      <point x="88.26666666666667" y="65.9" type="curve" smooth="yes"/>
      <point x="88.26666666666667" y="10.0"/>
      <point x="152.3" y="14.8"/>
      <point x="152.3" y="-24.1" type="curve"/>
      <point x="152.3" y="-61.36666666666667"/>
      <point x="125.23333333333333" y="-94.46666666666667"/>
      <point x="67.46666666666667" y="-114.73333333333333" type="curve"/>
    </contour>
    <contour>
      <point x="152.4" y="408.3666666666667" type="curve" smooth="yes"/>
      <point x="182.93333333333334" y="408.3666666666667"/>
      <point x="209.1" y="423.6333333333333"/>
      <point x="209.1" y="471.9" type="curve" smooth="yes"/>
      <point x="209.1" y="520.8"/>
      <point x="182.93333333333334" y="535.4333333333333"/>
      <point x="152.4" y="535.4333333333333" type="curve" smooth="yes"/>
      <point x="120.86666666666667" y="535.4333333333333"/>
      <point x="96.33333333333334" y="520.8"/>
      <point x="96.33333333333334" y="471.9" type="curve" smooth="yes"/>
      <point x="96.33333333333334" y="423.6333333333333"/>
      <point x="120.86666666666667" y="408.3666666666667"/>
    </contour>
  </outline>
</glyph>
<glyph name="less" format="2">
  <advance width="509.8666666666667"/>
  <unicode hex="003C"/>
  <outline>
    <contour>
      <point x="452.93333333333334" y="111.0" type="line"/>
      <point x="452.93333333333334" y="175.1" type="line"/>
      <point x="139.9" y="357.0" type="line"/>
      <point x="452.93333333333334" y="541.2666666666667" type="line"/>
      <point x="452.93333333333334" y="605.0" type="line"/>
      <point x="56.93333333333334" y="375.0" type="line"/>
      <point x="56.93333333333334" y="340.0" type="line"/>
    </contour>
  </outline>
</glyph>
<glyph name="equal" format="2">
  <advance width="509.8666666666667"/>
  <unicode hex="003D"/>
  <outline>
    <contour>
      <point x="56.93333333333334" y="426.1666666666667" type="line"/>
      <point x="452.93333333333334" y="426.1666666666667" type="line"/>
      <point x="452.93333333333334" y="482.9" type="line"/>
      <point x="56.93333333333334" y="482.9" type="line"/>
    </contour>
    <contour>
      <point x="56.93333333333334" y="230.46666666666667" type="line"/>
      <point x="452.93333333333334" y="230.46666666666667" type="line"/>
      <point x="452.93333333333334" y="287.8333333333333" type="line"/>
      <point x="56.93333333333334" y="287.8333333333333" type="line"/>
    </contour>
  </outline>
</glyph>
<glyph name="greater" format="2">
  <advance width="509.8666666666667"/>
  <unicode hex="003E"/>
  <outline>
    <contour>
      <point x="56.93333333333334" y="111.0" type="line"/>
      <point x="452.93333333333334" y="340.0" type="line"/>
      <point x="452.93333333333334" y="375.0" type="line"/>
      <point x="56.93333333333334" y="605.0" type="line"/>
      <point x="56.93333333333334" y="541.2666666666667" type="line"/>
      <point x="369.6" y="357.0" type="line"/>
      <point x="56.93333333333334" y="175.1" type="line"/>
    </contour>
  </outline>
</glyph>
<glyph name="question" format="2">
  <advance width="453.1666666666667"/>
  <unicode hex="003F"/>
  <outline>
    <contour>
      <point x="176.66666666666666" y="203.93333333333334" type="line"/>
      <point x="231.06666666666666" y="203.93333333333334" type="line"/>
      <point x="234.73333333333335" y="317.3" type="line"/>
      <point x="349.93333333333334" y="367.93333333333334"/>
      <point x="411.8666666666667" y="434.1"/>
      <point x="411.8666666666667" y="544.4666666666667" type="curve" smooth="yes"/>
      <point x="411.8666666666667" y="658.1"/>
      <point x="328.4" y="724.0"/>
      <point x="209.73333333333335" y="724.0" type="curve" smooth="yes"/>
      <point x="90.63333333333334" y="724.0"/>
      <point x="33.36666666666667" y="675.2666666666667"/>
      <point x="33.36666666666667" y="612.0" type="curve" smooth="yes"/>
      <point x="33.36666666666667" y="569.0"/>
      <point x="66.53333333333333" y="549.2"/>
      <point x="113.43333333333334" y="549.2" type="curve"/>
      <point x="113.43333333333334" y="620.0333333333333"/>
      <point x="139.5" y="675.3666666666667"/>
      <point x="214.43333333333334" y="675.3666666666667" type="curve" smooth="yes"/>
      <point x="283.73333333333335" y="675.3666666666667"/>
      <point x="314.26666666666665" y="625.7"/>
      <point x="314.26666666666665" y="555.6" type="curve" smooth="yes"/>
      <point x="314.26666666666665" y="473.03333333333336"/>
      <point x="280.2" y="397.8"/>
      <point x="173.36666666666667" y="350.43333333333334" type="curve"/>
    </contour>
    <contour>
      <point x="202.73333333333335" y="-7.0" type="curve" smooth="yes"/>
      <point x="234.9" y="-7.0"/>
      <point x="262.06666666666666" y="9.266666666666667"/>
      <point x="262.06666666666666" y="58.8" type="curve" smooth="yes"/>
      <point x="262.06666666666666" y="108.96666666666667"/>
      <point x="234.9" y="124.6"/>
      <point x="202.73333333333335" y="124.6" type="curve" smooth="yes"/>
      <point x="170.3" y="124.6"/>
      <point x="144.5" y="108.96666666666667"/>
      <point x="144.5" y="58.8" type="curve" smooth="yes"/>
      <point x="144.5" y="9.266666666666667"/>
      <point x="170.3" y="-7.0"/>
    </contour>
  </outline>
</glyph>
<glyph name="bracketleft" format="2">
  <advance width="335.26666666666665"/>
  <unicode hex="005B"/>
  <outline>
    <contour>
      <point x="68.86666666666666" y="-128.0" type="line"/>
      <point x="275.23333333333335" y="-128.0" type="line"/>
      <point x="275.23333333333335" y="-87.63333333333334" type="line"/>
      <point x="233.0" y="-87.63333333333334" type="line" smooth="yes"/>
      <point x="191.66666666666666" y="-87.63333333333334"/>
      <point x="159.76666666666668" y="-78.63333333333334"/>
      <point x="159.76666666666668" y="-15.0" type="curve" smooth="yes"/>
      <point x="159.76666666666668" y="646.3666666666667" type="line" smooth="yes"/>
      <point x="159.76666666666668" y="710.6333333333333"/>
      <point x="191.66666666666666" y="719.6333333333333"/>
      <point x="233.0" y="719.6333333333333" type="curve" smooth="yes"/>
      <point x="275.23333333333335" y="719.6333333333333" type="line"/>
      <point x="275.23333333333335" y="760.0" type="line"/>
      <point x="68.86666666666666" y="760.0" type="line"/>
    </contour>
  </outline>
</glyph>
<glyph name="backslash" format="2">
  <advance width="266.0"/>
  <unicode hex="005C"/>
  <outline>
    <contour>
      <point x="212.56666666666666" y="-121.0" type="line"/>
      <point x="266.0" y="-121.0" type="line"/>
      <point x="52.8" y="760.0" type="line"/>
      <point x="0.0" y="760.0" type="line"/>
    </contour>
  </outline>
</glyph>
<glyph name="bracketright" format="2">
  <advance width="356.8"/>
  <unicode hex="005D"/>
  <outline>
    <contour>
      <point x="81.93333333333334" y="-128.0" type="line"/>
      <point x="287.3" y="-128.0" type="line"/>
      <point x="287.3" y="760.0" type="line"/>
      <point x="81.93333333333334" y="760.0" type="line"/>
      <point x="81.93333333333334" y="719.6333333333333" type="line"/>
      <point x="123.16666666666667" y="719.6333333333333" type="line" smooth="yes"/>
      <point x="165.5" y="719.6333333333333"/>
      <point x="197.03333333333333" y="710.6333333333333"/>
      <point x="197.03333333333333" y="646.3666666666667" type="curve" smooth="yes"/>
      <point x="197.03333333333333" y="-15.0" type="line" smooth="yes"/>
      <point x="197.03333333333333" y="-78.63333333333334"/>
      <point x="165.5" y="-87.63333333333334"/>
      <point x="123.16666666666667" y="-87.63333333333334" type="curve" smooth="yes"/>
      <point x="81.93333333333334" y="-87.63333333333334" type="line"/>
    </contour>
  </outline>
</glyph>
<glyph name="asciicircum" format="2">
  <advance width="509.5"/>
  <unicode hex="005E"/>
  <outline>
    <contour>
      <point x="43.3" y="267.0" type="line"/>
      <point x="104.0" y="267.0" type="line"/>
      <point x="253.43333333333334" y="626.5333333333333" type="line"/>
      <point x="404.5" y="267.0" type="line"/>
      <point x="464.93333333333334" y="267.0" type="line"/>
      <point x="269.7" y="714.0" type="line"/>
      <point x="238.16666666666666" y="714.0" type="line"/>
    </contour>
  </outline>
</glyph>
<glyph name="underscore" format="2">
  <advance width="423.43333333333334"/>
  <unicode hex="005F"/>
  <outline>
    <contour>
      <point x="-4.633333333333334" y="-140.1" type="line"/>
      <point x="428.06666666666666" y="-140.1" type="line"/>
      <point x="428.06666666666666" y="-83.0" type="line"/>
      <point x="-4.633333333333334" y="-83.0" type="line"/>
    </contour>
  </outline>
</glyph>
<glyph name="braceleft" format="2">
  <advance width="390.4"/>
  <unicode hex="007B"/>
  <outline>
    <contour>
      <point x="267.6333333333333" y="-128.0" type="curve" smooth="yes"/>
      <point x="328.1666666666667" y="-128.0" type="line"/>
      <point x="328.1666666666667" y="-86.63333333333334" type="line"/>
      <point x="300.0" y="-86.63333333333334" type="line" smooth="yes"/>
      <point x="245.76666666666668" y="-86.63333333333334"/>
      <point x="224.96666666666667" y="-49.63333333333333"/>
      <point x="224.96666666666667" y="19.0" type="curve" smooth="yes"/>
      <point x="224.96666666666667" y="192.0" type="line" smooth="yes"/>
      <point x="224.96666666666667" y="259.0"/>
      <point x="192.53333333333333" y="305.0"/>
      <point x="124.03333333333333" y="317.0" type="curve"/>
      <point x="124.03333333333333" y="318.0" type="line"/>
      <point x="191.26666666666668" y="329.6333333333333"/>
      <point x="224.96666666666667" y="375.0"/>
      <point x="224.96666666666667" y="441.0" type="curve" smooth="yes"/>
      <point x="224.96666666666667" y="612.6333333333333" type="line" smooth="yes"/>
      <point x="224.96666666666667" y="682.6333333333333"/>
      <point x="245.76666666666668" y="718.6333333333333"/>
      <point x="300.6333333333333" y="718.6333333333333" type="curve" smooth="yes"/>
      <point x="328.1666666666667" y="718.6333333333333" type="line"/>
      <point x="328.1666666666667" y="760.0" type="line"/>
      <point x="267.6333333333333" y="760.0" type="line" smooth="yes"/>
      <point x="180.76666666666668" y="760.0"/>
      <point x="134.33333333333334" y="708.0"/>
      <point x="134.33333333333334" y="617.6333333333333" type="curve" smooth="yes"/>
      <point x="134.33333333333334" y="443.0" type="line" smooth="yes"/>
      <point x="134.33333333333334" y="361.3666666666667"/>
      <point x="86.73333333333333" y="338.3666666666667"/>
      <point x="25.5" y="336.3666666666667" type="curve"/>
      <point x="25.5" y="297.0" type="line"/>
      <point x="86.73333333333333" y="294.0"/>
      <point x="134.33333333333334" y="272.0"/>
      <point x="134.33333333333334" y="189.0" type="curve" smooth="yes"/>
      <point x="134.33333333333334" y="15.366666666666667" type="line" smooth="yes"/>
      <point x="134.33333333333334" y="-72.36666666666666"/>
      <point x="180.76666666666668" y="-128.0"/>
    </contour>
  </outline>
</glyph>
<glyph name="bar" format="2">
  <advance width="515.4666666666667"/>
  <unicode hex="007C"/>
  <outline>
    <contour>
      <point x="229.83333333333334" y="-240.0" type="line"/>
      <point x="285.26666666666665" y="-240.0" type="line"/>
      <point x="285.26666666666665" y="760.0" type="line"/>
      <point x="229.83333333333334" y="760.0" type="line"/>
    </contour>
  </outline>
</glyph>
<glyph name="braceright" format="2">
  <advance width="411.93333333333334"/>
  <unicode hex="007D"/>
  <outline>
    <contour>
      <point x="83.76666666666667" y="-128.0" type="line"/>
      <point x="145.3" y="-128.0" type="line" smooth="yes"/>
      <point x="232.16666666666669" y="-128.0"/>
      <point x="277.6" y="-72.36666666666666"/>
      <point x="277.6" y="15.366666666666667" type="curve" smooth="yes"/>
      <point x="277.6" y="189.0" type="line" smooth="yes"/>
      <point x="277.6" y="272.0"/>
      <point x="326.56666666666666" y="294.0"/>
      <point x="387.06666666666666" y="297.0" type="curve"/>
      <point x="387.06666666666666" y="336.3666666666667" type="line"/>
      <point x="326.56666666666666" y="338.3666666666667"/>
      <point x="277.6" y="361.3666666666667"/>
      <point x="277.6" y="443.0" type="curve" smooth="yes"/>
      <point x="277.6" y="617.6333333333333" type="line" smooth="yes"/>
      <point x="277.6" y="708.0"/>
      <point x="232.16666666666669" y="760.0"/>
      <point x="145.3" y="760.0" type="curve" smooth="yes"/>
      <point x="83.76666666666667" y="760.0" type="line"/>
      <point x="83.76666666666667" y="718.6333333333333" type="line"/>
      <point x="112.3" y="718.6333333333333" type="line" smooth="yes"/>
      <point x="167.53333333333333" y="718.6333333333333"/>
      <point x="187.6" y="682.6333333333333"/>
      <point x="187.6" y="612.6333333333333" type="curve" smooth="yes"/>
      <point x="187.6" y="441.0" type="line" smooth="yes"/>
      <point x="187.6" y="375.0"/>
      <point x="221.66666666666669" y="329.6333333333333"/>
      <point x="289.26666666666665" y="318.0" type="curve"/>
      <point x="289.26666666666665" y="317.0" type="line"/>
      <point x="219.03333333333333" y="305.0"/>
      <point x="187.6" y="259.0"/>
      <point x="187.6" y="192.0" type="curve" smooth="yes"/>
      <point x="187.6" y="19.0" type="line" smooth="yes"/>
      <point x="187.6" y="-49.63333333333333"/>
      <point x="167.53333333333333" y="-86.63333333333334"/>
      <point x="112.93333333333334" y="-86.63333333333334" type="curve" smooth="yes"/>
      <point x="83.76666666666667" y="-86.63333333333334" type="line"/>
    </contour>
  </outline>
</glyph>
<glyph name="asciitilde" format="2">
  <advance width="509.8666666666667"/>
  <unicode hex="007E"/>
  <outline>
    <contour>
      <point x="45.833333333333336" y="270.0" type="curve"/>
      <point x="100.73333333333333" y="270.0" type="line"/>
      <point x="108.36666666666667" y="349.73333333333335"/>
      <point x="123.9" y="387.73333333333335"/>
      <point x="159.96666666666667" y="387.73333333333335" type="curve" smooth="yes"/>
      <point x="188.56666666666666" y="387.73333333333335"/>
      <point x="209.9" y="364.93333333333334"/>
      <point x="240.16666666666666" y="333.73333333333335" type="curve" smooth="yes"/>
      <point x="280.8333333333333" y="290.6666666666667"/>
      <point x="311.43333333333334" y="270.0"/>
      <point x="351.56666666666666" y="270.0" type="curve" smooth="yes"/>
      <point x="436.5" y="270.0"/>
      <point x="457.23333333333335" y="370.23333333333335"/>
      <point x="464.5" y="443.3666666666667" type="curve"/>
      <point x="408.6" y="443.3666666666667" type="line"/>
      <point x="400.06666666666666" y="367.43333333333334"/>
      <point x="386.8" y="325.6333333333333"/>
      <point x="351.1" y="325.6333333333333" type="curve" smooth="yes"/>
      <point x="325.3" y="325.6333333333333"/>
      <point x="303.7" y="348.1666666666667"/>
      <point x="274.7" y="377.3666666666667" type="curve" smooth="yes"/>
      <point x="232.0" y="418.6333333333333"/>
      <point x="202.56666666666666" y="443.3666666666667"/>
      <point x="158.86666666666667" y="443.3666666666667" type="curve" smooth="yes"/>
      <point x="72.46666666666667" y="443.3666666666667"/>
      <point x="53.1" y="348.93333333333334"/>
    </contour>
  </outline>
</glyph>
<glyph name="multiply" format="2">
  <advance width="509.23333333333335"/>
  <unicode hex="00D7"/>
  <outline>
    <contour>
      <point x="101.56666666666666" y="149.73333333333332" type="line"/>
      <point x="255.53333333333333" y="316.53333333333336" type="line"/>
      <point x="409.5" y="149.73333333333332" type="line"/>
      <point x="450.6" y="187.9" type="line"/>
      <point x="294.06666666666666" y="358.0" type="line"/>
      <point x="450.6" y="527.7333333333333" type="line"/>
      <point x="409.5" y="565.9" type="line"/>
      <point x="255.53333333333333" y="399.2" type="line"/>
      <point x="101.93333333333334" y="565.6333333333333" type="line"/>
      <point x="60.46666666666667" y="528.1" type="line"/>
      <point x="217.36666666666667" y="358.6333333333333" type="line"/>
      <point x="60.46666666666667" y="188.16666666666666" type="line"/>
    </contour>
  </outline>
</glyph>
<glyph name="divide" format="2">
  <advance width="509.8666666666667"/>
  <unicode hex="00F7"/>
  <outline>
    <contour>
      <point x="56.93333333333334" y="329.6333333333333" type="line"/>
      <point x="452.93333333333334" y="329.6333333333333" type="line"/>
      <point x="452.93333333333334" y="386.0" type="line"/>
      <point x="56.93333333333334" y="386.0" type="line"/>
    </contour>
    <contour>
      <point x="255.43333333333334" y="115.26666666666667" type="curve" smooth="yes"/>
      <point x="281.9666666666667" y="115.26666666666667"/>
      <point x="302.8666666666667" y="129.26666666666668"/>
      <point x="302.8666666666667" y="169.26666666666668" type="curve" smooth="yes"/>
      <point x="302.8666666666667" y="210.26666666666668"/>
      <point x="281.9666666666667" y="223.26666666666668"/>
      <point x="255.43333333333334" y="223.26666666666668" type="curve" smooth="yes"/>
      <point x="227.9" y="223.26666666666668"/>
      <point x="207.63333333333333" y="210.26666666666668"/>
      <point x="207.63333333333333" y="169.26666666666668" type="curve" smooth="yes"/>
      <point x="207.63333333333333" y="129.26666666666668"/>
      <point x="227.9" y="115.26666666666667"/>
    </contour>
    <contour>
      <point x="255.43333333333334" y="492.3666666666667" type="curve" smooth="yes"/>
      <point x="281.9666666666667" y="492.3666666666667"/>
      <point x="302.8666666666667" y="505.73333333333335"/>
      <point x="302.8666666666667" y="545.7333333333333" type="curve" smooth="yes"/>
      <point x="302.8666666666667" y="586.7333333333333"/>
      <point x="281.9666666666667" y="599.7333333333333"/>
      <point x="255.43333333333334" y="599.7333333333333" type="curve" smooth="yes"/>
      <point x="227.9" y="599.7333333333333"/>
      <point x="207.63333333333333" y="586.7333333333333"/>
      <point x="207.63333333333333" y="545.7333333333333" type="curve" smooth="yes"/>
      <point x="207.63333333333333" y="505.73333333333335"/>
      <point x="227.9" y="492.3666666666667"/>
    </contour>
  </outline>
</glyph>
<glyph name="udatta-deva" format="2">
  <unicode hex="0951"/>
  <anchor x="-299.0" y="-250.0" name="_vedic"/>
  <outline>
    <contour>
      <point x="-326.6333333333333" y="706.0" type="line"/>
      <point x="-270.3666666666667" y="706.0" type="line"/>
      <point x="-270.3666666666667" y="911.0" type="line"/>
      <point x="-326.6333333333333" y="911.0" type="line"/>
    </contour>
  </outline>
</glyph>
<glyph name="anudatta-deva" format="2">
  <unicode hex="0952"/>
  <anchor x="-299.0" y="373.6666666666667" name="_vedic"/>
  <outline>
    <contour>
      <point x="-493.76666666666665" y="-144.0" type="line"/>
      <point x="-103.23333333333333" y="-144.0" type="line"/>
      <point x="-103.23333333333333" y="-92.0" type="line"/>
      <point x="-493.76666666666665" y="-92.0" type="line"/>
    </contour>
  </outline>
</glyph>
<glyph name="danda-deva" format="2">
  <advance width="416.3333333333333"/>
  <unicode hex="0964"/>
  <outline>
    <contour>
      <point x="334.3333333333333" y="-23.0" type="line"/>
      <point x="337.3333333333333" y="-22.0" type="line"/>
      <point x="337.3333333333333" y="585.0" type="line"/>
      <point x="286.3333333333333" y="622.0" type="line"/>
      <point x="283.3333333333333" y="622.0" type="line"/>
      <point x="283.3333333333333" y="5.0" type="line"/>
    </contour>
  </outline>
</glyph>
<glyph name="dbldanda-deva" format="2">
  <advance width="564.7"/>
  <unicode hex="0965"/>
  <outline>
    <contour>
      <point x="482.7" y="-23.0" type="line"/>
      <point x="485.7" y="-22.0" type="line"/>
      <point x="485.7" y="585.0" type="line"/>
      <point x="434.7" y="622.0" type="line"/>
      <point x="431.7" y="622.0" type="line"/>
      <point x="431.7" y="5.0" type="line"/>
    </contour>
    <contour>
      <point x="334.3333333333333" y="-23.0" type="line"/>
      <point x="337.3333333333333" y="-22.0" type="line"/>
      <point x="337.3333333333333" y="585.0" type="line"/>
      <point x="286.3333333333333" y="622.0" type="line"/>
      <point x="283.3333333333333" y="622.0" type="line"/>
      <point x="283.3333333333333" y="5.0" type="line"/>
    </contour>
  </outline>
</glyph>
<glyph name="anji-beng" format="2">
  <advance width="493.4"/>
  <unicode hex="0980"/>
  <anchor x="266.23333333333335" y="570.0" name="top"/>
  <outline>
    <contour>
      <point x="403.5" y="0.0" type="curve" smooth="yes"/>
      <point x="443.6666666666667" y="0.0"/>
      <point x="463.3" y="26.366666666666667"/>
      <point x="463.3" y="62.36666666666667" type="curve" smooth="yes"/>
      <point x="463.3" y="99.26666666666667"/>
      <point x="439.03333333333336" y="125.9"/>
      <point x="403.6" y="125.9" type="curve" smooth="yes"/>
      <point x="370.8" y="125.9"/>
      <point x="358.1666666666667" y="105.9"/>
      <point x="354.9" y="77.9" type="curve"/>
      <point x="379.6" y="77.9" type="line"/>
      <point x="379.6" y="482.2" type="line" smooth="yes"/>
      <point x="379.6" y="556.8333333333334"/>
      <point x="336.8" y="622.0"/>
      <point x="246.5" y="622.0" type="curve" smooth="yes"/>
      <point x="138.23333333333335" y="622.0"/>
      <point x="56.2" y="537.0"/>
      <point x="56.2" y="426.26666666666665" type="curve" smooth="yes"/>
      <point x="56.2" y="309.6333333333333"/>
      <point x="135.66666666666666" y="251.83333333333334"/>
      <point x="204.36666666666667" y="251.83333333333334" type="curve" smooth="yes"/>
      <point x="260.1333333333333" y="251.83333333333334"/>
      <point x="288.4" y="283.1"/>
      <point x="288.4" y="330.0" type="curve" smooth="yes"/>
      <point x="288.4" y="380.8"/>
      <point x="258.23333333333335" y="405.8"/>
      <point x="217.73333333333335" y="405.8" type="curve" smooth="yes"/>
      <point x="180.3" y="405.8"/>
      <point x="152.23333333333335" y="380.1666666666667"/>
      <point x="152.23333333333335" y="337.6333333333333" type="curve" smooth="yes"/>
      <point x="152.23333333333335" y="326.6333333333333"/>
      <point x="154.6" y="311.6333333333333"/>
      <point x="158.23333333333335" y="304.3666666666667" type="curve"/>
      <point x="198.1" y="324.6333333333333" type="line"/>
      <point x="188.83333333333334" y="320.6333333333333"/>
      <point x="179.56666666666666" y="319.6333333333333"/>
      <point x="170.3" y="319.6333333333333" type="curve" smooth="yes"/>
      <point x="137.96666666666667" y="319.6333333333333"/>
      <point x="117.8" y="353.9"/>
      <point x="117.8" y="404.06666666666666" type="curve" smooth="yes"/>
      <point x="117.8" y="489.76666666666665"/>
      <point x="208.96666666666667" y="559.7333333333333"/>
      <point x="269.93333333333334" y="559.7333333333333" type="curve" smooth="yes"/>
      <point x="310.8" y="559.7333333333333"/>
      <point x="326.7" y="537.6333333333333"/>
      <point x="326.7" y="495.46666666666664" type="curve" smooth="yes"/>
      <point x="326.7" y="100.16666666666667" type="line" smooth="yes"/>
      <point x="326.7" y="41.266666666666666"/>
      <point x="356.6" y="0.0"/>
    </contour>
  </outline>
</glyph>
<glyph name="anusvara-beng" format="2">
  <advance width="345.03333333333336"/>
  <unicode hex="0982"/>
  <anchor x="-184.1" y="0.0" name="vedic"/>
  <outline>
    <contour>
      <point x="166.56666666666666" y="365.0" type="curve" smooth="yes"/>
      <point x="237.96666666666667" y="365.0"/>
      <point x="289.2" y="419.3666666666667"/>
      <point x="289.2" y="497.0" type="curve" smooth="yes"/>
      <point x="289.2" y="567.0"/>
      <point x="246.33333333333334" y="623.0"/>
      <point x="174.83333333333334" y="623.0" type="curve" smooth="yes"/>
      <point x="104.8" y="623.0"/>
      <point x="54.56666666666666" y="568.0"/>
      <point x="54.56666666666666" y="492.0" type="curve" smooth="yes"/>
      <point x="54.56666666666666" y="422.9"/>
      <point x="96.26666666666667" y="365.0"/>
    </contour>
    <contour>
      <point x="143.16666666666666" y="414.0" type="curve" smooth="yes"/>
      <point x="123.63333333333334" y="414.0"/>
      <point x="106.83333333333333" y="430.0"/>
      <point x="106.83333333333333" y="455.3" type="curve" smooth="yes"/>
      <point x="106.83333333333333" y="510.6333333333333"/>
      <point x="154.4" y="569.0"/>
      <point x="204.33333333333334" y="569.0" type="curve" smooth="yes"/>
      <point x="226.4" y="569.0"/>
      <point x="238.56666666666666" y="550.6333333333333"/>
      <point x="238.56666666666666" y="531.0" type="curve" smooth="yes"/>
      <point x="238.56666666666666" y="480.3666666666667"/>
      <point x="190.73333333333335" y="414.0"/>
    </contour>
    <contour>
      <point x="298.3333333333333" y="-38.0" type="curve"/>
      <point x="326.06666666666666" y="-23.0" type="line"/>
      <point x="275.4666666666667" y="100.3"/>
      <point x="197.53333333333333" y="238.9"/>
      <point x="110.06666666666666" y="318.9" type="curve"/>
      <point x="52.666666666666664" y="233.0" type="line"/>
      <point x="142.03333333333333" y="169.0"/>
      <point x="211.5" y="101.73333333333333"/>
    </contour>
  </outline>
</glyph>
<glyph name="visarga-beng" format="2">
  <advance width="343.76666666666665"/>
  <unicode hex="0983"/>
  <anchor x="-184.1" y="0.0" name="vedic"/>
  <outline>
    <contour>
      <point x="166.56666666666666" y="365.0" type="curve" smooth="yes"/>
      <point x="237.96666666666667" y="365.0"/>
      <point x="289.2" y="419.3666666666667"/>
      <point x="289.2" y="497.0" type="curve" smooth="yes"/>
      <point x="289.2" y="567.0"/>
      <point x="246.33333333333334" y="623.0"/>
      <point x="174.83333333333334" y="623.0" type="curve" smooth="yes"/>
      <point x="104.8" y="623.0"/>
      <point x="54.56666666666666" y="568.0"/>
      <point x="54.56666666666666" y="492.0" type="curve" smooth="yes"/>
      <point x="54.56666666666666" y="422.9"/>
      <point x="96.26666666666667" y="365.0"/>
    </contour>
    <contour>
      <point x="143.16666666666666" y="414.0" type="curve" smooth="yes"/>
      <point x="123.63333333333334" y="414.0"/>
      <point x="106.83333333333333" y="430.0"/>
      <point x="106.83333333333333" y="455.3" type="curve" smooth="yes"/>
      <point x="106.83333333333333" y="510.6333333333333"/>
      <point x="154.4" y="569.0"/>
      <point x="204.33333333333334" y="569.0" type="curve" smooth="yes"/>
      <point x="226.4" y="569.0"/>
      <point x="238.56666666666666" y="550.6333333333333"/>
      <point x="238.56666666666666" y="531.0" type="curve" smooth="yes"/>
      <point x="238.56666666666666" y="480.3666666666667"/>
      <point x="190.73333333333335" y="414.0"/>
    </contour>
    <contour>
      <point x="166.56666666666666" y="9.633333333333333" type="curve" smooth="yes"/>
      <point x="237.96666666666667" y="9.633333333333333"/>
      <point x="289.2" y="64.0"/>
      <point x="289.2" y="141.0" type="curve" smooth="yes"/>
      <point x="289.2" y="211.63333333333333"/>
      <point x="246.33333333333334" y="267.0"/>
      <point x="174.83333333333334" y="267.0" type="curve" smooth="yes"/>
      <point x="104.8" y="267.0"/>
      <point x="54.56666666666666" y="212.63333333333333"/>
      <point x="54.56666666666666" y="136.0" type="curve" smooth="yes"/>
      <point x="54.56666666666666" y="67.53333333333333"/>
      <point x="96.26666666666667" y="9.633333333333333"/>
    </contour>
    <contour>
      <point x="143.16666666666666" y="58.0" type="curve" smooth="yes"/>
      <point x="123.63333333333334" y="58.0"/>
      <point x="106.83333333333333" y="74.0"/>
      <point x="106.83333333333333" y="99.3" type="curve" smooth="yes"/>
      <point x="106.83333333333333" y="155.26666666666668"/>
      <point x="154.4" y="213.0"/>
      <point x="204.33333333333334" y="213.0" type="curve" smooth="yes"/>
      <point x="226.4" y="213.0"/>
      <point x="238.56666666666666" y="194.63333333333333"/>
      <point x="238.56666666666666" y="175.63333333333333" type="curve" smooth="yes"/>
      <point x="238.56666666666666" y="125.0"/>
      <point x="190.73333333333335" y="58.0"/>
    </contour>
  </outline>
</glyph>
<glyph name="a-beng" format="2">
  <advance width="690.1666666666666"/>
  <unicode hex="0985"/>
  <anchor x="615.6666666666666" y="0.0" name="bottom"/>
  <anchor x="615.6666666666666" y="70.0" name="bottom.rakaar"/>
  <anchor x="615.6666666666666" y="12.0" name="bottom.rvocalic"/>
  <anchor x="597.8666666666667" y="6.0" name="bottom.virama"/>
  <anchor x="615.6666666666666" y="570.0" name="top"/>
  <anchor x="615.6666666666666" y="570.0" name="topright"/>
  <anchor x="344.9" y="0.0" name="vedic"/>
  <outline>
    <contour>
      <point x="609.5666666666667" y="-13.0" type="line"/>
      <point x="614.9333333333334" y="-12.0" type="line"/>
      <point x="614.9333333333334" y="570.0" type="line"/>
      <point x="717.7" y="570.0" type="line"/>
      <point x="685.9" y="622.0" type="line"/>
      <point x="-27.533333333333335" y="622.0" type="line"/>
      <point x="3.2666666666666666" y="570.0" type="line"/>
      <point x="562.0333333333333" y="570.0" type="line"/>
      <point x="562.0333333333333" y="73.56666666666666" type="line"/>
      <point x="571.2333333333333" y="82.23333333333333" type="line"/>
      <point x="537.3" y="162.03333333333333"/>
      <point x="491.6" y="212.16666666666666"/>
      <point x="439.53333333333336" y="248.36666666666667" type="curve"/>
      <point x="417.06666666666666" y="187.83333333333334" type="line"/>
      <point x="478.4" y="151.1"/>
      <point x="527.6333333333333" y="97.9"/>
      <point x="566.2333333333333" y="21.433333333333334" type="curve"/>
    </contour>
    <contour>
      <point x="301.26666666666665" y="94.83333333333333" type="curve" smooth="yes"/>
      <point x="425.23333333333335" y="94.83333333333333"/>
      <point x="475.3333333333333" y="194.36666666666667"/>
      <point x="475.3333333333333" y="303.0" type="curve" smooth="yes"/>
      <point x="475.3333333333333" y="412.46666666666664"/>
      <point x="412.2" y="510.0"/>
      <point x="293.2" y="510.0" type="curve" smooth="yes"/>
      <point x="226.96666666666667" y="510.0"/>
      <point x="176.63333333333333" y="475.6333333333333"/>
      <point x="176.63333333333333" y="407.0" type="curve" smooth="yes"/>
      <point x="176.63333333333333" y="347.0"/>
      <point x="216.96666666666667" y="312.0"/>
      <point x="267.4" y="312.0" type="curve" smooth="yes"/>
      <point x="321.8333333333333" y="312.0"/>
      <point x="351.1666666666667" y="355.3666666666667"/>
      <point x="351.1666666666667" y="413.0" type="curve" smooth="yes"/>
      <point x="351.1666666666667" y="482.0"/>
      <point x="313.53333333333336" y="544.0"/>
      <point x="278.4666666666667" y="577.0" type="curve"/>
      <point x="172.03333333333333" y="575.0" type="line"/>
      <point x="264.1" y="544.0"/>
      <point x="293.4666666666667" y="496.0"/>
      <point x="303.0" y="415.0" type="curve"/>
      <point x="320.06666666666666" y="424.0"/>
      <point x="330.43333333333334" y="427.0"/>
      <point x="347.3333333333333" y="427.0" type="curve" smooth="yes"/>
      <point x="382.03333333333336" y="427.0"/>
      <point x="421.73333333333335" y="393.8333333333333"/>
      <point x="424.9" y="315.0" type="curve" smooth="yes"/>
      <point x="428.06666666666666" y="231.0"/>
      <point x="377.93333333333334" y="186.83333333333334"/>
      <point x="295.93333333333334" y="186.83333333333334" type="curve" smooth="yes"/>
      <point x="188.33333333333334" y="186.83333333333334"/>
      <point x="109.66666666666667" y="264.46666666666664"/>
      <point x="54.6" y="494.93333333333334" type="curve"/>
      <point x="14.066666666666666" y="483.76666666666665" type="line"/>
      <point x="77.63333333333334" y="186.03333333333333"/>
      <point x="181.36666666666667" y="94.83333333333333"/>
    </contour>
  </outline>
</glyph>
<glyph name="i-beng" format="2">
  <advance width="426.03333333333336"/>
  <unicode hex="0987"/>
  <anchor x="243.36666666666667" y="89.63333333333334" name="bottom"/>
  <anchor x="351.6333333333333" y="-59.733333333333334" name="bottom.rakaar"/>
  <anchor x="296.1666666666667" y="90.0" name="bottom.rvocalic"/>
  <anchor x="225.66666666666666" y="90.0" name="bottom.virama"/>
  <anchor x="253.83333333333334" y="617.0" name="top"/>
  <anchor x="199.53333333333333" y="622.3666666666667" name="topright"/>
  <anchor x="212.83333333333334" y="0.0" name="vedic"/>
  <outline>
    <contour>
      <point x="318.3666666666667" y="612.0" type="curve"/>
      <point x="360.26666666666665" y="612.0" type="line"/>
      <point x="355.3666666666667" y="738.6333333333333"/>
      <point x="314.3" y="802.8"/>
      <point x="228.63333333333333" y="802.8" type="curve" smooth="yes"/>
      <point x="191.63333333333333" y="802.8"/>
      <point x="159.13333333333333" y="792.5333333333333"/>
      <point x="110.46666666666667" y="792.5333333333333" type="curve" smooth="yes"/>
      <point x="52.8" y="792.5333333333333"/>
      <point x="19.566666666666666" y="806.6333333333333"/>
      <point x="19.566666666666666" y="879.8666666666667" type="curve" smooth="yes"/>
      <point x="19.566666666666666" y="891.3333333333334"/>
      <point x="20.566666666666666" y="904.8"/>
      <point x="21.933333333333334" y="912.6333333333333" type="curve"/>
      <point x="-17.866666666666667" y="916.6333333333333" type="line"/>
      <point x="-20.233333333333334" y="897.9"/>
      <point x="-21.233333333333334" y="877.8"/>
      <point x="-21.233333333333334" y="860.9" type="curve" smooth="yes"/>
      <point x="-21.233333333333334" y="765.0666666666667"/>
      <point x="18.566666666666666" y="709.4666666666667"/>
      <point x="107.13333333333334" y="709.4666666666667" type="curve" smooth="yes"/>
      <point x="166.16666666666666" y="709.4666666666667"/>
      <point x="204.8" y="720.7333333333333"/>
      <point x="241.43333333333334" y="720.7333333333333" type="curve" smooth="yes"/>
      <point x="288.03333333333336" y="720.7333333333333"/>
      <point x="316.1" y="687.3666666666667"/>
    </contour>
    <component base="ha-beng"/>
  </outline>
</glyph>
<glyph name="ii-beng" format="2">
  <advance width="566.8333333333334"/>
  <unicode hex="0988"/>
  <anchor x="495.93333333333334" y="-12.0" name="bottom"/>
  <anchor x="496.93333333333334" y="70.0" name="bottom.rakaar"/>
  <anchor x="475.3333333333333" y="17.0" name="bottom.rvocalic"/>
  <anchor x="478.23333333333335" y="0.0" name="bottom.virama"/>
  <anchor x="340.9666666666667" y="617.0" name="top"/>
  <anchor x="296.1" y="622.0" name="topright"/>
  <anchor x="283.1" y="0.0" name="vedic"/>
  <outline>
    <contour>
      <point x="458.9666666666667" y="-11.8" type="curve"/>
      <point x="497.6" y="4.0" type="line"/>
      <point x="476.1666666666667" y="64.0"/>
      <point x="465.9" y="122.1"/>
      <point x="465.9" y="182.1" type="curve" smooth="yes"/>
      <point x="465.9" y="263.73333333333335"/>
      <point x="486.3333333333333" y="344.0"/>
      <point x="528.6666666666666" y="418.0" type="curve"/>
      <point x="444.1333333333333" y="490.8666666666667" type="line"/>
      <point x="354.76666666666665" y="416.23333333333335"/>
      <point x="317.1666666666667" y="349.8333333333333"/>
      <point x="273.7" y="273.6" type="curve"/>
      <point x="318.43333333333334" y="301.03333333333336" type="line"/>
      <point x="320.8" y="312.76666666666665"/>
      <point x="321.8" y="331.4"/>
      <point x="321.8" y="342.03333333333336" type="curve" smooth="yes"/>
      <point x="321.8" y="428.6666666666667"/>
      <point x="275.6666666666667" y="508.0"/>
      <point x="158.46666666666667" y="508.0" type="curve" smooth="yes"/>
      <point x="84.33333333333333" y="508.0"/>
      <point x="46.266666666666666" y="475.0"/>
      <point x="46.266666666666666" y="421.0" type="curve" smooth="yes"/>
      <point x="46.266666666666666" y="374.0"/>
      <point x="74.8" y="342.0"/>
      <point x="122.13333333333334" y="342.0" type="curve" smooth="yes"/>
      <point x="170.56666666666666" y="342.0"/>
      <point x="197.83333333333334" y="377.26666666666665"/>
      <point x="197.83333333333334" y="434.26666666666665" type="curve" smooth="yes"/>
      <point x="197.83333333333334" y="477.26666666666665"/>
      <point x="169.46666666666667" y="544.0"/>
      <point x="136.23333333333332" y="577.0" type="curve"/>
      <point x="42.43333333333334" y="577.0" type="line"/>
      <point x="87.03333333333333" y="559.0"/>
      <point x="130.2" y="521.0"/>
      <point x="145.03333333333333" y="468.0" type="curve"/>
      <point x="101.2" y="409.0" type="line"/>
      <point x="133.6" y="428.0"/>
      <point x="156.86666666666667" y="438.0"/>
      <point x="191.63333333333333" y="438.0" type="curve" smooth="yes"/>
      <point x="253.46666666666667" y="438.0"/>
      <point x="273.2" y="396.46666666666664"/>
      <point x="273.2" y="345.9" type="curve" smooth="yes"/>
      <point x="273.2" y="312.9"/>
      <point x="262.76666666666665" y="273.3333333333333"/>
      <point x="244.33333333333334" y="242.7" type="curve" smooth="yes"/>
      <point x="220.1" y="203.26666666666668"/>
      <point x="194.93333333333334" y="189.8"/>
      <point x="164.13333333333333" y="189.8" type="curve" smooth="yes"/>
      <point x="136.13333333333333" y="189.8"/>
      <point x="108.23333333333333" y="208.73333333333332"/>
      <point x="83.8" y="260.6333333333333" type="curve"/>
      <point x="49.266666666666666" y="245.0" type="line"/>
      <point x="89.6" y="141.0"/>
      <point x="135.13333333333333" y="107.0"/>
      <point x="185.2" y="107.0" type="curve" smooth="yes"/>
      <point x="239.73333333333335" y="107.0"/>
      <point x="274.9" y="144.26666666666668"/>
      <point x="314.26666666666665" y="207.6" type="curve" smooth="yes"/>
      <point x="361.8333333333333" y="281.3666666666667"/>
      <point x="394.6666666666667" y="335.03333333333336"/>
      <point x="469.0" y="412.56666666666666" type="curve"/>
      <point x="449.06666666666666" y="417.0" type="line"/>
      <point x="422.6333333333333" y="355.0"/>
      <point x="409.73333333333335" y="287.1"/>
      <point x="409.73333333333335" y="222.16666666666666" type="curve" smooth="yes"/>
      <point x="409.73333333333335" y="141.0"/>
      <point x="427.6333333333333" y="63.733333333333334"/>
    </contour>
    <contour>
      <point x="3.2666666666666666" y="570.0" type="line"/>
      <point x="594.3666666666667" y="570.0" type="line"/>
      <point x="562.9333333333334" y="622.0" type="line"/>
      <point x="-27.533333333333335" y="622.0" type="line"/>
    </contour>
    <contour>
      <point x="445.03333333333336" y="612.0" type="curve"/>
      <point x="487.2" y="612.0" type="line"/>
      <point x="475.03333333333336" y="739.0"/>
      <point x="436.8666666666667" y="805.0"/>
      <point x="334.4" y="805.0" type="curve" smooth="yes"/>
      <point x="288.6" y="805.0"/>
      <point x="250.26666666666668" y="796.0"/>
      <point x="195.66666666666666" y="796.0" type="curve" smooth="yes"/>
      <point x="117.93333333333334" y="796.0"/>
      <point x="82.7" y="809.0"/>
      <point x="82.7" y="888.0" type="curve" smooth="yes"/>
      <point x="82.7" y="894.2666666666667"/>
      <point x="82.7" y="903.2666666666667"/>
      <point x="84.06666666666666" y="913.0" type="curve"/>
      <point x="45.63333333333333" y="917.0" type="line"/>
      <point x="42.63333333333333" y="899.0"/>
      <point x="41.266666666666666" y="883.3666666666667"/>
      <point x="41.266666666666666" y="867.0" type="curve" smooth="yes"/>
      <point x="41.266666666666666" y="765.3666666666667"/>
      <point x="94.4" y="710.0"/>
      <point x="197.5" y="710.0" type="curve" smooth="yes"/>
      <point x="261.9" y="710.0"/>
      <point x="317.03333333333336" y="720.0"/>
      <point x="358.4666666666667" y="720.0" type="curve" smooth="yes"/>
      <point x="414.6" y="720.0"/>
      <point x="435.8666666666667" y="687.0"/>
    </contour>
  </outline>
</glyph>
<glyph name="u-beng" format="2">
  <advance width="552.3666666666667"/>
  <unicode hex="0989"/>
  <anchor x="418.06666666666666" y="34.0" name="bottom"/>
  <anchor x="462.76666666666665" y="-6.366666666666666" name="bottom.rakaar"/>
  <anchor x="397.73333333333335" y="58.36666666666667" name="bottom.rvocalic"/>
  <anchor x="344.3333333333333" y="14.366666666666667" name="bottom.virama"/>
  <anchor x="322.3666666666667" y="617.0" name="top"/>
  <anchor x="269.5" y="622.3666666666667" name="topright"/>
  <anchor x="276.0" y="0.0" name="vedic"/>
  <anchor x="297.3333333333333" y="-62.0" name="nukta"/>
  <outline>
    <contour>
      <point x="435.1333333333333" y="612.0" type="curve"/>
      <point x="477.3" y="612.0" type="line"/>
      <point x="466.23333333333335" y="738.2666666666667"/>
      <point x="425.8666666666667" y="803.5333333333333"/>
      <point x="325.9666666666667" y="803.5333333333333" type="curve" smooth="yes"/>
      <point x="280.9" y="803.5333333333333"/>
      <point x="243.66666666666666" y="794.5333333333333"/>
      <point x="190.9" y="794.5333333333333" type="curve" smooth="yes"/>
      <point x="114.26666666666667" y="794.5333333333333"/>
      <point x="80.13333333333334" y="810.8333333333334"/>
      <point x="80.13333333333334" y="881.4" type="curve" smooth="yes"/>
      <point x="80.13333333333334" y="889.5"/>
      <point x="80.5" y="901.0666666666667"/>
      <point x="81.86666666666667" y="912.6333333333333" type="curve"/>
      <point x="41.96666666666667" y="916.6333333333333" type="line"/>
      <point x="38.96666666666667" y="897.5333333333333"/>
      <point x="37.96666666666667" y="881.9"/>
      <point x="37.96666666666667" y="863.3333333333334" type="curve" smooth="yes"/>
      <point x="37.96666666666667" y="765.0"/>
      <point x="90.73333333333333" y="710.7333333333333"/>
      <point x="193.46666666666667" y="710.7333333333333" type="curve" smooth="yes"/>
      <point x="256.4" y="710.7333333333333"/>
      <point x="306.76666666666665" y="720.7333333333333"/>
      <point x="347.4666666666667" y="720.7333333333333" type="curve" smooth="yes"/>
      <point x="403.6" y="720.7333333333333"/>
      <point x="425.6" y="687.0"/>
    </contour>
    <component base="dda-beng"/>
  </outline>
</glyph>
<glyph name="uu-beng" format="2">
  <advance width="612.7333333333333"/>
  <unicode hex="098A"/>
  <anchor x="476.6" y="34.0" name="bottom"/>
  <anchor x="521.3" y="-6.0" name="bottom.rakaar"/>
  <anchor x="456.26666666666665" y="58.0" name="bottom.rvocalic"/>
  <anchor x="402.1333333333333" y="14.0" name="bottom.virama"/>
  <anchor x="362.0" y="617.0" name="top"/>
  <anchor x="337.3" y="622.0" name="topright"/>
  <anchor x="306.3666666666667" y="0.0" name="vedic"/>
  <outline>
    <contour>
      <point x="385.56666666666666" y="50.0" type="curve" smooth="yes"/>
      <point x="511.8666666666667" y="50.0"/>
      <point x="577.5333333333333" y="141.36666666666667"/>
      <point x="577.5333333333333" y="262.0" type="curve" smooth="yes"/>
      <point x="577.5333333333333" y="358.6333333333333"/>
      <point x="543.5333333333333" y="425.26666666666665"/>
      <point x="490.3" y="474.06666666666666" type="curve"/>
      <point x="456.8" y="410.6"/>
      <point x="404.2" y="353.6333333333333"/>
      <point x="354.3666666666667" y="353.6333333333333" type="curve" smooth="yes"/>
      <point x="336.3" y="353.6333333333333"/>
      <point x="326.03333333333336" y="363.6333333333333"/>
      <point x="326.03333333333336" y="381.6333333333333" type="curve" smooth="yes"/>
      <point x="326.03333333333336" y="570.0" type="line"/>
      <point x="640.2666666666667" y="570.0" type="line"/>
      <point x="608.1" y="622.0" type="line"/>
      <point x="-27.533333333333335" y="622.0" type="line"/>
      <point x="4.266666666666667" y="570.0" type="line"/>
      <point x="273.1333333333333" y="570.0" type="line"/>
      <point x="273.1333333333333" y="382.8" type="line" smooth="yes"/>
      <point x="273.1333333333333" y="349.9"/>
      <point x="282.03333333333336" y="324.6333333333333"/>
      <point x="302.93333333333334" y="305.0" type="curve" smooth="yes"/>
      <point x="320.56666666666666" y="288.0"/>
      <point x="345.0" y="276.8333333333333"/>
      <point x="373.06666666666666" y="276.8333333333333" type="curve" smooth="yes"/>
      <point x="429.03333333333336" y="276.8333333333333"/>
      <point x="490.1666666666667" y="323.46666666666664"/>
      <point x="529.7666666666667" y="390.46666666666664" type="curve"/>
      <point x="491.6666666666667" y="377.5" type="line"/>
      <point x="515.3666666666667" y="359.5"/>
      <point x="528.3666666666667" y="333.1333333333333"/>
      <point x="528.3666666666667" y="282.53333333333336" type="curve" smooth="yes"/>
      <point x="528.3666666666667" y="197.8"/>
      <point x="479.3" y="140.06666666666666"/>
      <point x="394.6333333333333" y="138.16666666666666" type="curve" smooth="yes"/>
      <point x="257.6666666666667" y="135.0"/>
      <point x="211.53333333333333" y="292.0"/>
      <point x="158.13333333333333" y="502.0" type="curve"/>
      <point x="118.33333333333333" y="490.0" type="line"/>
      <point x="157.73333333333335" y="307.0"/>
      <point x="192.7" y="194.36666666666667"/>
      <point x="264.3333333333333" y="129.0" type="curve"/>
      <point x="291.8666666666667" y="127.0" type="line"/>
      <point x="194.6" y="158.0"/>
      <point x="122.86666666666667" y="279.0"/>
      <point x="62.833333333333336" y="502.0" type="curve"/>
      <point x="23.033333333333335" y="490.0" type="line"/>
      <point x="89.86666666666667" y="187.0"/>
      <point x="210.4" y="50.0"/>
    </contour>
    <contour>
      <point x="496.6666666666667" y="612.0" type="curve"/>
      <point x="538.4666666666667" y="612.0" type="line"/>
      <point x="526.3" y="739.0"/>
      <point x="480.5" y="809.0"/>
      <point x="377.93333333333334" y="809.0" type="curve" smooth="yes"/>
      <point x="316.9666666666667" y="809.0"/>
      <point x="271.56666666666666" y="790.7333333333333"/>
      <point x="193.16666666666666" y="790.7333333333333" type="curve" smooth="yes"/>
      <point x="117.16666666666667" y="790.7333333333333"/>
      <point x="87.46666666666667" y="810.8333333333334"/>
      <point x="87.46666666666667" y="881.4" type="curve" smooth="yes"/>
      <point x="87.46666666666667" y="889.5"/>
      <point x="87.83333333333333" y="901.0666666666667"/>
      <point x="89.2" y="912.6333333333333" type="curve"/>
      <point x="48.666666666666664" y="916.6333333333333" type="line"/>
      <point x="46.3" y="897.5333333333333"/>
      <point x="45.3" y="881.9"/>
      <point x="45.3" y="863.3333333333334" type="curve" smooth="yes"/>
      <point x="45.3" y="761.2"/>
      <point x="93.63333333333334" y="706.9333333333333"/>
      <point x="195.73333333333335" y="706.9333333333333" type="curve" smooth="yes"/>
      <point x="284.73333333333335" y="706.9333333333333"/>
      <point x="326.53333333333336" y="726.2"/>
      <point x="394.4666666666667" y="726.2" type="curve" smooth="yes"/>
      <point x="459.8666666666667" y="726.2"/>
      <point x="486.76666666666665" y="687.0"/>
    </contour>
  </outline>
</glyph>
<glyph name="rVocalic-beng" format="2">
  <advance width="672.3333333333334"/>
  <unicode hex="098B"/>
  <anchor x="455.8666666666667" y="0.0" name="bottom"/>
  <anchor x="455.8666666666667" y="70.0" name="bottom.rakaar"/>
  <anchor x="384.26666666666665" y="133.36666666666667" name="bottom.rvocalic"/>
  <anchor x="437.7" y="6.0" name="bottom.virama"/>
  <anchor x="455.8666666666667" y="570.0" name="top"/>
  <anchor x="458.5" y="570.0" name="topright"/>
  <anchor x="336.1666666666667" y="0.0" name="vedic"/>
  <outline>
    <contour>
      <point x="450.5" y="-13.0" type="line"/>
      <point x="455.8666666666667" y="-12.0" type="line"/>
      <point x="455.8666666666667" y="644.0" type="line"/>
      <point x="406.9666666666667" y="678.0" type="line"/>
      <point x="402.9666666666667" y="677.0" type="line"/>
      <point x="402.9666666666667" y="468.4" type="line"/>
      <point x="408.9666666666667" y="490.23333333333335" type="line"/>
      <point x="288.9" y="447.03333333333336"/>
      <point x="190.66666666666666" y="397.73333333333335"/>
      <point x="83.6" y="326.8" type="curve"/>
      <point x="129.36666666666667" y="216.0" type="line"/>
      <point x="253.53333333333333" y="199.2"/>
      <point x="344.7" y="140.33333333333334"/>
      <point x="407.1666666666667" y="21.433333333333334" type="curve"/>
    </contour>
    <contour>
      <point x="402.9666666666667" y="73.56666666666666" type="line"/>
      <point x="412.1666666666667" y="82.23333333333333" type="line"/>
      <point x="350.6666666666667" y="220.0"/>
      <point x="243.93333333333334" y="266.6"/>
      <point x="151.96666666666667" y="292.8" type="curve"/>
      <point x="161.76666666666668" y="271.46666666666664" type="line"/>
      <point x="234.4" y="328.6666666666667"/>
      <point x="329.06666666666666" y="370.6"/>
      <point x="413.5" y="399.6" type="curve"/>
      <point x="402.9666666666667" y="416.8" type="line"/>
    </contour>
    <contour>
      <point x="131.7" y="434.06666666666666" type="curve" smooth="yes"/>
      <point x="203.63333333333333" y="434.06666666666666"/>
      <point x="279.3333333333333" y="469.1666666666667"/>
      <point x="328.26666666666665" y="549.1666666666666" type="curve"/>
      <point x="293.5" y="546.0" type="line"/>
      <point x="322.73333333333335" y="520.0"/>
      <point x="334.76666666666665" y="496.3333333333333"/>
      <point x="367.23333333333335" y="444.0" type="curve"/>
      <point x="401.1333333333333" y="453.0" type="line"/>
      <point x="366.3666666666667" y="535.6333333333333"/>
      <point x="332.3" y="586.2666666666667"/>
      <point x="290.56666666666666" y="624.2666666666667" type="curve"/>
      <point x="238.2" y="537.1"/>
      <point x="172.06666666666666" y="510.6666666666667"/>
      <point x="137.96666666666667" y="510.6666666666667" type="curve" smooth="yes"/>
      <point x="127.06666666666666" y="510.6666666666667"/>
      <point x="113.7" y="513.6666666666666"/>
      <point x="107.43333333333334" y="516.4" type="curve"/>
      <point x="133.73333333333335" y="482.3333333333333" type="line"/>
      <point x="150.26666666666668" y="498.3333333333333"/>
      <point x="155.9" y="512.7"/>
      <point x="155.9" y="538.3333333333334" type="curve" smooth="yes"/>
      <point x="155.9" y="573.3333333333334"/>
      <point x="133.36666666666667" y="598.3333333333334"/>
      <point x="94.46666666666667" y="598.3333333333334" type="curve" smooth="yes"/>
      <point x="52.4" y="598.3333333333334"/>
      <point x="28.4" y="571.7"/>
      <point x="28.4" y="526.0666666666667" type="curve" smooth="yes"/>
      <point x="28.4" y="462.53333333333336"/>
      <point x="82.0" y="434.06666666666666"/>
    </contour>
    <contour>
      <point x="593.0" y="85.1" type="line"/>
      <point x="597.1" y="86.1" type="line"/>
      <point x="597.1" y="570.0" type="line"/>
      <point x="699.8666666666667" y="570.0" type="line"/>
      <point x="667.4333333333334" y="622.0" type="line"/>
      <point x="596.0" y="622.0" type="line"/>
      <point x="591.6333333333333" y="665.0" type="line"/>
      <point x="548.2" y="698.0" type="line"/>
      <point x="544.2" y="697.0" type="line"/>
      <point x="544.2" y="171.66666666666666" type="line"/>
      <point x="553.4" y="180.33333333333334" type="line"/>
      <point x="522.3666666666667" y="251.16666666666666"/>
      <point x="479.3" y="303.1"/>
      <point x="431.76666666666665" y="340.56666666666666" type="curve"/>
      <point x="426.23333333333335" y="265.2" type="line"/>
      <point x="476.4666666666667" y="233.26666666666668"/>
      <point x="515.4333333333334" y="182.0"/>
      <point x="548.4" y="119.53333333333333" type="curve"/>
    </contour>
  </outline>
</glyph>
<glyph name="lVocalic-beng" format="2">
  <advance width="473.03333333333336"/>
  <unicode hex="098C"/>
  <anchor x="339.2" y="570.0" name="top"/>
  <anchor x="236.33333333333334" y="0.0" name="vedic"/>
  <outline>
    <contour>
      <point x="273.8333333333333" y="18.0" type="line"/>
      <point x="363.56666666666666" y="40.0"/>
      <point x="449.43333333333334" y="147.26666666666668"/>
      <point x="449.43333333333334" y="284.0" type="curve" smooth="yes"/>
      <point x="449.43333333333334" y="426.3333333333333"/>
      <point x="385.93333333333334" y="472.0"/>
      <point x="250.6" y="507.0" type="curve" smooth="yes"/>
      <point x="171.4" y="527.6333333333333"/>
      <point x="115.0" y="544.9"/>
      <point x="115.0" y="618.5333333333333" type="curve" smooth="yes"/>
      <point x="115.0" y="645.6333333333333"/>
      <point x="122.1" y="672.0"/>
      <point x="132.1" y="698.0" type="curve"/>
      <point x="93.46666666666667" y="712.0" type="line"/>
      <point x="76.2" y="674.3666666666667"/>
      <point x="66.73333333333333" y="631.7333333333333"/>
      <point x="66.73333333333333" y="594.9666666666667" type="curve" smooth="yes"/>
      <point x="66.73333333333333" y="483.26666666666665"/>
      <point x="127.43333333333334" y="447.26666666666665"/>
      <point x="245.4" y="420.0" type="curve" smooth="yes"/>
      <point x="342.9666666666667" y="396.6333333333333"/>
      <point x="401.26666666666665" y="375.1666666666667"/>
      <point x="401.26666666666665" y="264.3666666666667" type="curve" smooth="yes"/>
      <point x="401.26666666666665" y="194.36666666666667"/>
      <point x="364.6666666666667" y="118.1"/>
      <point x="314.8" y="103.73333333333333" type="curve"/>
      <point x="340.9" y="86.0" type="line"/>
      <point x="341.9" y="199.0"/>
      <point x="300.26666666666665" y="315.0"/>
      <point x="186.36666666666667" y="315.0" type="curve" smooth="yes"/>
      <point x="98.8" y="315.0"/>
      <point x="50.833333333333336" y="251.0"/>
      <point x="50.833333333333336" y="172.0" type="curve" smooth="yes"/>
      <point x="50.833333333333336" y="82.73333333333333"/>
      <point x="96.16666666666667" y="36.0"/>
      <point x="153.03333333333333" y="36.0" type="curve" smooth="yes"/>
      <point x="198.1" y="36.0"/>
      <point x="218.63333333333333" y="70.0"/>
      <point x="218.63333333333333" y="105.0" type="curve" smooth="yes"/>
      <point x="218.63333333333333" y="143.0"/>
      <point x="191.83333333333334" y="168.0"/>
      <point x="157.93333333333334" y="168.0" type="curve" smooth="yes"/>
      <point x="127.5" y="168.0"/>
      <point x="100.33333333333333" y="145.0"/>
      <point x="99.7" y="117.0" type="curve"/>
      <point x="137.86666666666667" y="118.63333333333334" type="line"/>
      <point x="117.8" y="127.0"/>
      <point x="101.63333333333334" y="147.0"/>
      <point x="101.63333333333334" y="182.0" type="curve" smooth="yes"/>
      <point x="101.63333333333334" y="219.63333333333333"/>
      <point x="127.7" y="251.0"/>
      <point x="172.2" y="251.0" type="curve" smooth="yes"/>
      <point x="244.5" y="251.0"/>
      <point x="270.2" y="160.63333333333333"/>
      <point x="270.2" y="73.0" type="curve" smooth="yes"/>
      <point x="270.2" y="55.0"/>
      <point x="269.56666666666666" y="38.0"/>
      <point x="267.56666666666666" y="22.0" type="curve"/>
    </contour>
  </outline>
</glyph>
<glyph name="e-beng" format="2">
  <advance width="588.3666666666667"/>
  <unicode hex="098F"/>
  <anchor x="521.6666666666666" y="0.0" name="bottom"/>
  <anchor x="521.6666666666666" y="3.0" name="bottom.rvocalic"/>
  <anchor x="503.8666666666667" y="6.0" name="bottom.virama"/>
  <anchor x="434.9" y="570.0" name="top"/>
  <anchor x="437.9" y="570.0" name="topright"/>
  <anchor x="293.8666666666667" y="0.0" name="vedic"/>
  <outline>
    <contour>
      <point x="514.8333333333334" y="-13.0" type="line"/>
      <point x="520.2" y="-12.0" type="line"/>
      <point x="520.2" y="508.56666666666666" type="line" smooth="yes"/>
      <point x="520.2" y="584.2"/>
      <point x="484.56666666666666" y="632.0"/>
      <point x="413.4666666666667" y="632.0" type="curve" smooth="yes"/>
      <point x="296.2" y="632.0"/>
      <point x="195.9" y="497.0"/>
      <point x="195.9" y="388.0" type="curve" smooth="yes"/>
      <point x="195.9" y="312.0"/>
      <point x="238.43333333333334" y="272.0"/>
      <point x="294.56666666666666" y="270.0" type="curve" smooth="yes"/>
      <point x="354.6333333333333" y="268.0"/>
      <point x="383.3333333333333" y="304.1"/>
      <point x="383.3333333333333" y="351.0" type="curve" smooth="yes"/>
      <point x="383.3333333333333" y="391.0"/>
      <point x="360.43333333333334" y="428.0"/>
      <point x="312.8333333333333" y="428.0" type="curve" smooth="yes"/>
      <point x="295.3" y="428.0"/>
      <point x="272.23333333333335" y="420.0"/>
      <point x="261.3333333333333" y="398.0" type="curve"/>
      <point x="282.06666666666666" y="397.0" type="line"/>
      <point x="280.8" y="467.93333333333334"/>
      <point x="353.9" y="577.2666666666667"/>
      <point x="415.73333333333335" y="577.2666666666667" type="curve" smooth="yes"/>
      <point x="458.1333333333333" y="577.2666666666667"/>
      <point x="467.3" y="544.2666666666667"/>
      <point x="467.3" y="499.6666666666667" type="curve" smooth="yes"/>
      <point x="467.3" y="185.0" type="line" smooth="yes"/>
      <point x="467.3" y="152.2"/>
      <point x="468.6666666666667" y="117.46666666666667"/>
      <point x="472.03333333333336" y="82.46666666666667" type="curve"/>
      <point x="438.9" y="147.06666666666666"/>
      <point x="402.3333333333333" y="168.13333333333333"/>
      <point x="348.76666666666665" y="168.13333333333333" type="curve" smooth="yes"/>
      <point x="298.26666666666665" y="168.13333333333333"/>
      <point x="274.0" y="159.96666666666667"/>
      <point x="207.0" y="159.96666666666667" type="curve" smooth="yes"/>
      <point x="140.8" y="159.96666666666667"/>
      <point x="90.4" y="191.76666666666668"/>
      <point x="90.4" y="277.93333333333334" type="curve" smooth="yes"/>
      <point x="90.4" y="314.3333333333333"/>
      <point x="94.76666666666667" y="341.8"/>
      <point x="100.4" y="364.43333333333334" type="curve"/>
      <point x="57.5" y="372.96666666666664" type="line"/>
      <point x="50.5" y="342.23333333333335"/>
      <point x="44.5" y="303.4"/>
      <point x="44.5" y="263.03333333333336" type="curve" smooth="yes"/>
      <point x="44.5" y="116.76666666666667"/>
      <point x="124.2" y="71.9"/>
      <point x="210.4" y="71.9" type="curve" smooth="yes"/>
      <point x="275.3333333333333" y="71.9"/>
      <point x="309.8333333333333" y="84.06666666666666"/>
      <point x="371.56666666666666" y="84.06666666666666" type="curve" smooth="yes"/>
      <point x="418.8333333333333" y="84.06666666666666"/>
      <point x="443.0" y="70.33333333333333"/>
      <point x="472.9666666666667" y="20.333333333333332" type="curve"/>
    </contour>
  </outline>
</glyph>
<glyph name="ai-beng" format="2">
  <advance width="688.3333333333334"/>
  <unicode hex="0990"/>
  <anchor x="454.9" y="600.0" name="top"/>
  <anchor x="421.1" y="602.0" name="topright"/>
  <anchor x="344.1666666666667" y="0.0" name="vedic"/>
  <anchor x="521.6666666666666" y="0.0" name="bottom"/>
  <anchor x="521.6666666666666" y="3.0" name="bottom.rvocalic"/>
  <anchor x="503.8666666666667" y="6.0" name="bottom.virama"/>
  <outline>
    <contour>
      <point x="512.5666666666667" y="334.0" type="line"/>
      <point x="565.2666666666667" y="384.0"/>
      <point x="620.6666666666666" y="457.26666666666665"/>
      <point x="620.6666666666666" y="567.8333333333334" type="curve" smooth="yes"/>
      <point x="620.6666666666666" y="731.0666666666667"/>
      <point x="499.8" y="755.6333333333333"/>
      <point x="381.6" y="773.2666666666667" type="curve" smooth="yes"/>
      <point x="287.8333333333333" y="787.2666666666667"/>
      <point x="208.73333333333335" y="799.2666666666667"/>
      <point x="208.73333333333335" y="887.1666666666666" type="curve" smooth="yes"/>
      <point x="208.73333333333335" y="915.2666666666667"/>
      <point x="215.1" y="944.0"/>
      <point x="224.73333333333335" y="968.0" type="curve"/>
      <point x="186.83333333333334" y="982.0" type="line"/>
      <point x="170.3" y="945.4666666666667"/>
      <point x="161.2" y="903.2"/>
      <point x="161.2" y="867.5333333333333" type="curve" smooth="yes"/>
      <point x="161.2" y="735.3"/>
      <point x="265.9" y="714.7333333333333"/>
      <point x="375.56666666666666" y="699.7333333333333" type="curve" smooth="yes"/>
      <point x="480.6" y="685.7333333333333"/>
      <point x="578.4" y="672.7333333333333"/>
      <point x="578.4" y="557.0" type="curve" smooth="yes"/>
      <point x="578.4" y="484.53333333333336"/>
      <point x="542.5333333333333" y="436.26666666666665"/>
      <point x="491.76666666666665" y="394.0" type="curve"/>
    </contour>
    <component base="e-beng"/>
  </outline>
</glyph>
<glyph name="o-beng" format="2">
  <advance width="627.6333333333333"/>
  <unicode hex="0993"/>
  <anchor x="468.2" y="39.0" name="bottom"/>
  <anchor x="512.9" y="-1.0" name="bottom.rakaar"/>
  <anchor x="448.23333333333335" y="63.0" name="bottom.rvocalic"/>
  <anchor x="394.4666666666667" y="19.0" name="bottom.virama"/>
  <anchor x="400.53333333333336" y="570.0" name="top"/>
  <anchor x="403.1666666666667" y="570.0" name="topright"/>
  <anchor x="313.5" y="0.0" name="vedic"/>
  <outline>
    <contour>
      <point x="386.8" y="55.0" type="curve" smooth="yes"/>
      <point x="520.4" y="55.0"/>
      <point x="582.2666666666667" y="139.23333333333332"/>
      <point x="582.2666666666667" y="239.86666666666667" type="curve" smooth="yes"/>
      <point x="582.2666666666667" y="340.26666666666665"/>
      <point x="510.8" y="416.0"/>
      <point x="433.1" y="416.0" type="curve" smooth="yes"/>
      <point x="391.5" y="416.0"/>
      <point x="365.3333333333333" y="390.0"/>
      <point x="365.3333333333333" y="348.0" type="curve" smooth="yes"/>
      <point x="365.3333333333333" y="306.0"/>
      <point x="389.8666666666667" y="278.0"/>
      <point x="433.8333333333333" y="278.0" type="curve" smooth="yes"/>
      <point x="504.8666666666667" y="278.0"/>
      <point x="562.7333333333333" y="392.3666666666667"/>
      <point x="562.7333333333333" y="486.0" type="curve" smooth="yes"/>
      <point x="562.7333333333333" y="574.0"/>
      <point x="509.4" y="631.0"/>
      <point x="412.8333333333333" y="631.0" type="curve" smooth="yes"/>
      <point x="285.43333333333334" y="631.0"/>
      <point x="173.33333333333334" y="529.0"/>
      <point x="173.33333333333334" y="420.0" type="curve" smooth="yes"/>
      <point x="173.33333333333334" y="354.3666666666667"/>
      <point x="211.4" y="322.3666666666667"/>
      <point x="254.83333333333334" y="322.3666666666667" type="curve" smooth="yes"/>
      <point x="297.1666666666667" y="322.3666666666667"/>
      <point x="326.3333333333333" y="346.73333333333335"/>
      <point x="326.3333333333333" y="396.73333333333335" type="curve" smooth="yes"/>
      <point x="326.3333333333333" y="434.9"/>
      <point x="303.8" y="463.1666666666667"/>
      <point x="269.8333333333333" y="463.1666666666667" type="curve" smooth="yes"/>
      <point x="254.46666666666667" y="463.1666666666667"/>
      <point x="233.03333333333333" y="458.1666666666667"/>
      <point x="220.6" y="442.0" type="curve"/>
      <point x="263.3" y="430.0" type="line"/>
      <point x="272.3666666666667" y="512.0"/>
      <point x="343.8333333333333" y="578.4666666666667"/>
      <point x="428.6666666666667" y="578.4666666666667" type="curve" smooth="yes"/>
      <point x="480.8666666666667" y="578.4666666666667"/>
      <point x="506.1" y="549.0"/>
      <point x="506.1" y="503.0" type="curve" smooth="yes"/>
      <point x="506.1" y="453.1"/>
      <point x="478.23333333333335" y="419.73333333333335"/>
      <point x="438.1666666666667" y="390.0" type="curve"/>
      <point x="452.8" y="348.4" type="line"/>
      <point x="484.6" y="348.4"/>
      <point x="531.4666666666667" y="320.6666666666667"/>
      <point x="531.4666666666667" y="257.76666666666665" type="curve" smooth="yes"/>
      <point x="531.4666666666667" y="195.03333333333333"/>
      <point x="486.23333333333335" y="143.8"/>
      <point x="390.43333333333334" y="143.8" type="curve" smooth="yes"/>
      <point x="255.5" y="143.8"/>
      <point x="135.76666666666668" y="245.33333333333334"/>
      <point x="59.3" y="548.9" type="curve"/>
      <point x="18.666666666666668" y="538.0" type="line"/>
      <point x="89.6" y="195.33333333333334"/>
      <point x="235.33333333333334" y="55.0"/>
    </contour>
  </outline>
</glyph>
<glyph name="au-beng" format="2">
  <advance width="702.0"/>
  <unicode hex="0994"/>
  <anchor x="510.0" y="39.0" name="bottom"/>
  <anchor x="558.0" y="-1.0" name="bottom.rakaar"/>
  <anchor x="486.0" y="63.0" name="bottom.rvocalic"/>
  <anchor x="426.0" y="19.0" name="bottom.virama"/>
  <anchor x="530.0" y="600.0" name="top"/>
  <anchor x="474.0" y="602.0" name="topright"/>
  <anchor x="351.0" y="0.0" name="vedic"/>
  <outline>
    <contour>
      <point x="526.2333333333333" y="334.0" type="line"/>
      <point x="578.9333333333334" y="384.0"/>
      <point x="634.3333333333334" y="457.26666666666665"/>
      <point x="634.3333333333334" y="568.4666666666667" type="curve" smooth="yes"/>
      <point x="634.3333333333334" y="732.7"/>
      <point x="510.3" y="756.2666666666667"/>
      <point x="395.26666666666665" y="773.2666666666667" type="curve" smooth="yes"/>
      <point x="301.5" y="787.2666666666667"/>
      <point x="222.4" y="799.2666666666667"/>
      <point x="222.4" y="887.1666666666666" type="curve" smooth="yes"/>
      <point x="222.4" y="915.2666666666667"/>
      <point x="228.76666666666668" y="944.0"/>
      <point x="238.4" y="968.0" type="curve"/>
      <point x="200.5" y="982.0" type="line"/>
      <point x="183.96666666666667" y="945.4666666666667"/>
      <point x="174.86666666666667" y="903.2"/>
      <point x="174.86666666666667" y="867.5333333333333" type="curve" smooth="yes"/>
      <point x="174.86666666666667" y="735.3"/>
      <point x="279.56666666666666" y="714.7333333333333"/>
      <point x="388.6" y="699.7333333333333" type="curve" smooth="yes"/>
      <point x="494.26666666666665" y="685.1"/>
      <point x="592.0666666666667" y="672.7333333333333"/>
      <point x="592.0666666666667" y="557.0" type="curve" smooth="yes"/>
      <point x="592.0666666666667" y="478.2"/>
      <point x="555.5666666666667" y="431.2"/>
      <point x="504.8" y="388.93333333333334" type="curve"/>
    </contour>
    <component base="o-beng"/>
  </outline>
</glyph>
<glyph name="ka-beng" format="2">
  <advance width="641.4"/>
  <unicode hex="0995"/>
  <anchor x="388.9666666666667" y="30.0" name="bottom"/>
  <anchor x="391.4" y="70.0" name="bottom.rakaar"/>
  <anchor x="393.6" y="10.533333333333333" name="bottom.rvocalic"/>
  <anchor x="377.6333333333333" y="6.0" name="bottom.virama"/>
  <anchor x="182.0" y="71.66666666666667" name="nukta"/>
  <anchor x="389.93333333333334" y="570.0" name="top"/>
  <anchor x="392.56666666666666" y="570.0" name="topright"/>
  <anchor x="320.2" y="0.0" name="vedic"/>
  <outline>
    <contour>
      <point x="388.23333333333335" y="-13.0" type="line"/>
      <point x="393.6" y="-12.0" type="line"/>
      <point x="393.6" y="453.8333333333333" type="line"/>
      <point x="379.3333333333333" y="430.73333333333335" type="line"/>
      <point x="383.9666666666667" y="432.3666666666667"/>
      <point x="389.8666666666667" y="433.3666666666667"/>
      <point x="394.1333333333333" y="433.3666666666667" type="curve" smooth="yes"/>
      <point x="505.73333333333335" y="433.3666666666667"/>
      <point x="569.1333333333333" y="358.8333333333333"/>
      <point x="569.1333333333333" y="287.2" type="curve" smooth="yes"/>
      <point x="569.1333333333333" y="271.8333333333333"/>
      <point x="565.5" y="262.8333333333333"/>
      <point x="557.6" y="251.2" type="curve"/>
      <point x="577.2333333333333" y="250.0" type="line"/>
      <point x="568.0666666666667" y="290.0"/>
      <point x="546.5333333333333" y="308.26666666666665"/>
      <point x="515.2666666666667" y="308.26666666666665" type="curve" smooth="yes"/>
      <point x="474.8333333333333" y="308.26666666666665"/>
      <point x="453.2" y="277.0"/>
      <point x="453.2" y="239.0" type="curve" smooth="yes"/>
      <point x="453.2" y="204.0"/>
      <point x="474.4666666666667" y="166.0"/>
      <point x="525.1666666666666" y="166.0" type="curve" smooth="yes"/>
      <point x="581.5" y="166.0"/>
      <point x="610.4" y="219.36666666666667"/>
      <point x="610.4" y="290.0" type="curve" smooth="yes"/>
      <point x="610.4" y="403.0"/>
      <point x="519.6666666666666" y="512.4333333333333"/>
      <point x="380.7" y="521.8" type="curve"/>
      <point x="393.6" y="500.0" type="line"/>
      <point x="393.6" y="570.0" type="line"/>
      <point x="668.9333333333334" y="570.0" type="line"/>
      <point x="637.1333333333333" y="622.0" type="line"/>
      <point x="-27.533333333333335" y="622.0" type="line"/>
      <point x="4.266666666666667" y="570.0" type="line"/>
      <point x="340.7" y="570.0" type="line"/>
      <point x="340.7" y="500.0" type="line"/>
      <point x="346.7" y="522.5333333333333" type="line"/>
      <point x="226.63333333333333" y="475.53333333333336"/>
      <point x="130.6" y="423.3333333333333"/>
      <point x="21.333333333333332" y="345.8" type="curve"/>
      <point x="67.1" y="235.0" type="line"/>
      <point x="191.26666666666668" y="211.86666666666667"/>
      <point x="282.43333333333334" y="140.33333333333334"/>
      <point x="344.9" y="21.433333333333334" type="curve"/>
    </contour>
    <contour>
      <point x="340.7" y="73.56666666666666" type="line"/>
      <point x="349.9" y="82.23333333333333" type="line"/>
      <point x="288.4" y="220.0"/>
      <point x="181.66666666666666" y="286.23333333333335"/>
      <point x="89.7" y="311.8" type="curve"/>
      <point x="99.5" y="291.1" type="line"/>
      <point x="173.06666666666666" y="351.1"/>
      <point x="266.43333333333334" y="397.53333333333336"/>
      <point x="351.23333333333335" y="431.8" type="curve"/>
      <point x="340.7" y="452.0" type="line"/>
    </contour>
  </outline>
</glyph>
<glyph name="kha-beng" format="2">
  <advance width="554.7333333333333"/>
  <unicode hex="0996"/>
  <anchor x="474.5" y="30.0" name="bottom"/>
  <anchor x="479.5" y="70.0" name="bottom.rakaar"/>
  <anchor x="479.5" y="12.0" name="bottom.rvocalic"/>
  <anchor x="461.7" y="6.0" name="bottom.virama"/>
  <anchor x="475.4666666666667" y="560.0" name="top"/>
  <anchor x="450.9666666666667" y="552.0" name="topright"/>
  <anchor x="259.06666666666666" y="0.0" name="vedic"/>
  <outline>
    <contour>
      <point x="474.5" y="-13.0" type="line"/>
      <point x="479.5" y="-12.0" type="line"/>
      <point x="479.5" y="570.0" type="line"/>
      <point x="582.2666666666667" y="570.0" type="line"/>
      <point x="549.8333333333334" y="622.0" type="line"/>
      <point x="478.4" y="622.0" type="line"/>
      <point x="474.03333333333336" y="665.0" type="line"/>
      <point x="430.6" y="698.0" type="line"/>
      <point x="426.6" y="697.0" type="line"/>
      <point x="426.6" y="74.66666666666667" type="line"/>
      <point x="434.7" y="87.0" type="line"/>
      <point x="383.6" y="197.53333333333333"/>
      <point x="303.8333333333333" y="265.26666666666665"/>
      <point x="205.23333333333335" y="300.7" type="curve"/>
      <point x="213.93333333333334" y="275.56666666666666" type="line"/>
      <point x="312.3666666666667" y="296.2"/>
      <point x="365.5" y="347.1"/>
      <point x="365.5" y="447.43333333333334" type="curve" smooth="yes"/>
      <point x="365.5" y="531.0"/>
      <point x="318.6" y="587.0"/>
      <point x="277.6" y="624.2666666666667" type="curve"/>
      <point x="227.43333333333334" y="537.1"/>
      <point x="173.96666666666667" y="498.0"/>
      <point x="137.33333333333334" y="498.0" type="curve" smooth="yes"/>
      <point x="125.8" y="498.0"/>
      <point x="114.96666666666667" y="501.0"/>
      <point x="109.33333333333333" y="505.0" type="curve"/>
      <point x="133.73333333333335" y="476.0" type="line"/>
      <point x="150.26666666666668" y="492.0"/>
      <point x="155.9" y="506.3666666666667"/>
      <point x="155.9" y="532.0" type="curve" smooth="yes"/>
      <point x="155.9" y="567.0"/>
      <point x="133.36666666666667" y="592.0"/>
      <point x="94.46666666666667" y="592.0" type="curve" smooth="yes"/>
      <point x="52.4" y="592.0"/>
      <point x="28.4" y="565.3666666666667"/>
      <point x="28.4" y="519.7333333333333" type="curve" smooth="yes"/>
      <point x="28.4" y="451.03333333333336"/>
      <point x="80.1" y="420.6666666666667"/>
      <point x="129.16666666666666" y="420.6666666666667" type="curve" smooth="yes"/>
      <point x="201.73333333333335" y="420.6666666666667"/>
      <point x="267.8333333333333" y="469.1666666666667"/>
      <point x="316.76666666666665" y="549.1666666666666" type="curve"/>
      <point x="280.1666666666667" y="544.5333333333333" type="line"/>
      <point x="300.6" y="523.5333333333333"/>
      <point x="312.9666666666667" y="499.9"/>
      <point x="312.9666666666667" y="463.53333333333336" type="curve" smooth="yes"/>
      <point x="312.9666666666667" y="374.9"/>
      <point x="209.46666666666667" y="342.2"/>
      <point x="112.43333333333334" y="340.3666666666667" type="curve"/>
      <point x="149.86666666666667" y="234.0" type="line"/>
      <point x="280.6333333333333" y="217.0"/>
      <point x="366.76666666666665" y="143.63333333333333"/>
      <point x="430.06666666666666" y="24.0" type="curve"/>
    </contour>
  </outline>
</glyph>
<glyph name="ga-beng" format="2">
  <advance width="542.9333333333334"/>
  <unicode hex="0997"/>
  <anchor x="457.06666666666666" y="52.666666666666664" name="bottom"/>
  <anchor x="467.7" y="-3.0" name="bottom.rakaar"/>
  <anchor x="467.7" y="-2.0" name="bottom.rvocalic"/>
  <anchor x="448.06666666666666" y="6.0" name="bottom.virama"/>
  <anchor x="463.6666666666667" y="560.0" name="top"/>
  <anchor x="439.1666666666667" y="552.0" name="topright"/>
  <anchor x="270.9666666666667" y="0.0" name="vedic"/>
  <outline>
    <contour>
      <point x="464.3333333333333" y="-25.0" type="line"/>
      <point x="467.7" y="-24.0" type="line"/>
      <point x="467.7" y="570.0" type="line"/>
      <point x="570.4666666666667" y="570.0" type="line"/>
      <point x="538.0333333333333" y="622.0" type="line"/>
      <point x="466.6" y="622.0" type="line"/>
      <point x="462.23333333333335" y="665.0" type="line"/>
      <point x="418.8" y="698.0" type="line"/>
      <point x="414.8" y="697.0" type="line"/>
      <point x="414.8" y="569.1666666666666" type="line" smooth="yes"/>
      <point x="414.8" y="523.9333333333333"/>
      <point x="418.06666666666666" y="470.6333333333333"/>
      <point x="421.8" y="435.0" type="curve"/>
      <point x="431.3333333333333" y="435.0" type="line"/>
      <point x="365.9666666666667" y="573.0"/>
      <point x="295.73333333333335" y="629.0"/>
      <point x="213.96666666666667" y="629.0" type="curve" smooth="yes"/>
      <point x="142.0" y="629.0"/>
      <point x="66.13333333333333" y="581.0666666666667"/>
      <point x="9.866666666666667" y="448.03333333333336" type="curve"/>
      <point x="83.46666666666667" y="386.53333333333336" type="line"/>
      <point x="116.83333333333333" y="418.96666666666664"/>
      <point x="152.33333333333334" y="435.06666666666666"/>
      <point x="188.56666666666666" y="435.06666666666666" type="curve" smooth="yes"/>
      <point x="225.16666666666666" y="435.06666666666666"/>
      <point x="243.06666666666666" y="412.8"/>
      <point x="243.06666666666666" y="381.9" type="curve" smooth="yes"/>
      <point x="243.06666666666666" y="334.1666666666667"/>
      <point x="191.73333333333335" y="296.0"/>
      <point x="113.06666666666666" y="263.0" type="curve"/>
      <point x="169.03333333333333" y="174.2" type="line"/>
      <point x="265.1666666666667" y="235.36666666666667"/>
      <point x="302.7" y="291.73333333333335"/>
      <point x="302.7" y="365.8" type="curve" smooth="yes"/>
      <point x="302.7" y="433.43333333333334"/>
      <point x="261.26666666666665" y="486.7"/>
      <point x="192.03333333333333" y="486.7" type="curve" smooth="yes"/>
      <point x="148.63333333333333" y="486.7"/>
      <point x="117.1" y="471.8"/>
      <point x="98.3" y="457.23333333333335" type="curve"/>
      <point x="116.63333333333334" y="447.8" type="line"/>
      <point x="147.36666666666667" y="532.7"/>
      <point x="191.9" y="553.5666666666667"/>
      <point x="230.53333333333333" y="553.5666666666667" type="curve" smooth="yes"/>
      <point x="295.73333333333335" y="553.5666666666667"/>
      <point x="355.9666666666667" y="511.9"/>
      <point x="426.5" y="359.9" type="curve"/>
      <point x="414.8" y="420.0" type="line"/>
      <point x="414.8" y="3.0" type="line"/>
    </contour>
  </outline>
</glyph>
<glyph name="gha-beng" format="2">
  <advance width="478.3333333333333"/>
  <unicode hex="0998"/>
  <anchor x="398.4666666666667" y="30.0" name="bottom"/>
  <anchor x="400.9" y="70.0" name="bottom.rakaar"/>
  <anchor x="403.1" y="10.533333333333333" name="bottom.rvocalic"/>
  <anchor x="387.1333333333333" y="6.0" name="bottom.virama"/>
  <anchor x="399.43333333333334" y="570.0" name="top"/>
  <anchor x="402.06666666666666" y="570.0" name="topright"/>
  <anchor x="239.16666666666666" y="0.0" name="vedic"/>
  <outline>
    <contour>
      <point x="397.73333333333335" y="-13.0" type="line"/>
      <point x="403.1" y="-12.0" type="line"/>
      <point x="403.1" y="570.0" type="line"/>
      <point x="505.8666666666667" y="570.0" type="line"/>
      <point x="474.06666666666666" y="622.0" type="line"/>
      <point x="-27.533333333333335" y="622.0" type="line"/>
      <point x="4.266666666666667" y="570.0" type="line"/>
      <point x="350.2" y="570.0" type="line"/>
      <point x="350.2" y="73.56666666666666" type="line"/>
      <point x="359.4" y="82.23333333333333" type="line"/>
      <point x="308.6666666666667" y="198.46666666666667"/>
      <point x="227.26666666666665" y="258.3666666666667"/>
      <point x="99.2" y="305.46666666666664" type="curve"/>
      <point x="107.16666666666667" y="279.0" type="line"/>
      <point x="171.93333333333334" y="327.9"/>
      <point x="238.53333333333333" y="361.73333333333335"/>
      <point x="305.1" y="394.73333333333335" type="curve"/>
      <point x="264.6666666666667" y="470.0" type="line"/>
      <point x="234.43333333333334" y="447.9"/>
      <point x="203.03333333333333" y="438.0"/>
      <point x="177.96666666666667" y="438.0" type="curve" smooth="yes"/>
      <point x="139.36666666666667" y="438.0"/>
      <point x="116.0" y="463.1666666666667"/>
      <point x="116.0" y="497.6333333333333" type="curve" smooth="yes"/>
      <point x="116.0" y="545.8"/>
      <point x="151.06666666666666" y="570.0"/>
      <point x="199.83333333333334" y="580.0" type="curve"/>
      <point x="136.46666666666667" y="617.0" type="line"/>
      <point x="92.0" y="611.0"/>
      <point x="33.666666666666664" y="578.6333333333333"/>
      <point x="33.666666666666664" y="509.9" type="curve" smooth="yes"/>
      <point x="33.666666666666664" y="443.0"/>
      <point x="91.53333333333333" y="403.2"/>
      <point x="163.63333333333333" y="392.6666666666667" type="curve"/>
      <point x="146.7" y="408.0" type="line"/>
      <point x="110.43333333333334" y="387.0"/>
      <point x="72.36666666666667" y="365.53333333333336"/>
      <point x="33.766666666666666" y="338.0" type="curve"/>
      <point x="76.6" y="228.66666666666666" type="line"/>
      <point x="198.23333333333335" y="206.16666666666666"/>
      <point x="292.56666666666666" y="140.33333333333334"/>
      <point x="354.4" y="21.433333333333334" type="curve"/>
    </contour>
  </outline>
</glyph>
<glyph name="nga-beng" format="2">
  <advance width="551.9333333333334"/>
  <unicode hex="0999"/>
  <anchor x="369.3333333333333" y="24.0" name="bottom"/>
  <anchor x="463.6333333333333" y="-20.0" name="bottom.rakaar"/>
  <anchor x="387.5" y="20.0" name="bottom.rvocalic"/>
  <anchor x="344.4666666666667" y="0.0" name="bottom.virama"/>
  <anchor x="318.8333333333333" y="570.0" name="top"/>
  <anchor x="297.7" y="570.0" name="topright"/>
  <anchor x="275.4666666666667" y="0.0" name="vedic"/>
  <outline>
    <contour>
      <point x="328.53333333333336" y="36.0" type="curve" smooth="yes"/>
      <point x="449.7" y="36.0"/>
      <point x="518.3" y="122.56666666666666"/>
      <point x="518.3" y="247.96666666666667" type="curve" smooth="yes"/>
      <point x="518.3" y="325.7"/>
      <point x="490.93333333333334" y="390.7"/>
      <point x="445.8666666666667" y="441.7" type="curve"/>
      <point x="403.23333333333335" y="374.93333333333334"/>
      <point x="342.1" y="313.6"/>
      <point x="286.06666666666666" y="313.6" type="curve" smooth="yes"/>
      <point x="269.43333333333334" y="313.6"/>
      <point x="260.06666666666666" y="323.23333333333335"/>
      <point x="260.06666666666666" y="341.23333333333335" type="curve" smooth="yes"/>
      <point x="260.06666666666666" y="463.9" type="line" smooth="yes"/>
      <point x="260.06666666666666" y="542.6"/>
      <point x="281.4" y="580.0"/>
      <point x="322.0" y="580.0" type="curve" smooth="yes"/>
      <point x="351.6" y="580.0"/>
      <point x="371.93333333333334" y="562.0"/>
      <point x="371.93333333333334" y="533.0" type="curve" smooth="yes"/>
      <point x="371.93333333333334" y="505.0"/>
      <point x="359.6666666666667" y="476.0"/>
      <point x="304.1" y="476.0" type="curve" smooth="yes"/>
      <point x="207.66666666666666" y="476.0"/>
      <point x="176.33333333333334" y="525.9"/>
      <point x="135.36666666666667" y="620.9" type="curve"/>
      <point x="97.46666666666667" y="602.0" type="line"/>
      <point x="140.8" y="495.26666666666665"/>
      <point x="194.26666666666668" y="417.0"/>
      <point x="302.2" y="417.0" type="curve" smooth="yes"/>
      <point x="397.73333333333335" y="417.0"/>
      <point x="421.8333333333333" y="475.3666666666667"/>
      <point x="422.4666666666667" y="522.0" type="curve" smooth="yes"/>
      <point x="423.1" y="584.0"/>
      <point x="385.5" y="632.0"/>
      <point x="318.3666666666667" y="632.0" type="curve" smooth="yes"/>
      <point x="244.06666666666666" y="632.0"/>
      <point x="205.9" y="577.0"/>
      <point x="205.9" y="485.0" type="curve" smooth="yes"/>
      <point x="205.9" y="341.23333333333335" type="line" smooth="yes"/>
      <point x="205.9" y="306.5"/>
      <point x="219.63333333333333" y="281.23333333333335"/>
      <point x="238.7" y="263.43333333333334" type="curve" smooth="yes"/>
      <point x="256.7" y="246.06666666666666"/>
      <point x="281.8666666666667" y="235.8"/>
      <point x="309.93333333333334" y="235.8" type="curve" smooth="yes"/>
      <point x="365.0" y="235.8"/>
      <point x="429.5" y="284.96666666666664"/>
      <point x="474.5" y="347.7" type="curve"/>
      <point x="440.8" y="355.0" type="line"/>
      <point x="457.9666666666667" y="332.0"/>
      <point x="468.8666666666667" y="304.26666666666665"/>
      <point x="468.8666666666667" y="265.46666666666664" type="curve" smooth="yes"/>
      <point x="468.8666666666667" y="179.46666666666667"/>
      <point x="415.8" y="124.16666666666667"/>
      <point x="327.06666666666666" y="124.16666666666667" type="curve" smooth="yes"/>
      <point x="191.16666666666666" y="124.16666666666667"/>
      <point x="115.43333333333334" y="232.6"/>
      <point x="49.266666666666666" y="492.0" type="curve"/>
      <point x="10.366666666666667" y="481.8333333333333" type="line"/>
      <point x="73.53333333333333" y="175.16666666666666"/>
      <point x="173.5" y="36.0"/>
    </contour>
  </outline>
</glyph>
<glyph name="ca-beng" format="2">
  <advance width="440.76666666666665"/>
  <unicode hex="099A"/>
  <anchor x="295.8" y="30.0" name="bottom"/>
  <anchor x="344.3333333333333" y="0.0" name="bottom.rakaar"/>
  <anchor x="295.1" y="26.0" name="bottom.rvocalic"/>
  <anchor x="228.16666666666666" y="36.0" name="bottom.virama"/>
  <anchor x="124.46666666666667" y="570.0" name="top"/>
  <anchor x="126.73333333333333" y="570.0" name="topright"/>
  <anchor x="220.2" y="0.0" name="vedic"/>
  <outline>
    <contour>
      <point x="192.43333333333334" y="31.0" type="curve" smooth="yes"/>
      <point x="319.0" y="31.0"/>
      <point x="404.7" y="213.36666666666667"/>
      <point x="404.7" y="322.0" type="curve" smooth="yes"/>
      <point x="404.7" y="362.0"/>
      <point x="372.8" y="391.0"/>
      <point x="353.1666666666667" y="403.0" type="curve"/>
      <point x="281.4" y="412.0"/>
      <point x="175.9" y="451.1"/>
      <point x="122.86666666666667" y="563.0" type="curve"/>
      <point x="123.13333333333334" y="492.0" type="line"/>
      <point x="160.8" y="400.46666666666664"/>
      <point x="234.3" y="340.46666666666664"/>
      <point x="346.1" y="326.56666666666666" type="curve"/>
      <point x="326.4666666666667" y="348.46666666666664" type="line"/>
      <point x="319.2" y="214.06666666666666"/>
      <point x="246.73333333333335" y="96.16666666666667"/>
      <point x="181.6" y="96.16666666666667" type="curve" smooth="yes"/>
      <point x="148.83333333333334" y="96.16666666666667"/>
      <point x="128.13333333333333" y="113.33333333333333"/>
      <point x="128.13333333333333" y="150.6" type="curve" smooth="yes"/>
      <point x="128.13333333333333" y="570.0" type="line"/>
      <point x="468.3" y="570.0" type="line"/>
      <point x="436.5" y="622.0" type="line"/>
      <point x="-27.533333333333335" y="622.0" type="line"/>
      <point x="5.9" y="570.0" type="line"/>
      <point x="75.23333333333333" y="570.0" type="line"/>
      <point x="75.23333333333333" y="150.6" type="line" smooth="yes"/>
      <point x="75.23333333333333" y="77.7"/>
      <point x="126.3" y="31.0"/>
    </contour>
  </outline>
</glyph>
<glyph name="cha-beng" format="2">
  <advance width="487.9"/>
  <unicode hex="099B"/>
  <anchor x="288.6" y="57.333333333333336" name="bottom"/>
  <anchor x="403.56666666666666" y="-98.0" name="bottom.rakaar"/>
  <anchor x="348.1" y="51.0" name="bottom.rvocalic"/>
  <anchor x="277.6" y="51.0" name="bottom.virama"/>
  <anchor x="106.43333333333334" y="570.0" name="top"/>
  <anchor x="108.7" y="570.0" name="topright"/>
  <anchor x="243.63333333333333" y="0.0" name="vedic"/>
  <outline>
    <contour>
      <point x="470.1333333333333" y="-84.0" type="curve"/>
      <point x="498.93333333333334" y="-51.0" type="line"/>
      <point x="422.8" y="28.466666666666665"/>
      <point x="326.1333333333333" y="117.66666666666667"/>
      <point x="225.3" y="144.3" type="curve"/>
      <point x="204.76666666666668" y="120.4" type="line"/>
      <point x="218.33333333333334" y="114.93333333333334"/>
      <point x="237.16666666666669" y="113.93333333333334"/>
      <point x="258.53333333333336" y="113.93333333333334" type="curve" smooth="yes"/>
      <point x="353.1333333333333" y="113.93333333333334"/>
      <point x="438.1" y="178.9"/>
      <point x="438.1" y="311.73333333333335" type="curve" smooth="yes"/>
      <point x="438.1" y="416.3666666666667"/>
      <point x="363.9666666666667" y="493.9"/>
      <point x="270.56666666666666" y="493.9" type="curve" smooth="yes"/>
      <point x="188.5" y="493.9"/>
      <point x="142.7" y="511.0"/>
      <point x="105.93333333333334" y="570.0" type="curve"/>
      <point x="102.93333333333334" y="526.0" type="line"/>
      <point x="131.0" y="468.0"/>
      <point x="193.46666666666667" y="425.2"/>
      <point x="255.56666666666666" y="422.93333333333334" type="curve"/>
      <point x="230.86666666666667" y="460.0" type="line"/>
      <point x="225.7" y="366.0"/>
      <point x="193.0" y="307.9"/>
      <point x="149.06666666666666" y="307.9" type="curve" smooth="yes"/>
      <point x="123.46666666666667" y="307.9"/>
      <point x="111.56666666666666" y="325.06666666666666"/>
      <point x="111.56666666666666" y="348.3333333333333" type="curve" smooth="yes"/>
      <point x="111.56666666666666" y="570.0" type="line"/>
      <point x="515.4333333333334" y="570.0" type="line"/>
      <point x="483.26666666666665" y="622.0" type="line"/>
      <point x="-27.533333333333335" y="622.0" type="line"/>
      <point x="4.266666666666667" y="570.0" type="line"/>
      <point x="58.666666666666664" y="570.0" type="line"/>
      <point x="58.666666666666664" y="348.7" type="line" smooth="yes"/>
      <point x="58.666666666666664" y="295.43333333333334"/>
      <point x="99.73333333333333" y="244.0"/>
      <point x="162.06666666666666" y="244.0" type="curve" smooth="yes"/>
      <point x="234.9" y="244.0"/>
      <point x="297.3" y="296.73333333333335"/>
      <point x="318.9" y="467.0" type="curve"/>
      <point x="279.76666666666665" y="440.0" type="line"/>
      <point x="322.73333333333335" y="439.6333333333333"/>
      <point x="381.4666666666667" y="412.0"/>
      <point x="381.4666666666667" y="324.3666666666667" type="curve" smooth="yes"/>
      <point x="381.4666666666667" y="248.73333333333335"/>
      <point x="337.8666666666667" y="188.73333333333332"/>
      <point x="222.93333333333334" y="188.73333333333332" type="curve" smooth="yes"/>
      <point x="172.6" y="188.73333333333332"/>
      <point x="129.0" y="195.83333333333334"/>
      <point x="85.0" y="213.1" type="curve"/>
      <point x="105.0" y="116.2" type="line"/>
      <point x="252.0" y="90.56666666666666"/>
      <point x="340.5" y="38.63333333333333"/>
    </contour>
  </outline>
</glyph>
<glyph name="ja-beng" format="2">
  <advance width="715.1"/>
  <unicode hex="099C"/>
  <anchor x="622.1333333333333" y="87.0" name="bottom"/>
  <anchor x="635.0333333333333" y="70.0" name="bottom.rakaar"/>
  <anchor x="632.7666666666667" y="14.0" name="bottom.rvocalic"/>
  <anchor x="616.3333333333334" y="0.0" name="bottom.virama"/>
  <anchor x="393.2" y="570.0" name="top"/>
  <anchor x="395.4666666666667" y="570.0" name="topright"/>
  <anchor x="357.23333333333335" y="0.0" name="vedic"/>
  <outline>
    <contour>
      <point x="310.4666666666667" y="57.0" type="curve" smooth="yes"/>
      <point x="430.8333333333333" y="57.0"/>
      <point x="484.6" y="140.9"/>
      <point x="484.6" y="251.16666666666666" type="curve" smooth="yes"/>
      <point x="484.6" y="318.1"/>
      <point x="466.6666666666667" y="378.0"/>
      <point x="413.9" y="430.8" type="curve"/>
      <point x="377.43333333333334" y="367.3666666666667"/>
      <point x="334.1" y="328.1"/>
      <point x="290.6666666666667" y="328.1" type="curve" smooth="yes"/>
      <point x="255.33333333333334" y="328.1"/>
      <point x="231.8" y="349.46666666666664"/>
      <point x="231.8" y="389.46666666666664" type="curve" smooth="yes"/>
      <point x="231.8" y="457.46666666666664"/>
      <point x="302.8" y="517.6666666666666"/>
      <point x="407.43333333333334" y="570.0" type="curve"/>
      <point x="742.6333333333333" y="570.0" type="line"/>
      <point x="710.8333333333334" y="622.0" type="line"/>
      <point x="-27.533333333333335" y="622.0" type="line"/>
      <point x="4.266666666666667" y="570.0" type="line"/>
      <point x="296.5" y="570.0" type="line"/>
      <point x="282.8" y="583.0" type="line"/>
      <point x="213.76666666666668" y="535.1333333333333"/>
      <point x="172.9" y="472.73333333333335"/>
      <point x="172.9" y="407.6333333333333" type="curve" smooth="yes"/>
      <point x="172.9" y="319.8"/>
      <point x="228.8" y="252.46666666666667"/>
      <point x="302.56666666666666" y="252.46666666666667" type="curve" smooth="yes"/>
      <point x="364.43333333333334" y="252.46666666666667"/>
      <point x="416.03333333333336" y="297.0"/>
      <point x="451.1666666666667" y="350.0" type="curve"/>
      <point x="414.9" y="350.8666666666667" type="line"/>
      <point x="428.1666666666667" y="329.8666666666667"/>
      <point x="438.43333333333334" y="302.8666666666667"/>
      <point x="438.43333333333334" y="265.8666666666667" type="curve" smooth="yes"/>
      <point x="438.43333333333334" y="199.3"/>
      <point x="399.26666666666665" y="143.0"/>
      <point x="308.73333333333335" y="143.0" type="curve" smooth="yes"/>
      <point x="184.83333333333334" y="143.0"/>
      <point x="108.96666666666667" y="248.43333333333334"/>
      <point x="57.8" y="489.8" type="curve"/>
      <point x="18.166666666666668" y="480.0" type="line"/>
      <point x="70.8" y="183.9"/>
      <point x="167.0" y="57.0"/>
    </contour>
    <contour>
      <point x="594.1333333333333" y="-11.8" type="curve"/>
      <point x="632.7666666666667" y="4.0" type="line"/>
      <point x="614.5" y="63.36666666666667"/>
      <point x="606.1333333333333" y="124.0"/>
      <point x="606.1333333333333" y="183.36666666666667" type="curve" smooth="yes"/>
      <point x="606.1333333333333" y="259.93333333333334"/>
      <point x="628.4666666666667" y="332.6"/>
      <point x="674.9" y="396.0" type="curve"/>
      <point x="632.0" y="464.0" type="line"/>
      <point x="523.1" y="468.0"/>
      <point x="457.06666666666666" y="497.0"/>
      <point x="413.03333333333336" y="602.2666666666667" type="curve"/>
      <point x="379.1333333333333" y="562.0" type="line"/>
      <point x="425.9" y="450.0"/>
      <point x="512.9333333333334" y="402.73333333333335"/>
      <point x="599.0333333333333" y="387.73333333333335" type="curve"/>
      <point x="587.4" y="413.8333333333333" type="line"/>
      <point x="564.1333333333333" y="358.8"/>
      <point x="551.2333333333333" y="284.56666666666666"/>
      <point x="551.2333333333333" y="215.83333333333334" type="curve" smooth="yes"/>
      <point x="551.2333333333333" y="135.93333333333334"/>
      <point x="566.6" y="63.1"/>
    </contour>
  </outline>
</glyph>
<glyph name="jha-beng" format="2">
  <advance width="610.0666666666667"/>
  <unicode hex="099D"/>
  <anchor x="388.9666666666667" y="30.0" name="bottom"/>
  <anchor x="391.4" y="70.0" name="bottom.rakaar"/>
  <anchor x="393.6" y="10.533333333333333" name="bottom.rvocalic"/>
  <anchor x="377.6333333333333" y="6.0" name="bottom.virama"/>
  <anchor x="377.26666666666665" y="570.0" name="top"/>
  <anchor x="438.4666666666667" y="570.0" name="topleft"/>
  <anchor x="379.9" y="570.0" name="topright"/>
  <anchor x="305.03333333333336" y="0.0" name="vedic"/>
  <outline>
    <contour>
      <point x="388.23333333333335" y="-13.0" type="line"/>
      <point x="393.6" y="-12.0" type="line"/>
      <point x="393.6" y="622.0" type="line"/>
      <point x="-27.533333333333335" y="622.0" type="line"/>
      <point x="4.266666666666667" y="570.0" type="line"/>
      <point x="340.7" y="570.0" type="line"/>
      <point x="340.7" y="502.53333333333336" type="line"/>
      <point x="346.7" y="522.5333333333333" type="line"/>
      <point x="226.63333333333333" y="475.53333333333336"/>
      <point x="130.6" y="423.3333333333333"/>
      <point x="21.333333333333332" y="345.8" type="curve"/>
      <point x="67.1" y="235.0" type="line"/>
      <point x="191.26666666666668" y="211.86666666666667"/>
      <point x="282.43333333333334" y="140.33333333333334"/>
      <point x="344.9" y="21.433333333333334" type="curve"/>
    </contour>
    <contour>
      <point x="340.7" y="73.56666666666666" type="line"/>
      <point x="349.9" y="82.23333333333333" type="line"/>
      <point x="288.4" y="220.0"/>
      <point x="181.66666666666666" y="286.23333333333335"/>
      <point x="89.7" y="311.8" type="curve"/>
      <point x="99.5" y="290.46666666666664" type="line"/>
      <point x="173.06666666666666" y="350.46666666666664"/>
      <point x="266.43333333333334" y="396.9"/>
      <point x="351.23333333333335" y="431.1666666666667" type="curve"/>
      <point x="340.7" y="449.46666666666664" type="line"/>
    </contour>
    <contour>
      <point x="530.7333333333333" y="85.1" type="line"/>
      <point x="534.8333333333334" y="86.1" type="line"/>
      <point x="534.8333333333334" y="570.0" type="line"/>
      <point x="637.6" y="570.0" type="line"/>
      <point x="605.1666666666666" y="622.0" type="line"/>
      <point x="533.7333333333333" y="622.0" type="line"/>
      <point x="529.3666666666667" y="665.0" type="line"/>
      <point x="485.93333333333334" y="698.0" type="line"/>
      <point x="481.93333333333334" y="697.0" type="line"/>
      <point x="481.93333333333334" y="171.66666666666666" type="line"/>
      <point x="491.1333333333333" y="180.33333333333334" type="line"/>
      <point x="460.1" y="251.16666666666666"/>
      <point x="417.03333333333336" y="303.1"/>
      <point x="369.5" y="340.56666666666666" type="curve"/>
      <point x="363.9666666666667" y="265.2" type="line"/>
      <point x="414.2" y="233.26666666666668"/>
      <point x="453.1666666666667" y="182.0"/>
      <point x="486.1333333333333" y="119.53333333333333" type="curve"/>
    </contour>
  </outline>
</glyph>
<glyph name="nya-beng" format="2">
  <advance width="851.8"/>
  <unicode hex="099E"/>
  <anchor x="515.5666666666667" y="30.0" name="bottom"/>
  <anchor x="632.6333333333333" y="70.0" name="bottom.rakaar"/>
  <anchor x="520.2" y="8.0" name="bottom.rvocalic"/>
  <anchor x="504.23333333333335" y="6.0" name="bottom.virama"/>
  <anchor x="442.6" y="570.0" name="top"/>
  <anchor x="445.23333333333335" y="570.0" name="topright"/>
  <anchor x="425.9" y="0.0" name="vedic"/>
  <outline>
    <contour>
      <point x="667.0666666666667" y="52.8" type="curve" smooth="yes"/>
      <point x="742.1" y="52.8"/>
      <point x="785.9666666666667" y="119.8"/>
      <point x="785.9666666666667" y="206.8" type="curve" smooth="yes"/>
      <point x="785.9666666666667" y="257.43333333333334"/>
      <point x="770.0666666666667" y="307.8"/>
      <point x="730.3666666666667" y="345.8" type="curve"/>
      <point x="739.7333333333333" y="304.8" type="line"/>
      <point x="766.8" y="336.1666666666667"/>
      <point x="783.7" y="390.1666666666667"/>
      <point x="783.7" y="444.8" type="curve" smooth="yes"/>
      <point x="783.7" y="527.4333333333333"/>
      <point x="741.1" y="594.8"/>
      <point x="673.3333333333334" y="594.8" type="curve" smooth="yes"/>
      <point x="578.1333333333333" y="594.8"/>
      <point x="506.56666666666666" y="453.8"/>
      <point x="499.3" y="377.8" type="curve"/>
      <point x="499.3" y="275.8" type="line"/>
      <point x="513.8333333333334" y="161.8"/>
      <point x="586.4" y="52.8"/>
    </contour>
    <contour>
      <point x="664.3333333333334" y="133.8" type="curve" smooth="yes"/>
      <point x="592.5" y="133.8"/>
      <point x="528.5666666666667" y="221.16666666666666"/>
      <point x="528.5666666666667" y="320.8" type="curve" smooth="yes"/>
      <point x="528.5666666666667" y="403.8"/>
      <point x="583.7" y="517.8"/>
      <point x="669.3333333333334" y="517.8" type="curve" smooth="yes"/>
      <point x="710.3666666666667" y="517.8"/>
      <point x="736.3333333333334" y="498.8"/>
      <point x="736.3333333333334" y="458.8" type="curve" smooth="yes"/>
      <point x="736.3333333333334" y="409.1666666666667"/>
      <point x="709.9" y="375.8"/>
      <point x="673.0333333333333" y="358.8" type="curve"/>
      <point x="719.6333333333333" y="347.8" type="line"/>
      <point x="701.8333333333334" y="379.8"/>
      <point x="674.5" y="387.8"/>
      <point x="651.3333333333334" y="387.8" type="curve" smooth="yes"/>
      <point x="614.6333333333333" y="387.8"/>
      <point x="589.2" y="362.43333333333334"/>
      <point x="589.2" y="322.8" type="curve" smooth="yes"/>
      <point x="589.2" y="278.8"/>
      <point x="617.0" y="254.8"/>
      <point x="654.9666666666667" y="254.8" type="curve" smooth="yes"/>
      <point x="690.3" y="254.8"/>
      <point x="714.1" y="271.8"/>
      <point x="733.6333333333333" y="299.8" type="curve"/>
      <point x="702.1" y="312.8" type="line"/>
      <point x="722.1666666666666" y="295.8"/>
      <point x="742.0666666666667" y="263.8"/>
      <point x="742.0666666666667" y="222.8" type="curve" smooth="yes"/>
      <point x="742.0666666666667" y="167.8"/>
      <point x="715.0" y="133.8"/>
    </contour>
    <component base="e-beng"/>
  </outline>
</glyph>
<glyph name="tta-beng" format="2">
  <advance width="457.56666666666666"/>
  <unicode hex="099F"/>
  <anchor x="299.4666666666667" y="30.0" name="bottom"/>
  <anchor x="348.0" y="3.166666666666667" name="bottom.rakaar"/>
  <anchor x="300.6666666666667" y="34.86666666666667" name="bottom.rvocalic"/>
  <anchor x="231.83333333333334" y="39.166666666666664" name="bottom.virama"/>
  <anchor x="254.46666666666667" y="662.2666666666667" name="top"/>
  <anchor x="181.33333333333334" y="642.8333333333334" name="topright"/>
  <anchor x="228.46666666666667" y="0.0" name="vedic"/>
  <anchor x="201.96666666666667" y="-72.0" name="nukta"/>
  <outline>
    <contour>
      <point x="344.06666666666666" y="612.0" type="curve"/>
      <point x="386.6" y="612.0" type="line"/>
      <point x="381.7" y="740.5333333333333"/>
      <point x="345.7" y="802.8"/>
      <point x="261.3" y="802.8" type="curve" smooth="yes"/>
      <point x="221.76666666666668" y="802.8"/>
      <point x="185.46666666666667" y="793.8"/>
      <point x="143.76666666666668" y="793.8" type="curve" smooth="yes"/>
      <point x="83.56666666666666" y="793.8"/>
      <point x="53.5" y="812.3333333333334"/>
      <point x="53.5" y="877.9666666666667" type="curve" smooth="yes"/>
      <point x="53.5" y="890.7"/>
      <point x="54.5" y="903.5333333333333"/>
      <point x="55.86666666666667" y="912.6333333333333" type="curve"/>
      <point x="16.7" y="916.6333333333333" type="line"/>
      <point x="14.333333333333334" y="899.8"/>
      <point x="12.7" y="878.4333333333333"/>
      <point x="12.7" y="862.1666666666666" type="curve" smooth="yes"/>
      <point x="12.7" y="769.5"/>
      <point x="51.86666666666667" y="710.7333333333333"/>
      <point x="142.96666666666667" y="710.7333333333333" type="curve" smooth="yes"/>
      <point x="195.03333333333333" y="710.7333333333333"/>
      <point x="231.76666666666668" y="720.7333333333333"/>
      <point x="270.3" y="720.7333333333333" type="curve" smooth="yes"/>
      <point x="317.53333333333336" y="720.7333333333333"/>
      <point x="341.8" y="689.2666666666667"/>
    </contour>
    <component base="ddha-beng"/>
  </outline>
</glyph>
<glyph name="ttha-beng" format="2">
  <advance width="489.06666666666666"/>
  <unicode hex="09A0"/>
  <anchor x="289.2" y="0.0" name="bottom"/>
  <anchor x="401.8333333333333" y="-37.0" name="bottom.rakaar"/>
  <anchor x="334.06666666666666" y="0.0" name="bottom.rvocalic"/>
  <anchor x="290.93333333333334" y="0.0" name="bottom.virama"/>
  <anchor x="385.6666666666667" y="554.0666666666667" name="top"/>
  <anchor x="385.6666666666667" y="615.9" name="topleft"/>
  <anchor x="281.4" y="570.0" name="topright"/>
  <anchor x="244.03333333333333" y="0.0" name="vedic"/>
  <outline>
    <contour>
      <point x="247.56666666666666" y="5.0" type="curve" smooth="yes"/>
      <point x="363.2" y="5.0"/>
      <point x="432.43333333333334" y="90.66666666666667"/>
      <point x="432.43333333333334" y="220.56666666666666" type="curve" smooth="yes"/>
      <point x="432.43333333333334" y="341.53333333333336"/>
      <point x="370.0" y="449.0"/>
      <point x="270.93333333333334" y="570.0" type="curve"/>
      <point x="516.6" y="570.0" type="line"/>
      <point x="485.8" y="622.0" type="line"/>
      <point x="220.06666666666666" y="622.0" type="line"/>
      <point x="187.73333333333335" y="660.0"/>
      <point x="162.3" y="702.0"/>
      <point x="162.3" y="742.6333333333333" type="curve" smooth="yes"/>
      <point x="162.3" y="780.0"/>
      <point x="183.93333333333334" y="807.0"/>
      <point x="227.16666666666666" y="838.0" type="curve"/>
      <point x="168.0" y="901.0" type="line"/>
      <point x="111.86666666666667" y="859.0"/>
      <point x="94.76666666666667" y="818.6333333333333"/>
      <point x="94.76666666666667" y="776.0" type="curve" smooth="yes"/>
      <point x="94.76666666666667" y="715.2666666666667"/>
      <point x="132.46666666666667" y="666.0"/>
      <point x="166.26666666666668" y="622.0" type="curve"/>
      <point x="-27.533333333333335" y="622.0" type="line"/>
      <point x="4.266666666666667" y="570.0" type="line"/>
      <point x="189.16666666666666" y="570.0" type="line"/>
      <point x="203.6" y="535.0"/>
      <point x="211.5" y="496.73333333333335"/>
      <point x="211.5" y="456.0" type="curve" smooth="yes"/>
      <point x="211.5" y="358.2"/>
      <point x="164.96666666666667" y="278.5"/>
      <point x="29.666666666666668" y="246.5" type="curve"/>
      <point x="54.16666666666667" y="79.7"/>
      <point x="134.3" y="5.0"/>
    </contour>
    <contour>
      <point x="235.76666666666668" y="66.63333333333334" type="curve" smooth="yes"/>
      <point x="167.66666666666666" y="66.63333333333334"/>
      <point x="118.53333333333333" y="120.7"/>
      <point x="117.8" y="203.33333333333334" type="curve"/>
      <point x="104.63333333333334" y="172.33333333333334" type="line"/>
      <point x="219.86666666666667" y="205.33333333333334"/>
      <point x="266.93333333333334" y="290.1666666666667"/>
      <point x="266.93333333333334" y="389.3333333333333" type="curve" smooth="yes"/>
      <point x="266.93333333333334" y="470.8"/>
      <point x="245.86666666666667" y="528.0"/>
      <point x="222.23333333333335" y="585.0" type="curve"/>
      <point x="213.7" y="585.0" type="line"/>
      <point x="314.4" y="450.6666666666667"/>
      <point x="356.3666666666667" y="349.2"/>
      <point x="356.3666666666667" y="232.4" type="curve" smooth="yes"/>
      <point x="356.3666666666667" y="129.5"/>
      <point x="311.03333333333336" y="66.63333333333334"/>
    </contour>
  </outline>
</glyph>
<glyph name="dda-beng" format="2">
  <advance width="552.3666666666667"/>
  <unicode hex="09A1"/>
  <anchor x="382.8333333333333" y="34.0" name="bottom"/>
  <anchor x="463.1333333333333" y="-6.0" name="bottom.rakaar"/>
  <anchor x="386.4666666666667" y="47.0" name="bottom.rvocalic"/>
  <anchor x="343.9666666666667" y="14.0" name="bottom.virama"/>
  <anchor x="297.3333333333333" y="-62.0" name="nukta"/>
  <anchor x="262.0" y="570.0" name="top"/>
  <anchor x="264.6333333333333" y="570.0" name="topright"/>
  <anchor x="276.0" y="0.0" name="vedic"/>
  <outline>
    <contour>
      <point x="326.6666666666667" y="50.0" type="curve" smooth="yes"/>
      <point x="451.5" y="50.0"/>
      <point x="517.1666666666666" y="141.36666666666667"/>
      <point x="517.1666666666666" y="262.0" type="curve" smooth="yes"/>
      <point x="517.1666666666666" y="358.6333333333333"/>
      <point x="483.1666666666667" y="425.26666666666665"/>
      <point x="429.93333333333334" y="474.06666666666666" type="curve"/>
      <point x="396.43333333333334" y="410.6"/>
      <point x="343.8333333333333" y="353.6333333333333"/>
      <point x="294.0" y="353.6333333333333" type="curve" smooth="yes"/>
      <point x="275.93333333333334" y="353.6333333333333"/>
      <point x="265.6666666666667" y="363.6333333333333"/>
      <point x="265.6666666666667" y="381.6333333333333" type="curve" smooth="yes"/>
      <point x="265.6666666666667" y="570.0" type="line"/>
      <point x="579.9" y="570.0" type="line"/>
      <point x="547.7333333333333" y="622.0" type="line"/>
      <point x="-27.533333333333335" y="622.0" type="line"/>
      <point x="4.266666666666667" y="570.0" type="line"/>
      <point x="212.76666666666668" y="570.0" type="line"/>
      <point x="212.76666666666668" y="382.8" type="line" smooth="yes"/>
      <point x="212.76666666666668" y="349.9"/>
      <point x="221.66666666666666" y="324.6333333333333"/>
      <point x="242.56666666666666" y="305.0" type="curve" smooth="yes"/>
      <point x="260.2" y="288.0"/>
      <point x="284.6333333333333" y="276.8333333333333"/>
      <point x="312.7" y="276.8333333333333" type="curve" smooth="yes"/>
      <point x="368.6666666666667" y="276.8333333333333"/>
      <point x="429.8" y="323.46666666666664"/>
      <point x="469.4" y="390.46666666666664" type="curve"/>
      <point x="431.3" y="377.5" type="line"/>
      <point x="455.0" y="359.5"/>
      <point x="468.0" y="333.1333333333333"/>
      <point x="468.0" y="282.53333333333336" type="curve" smooth="yes"/>
      <point x="468.0" y="196.53333333333333"/>
      <point x="414.76666666666665" y="138.8"/>
      <point x="327.3" y="138.8" type="curve" smooth="yes"/>
      <point x="188.3" y="138.8"/>
      <point x="116.2" y="246.26666666666668"/>
      <point x="60.93333333333334" y="489.1666666666667" type="curve"/>
      <point x="20.4" y="480.0" type="line"/>
      <point x="74.66666666666667" y="182.96666666666667"/>
      <point x="175.3" y="50.0"/>
    </contour>
  </outline>
</glyph>
<glyph name="ddha-beng" format="2">
  <advance width="457.56666666666666"/>
  <unicode hex="09A2"/>
  <anchor x="299.4666666666667" y="30.0" name="bottom"/>
  <anchor x="348.0" y="3.166666666666667" name="bottom.rakaar"/>
  <anchor x="299.4" y="33.6" name="bottom.rvocalic"/>
  <anchor x="231.83333333333334" y="39.166666666666664" name="bottom.virama"/>
  <anchor x="201.96666666666667" y="-72.0" name="nukta"/>
  <anchor x="128.13333333333333" y="570.0" name="top"/>
  <anchor x="130.4" y="570.0" name="topright"/>
  <anchor x="228.46666666666667" y="0.0" name="vedic"/>
  <outline>
    <contour>
      <point x="193.16666666666666" y="34.166666666666664" type="curve" smooth="yes"/>
      <point x="314.0" y="34.166666666666664"/>
      <point x="417.6" y="209.0"/>
      <point x="417.6" y="332.0" type="curve" smooth="yes"/>
      <point x="417.6" y="422.26666666666665"/>
      <point x="372.26666666666665" y="457.0"/>
      <point x="320.03333333333336" y="457.0" type="curve" smooth="yes"/>
      <point x="264.3333333333333" y="457.0"/>
      <point x="234.8" y="416.3666666666667"/>
      <point x="234.8" y="372.3666666666667" type="curve" smooth="yes"/>
      <point x="234.8" y="324.56666666666666"/>
      <point x="264.06666666666666" y="290.8333333333333"/>
      <point x="313.5" y="290.8333333333333" type="curve" smooth="yes"/>
      <point x="341.0" y="290.8333333333333"/>
      <point x="353.2" y="303.46666666666664"/>
      <point x="364.4666666666667" y="318.8333333333333" type="curve"/>
      <point x="339.73333333333335" y="346.0" type="line"/>
      <point x="335.1" y="232.76666666666668"/>
      <point x="258.3333333333333" y="98.7"/>
      <point x="181.96666666666667" y="98.7" type="curve" smooth="yes"/>
      <point x="147.73333333333335" y="98.7"/>
      <point x="128.13333333333333" y="118.5"/>
      <point x="128.13333333333333" y="156.13333333333333" type="curve" smooth="yes"/>
      <point x="128.13333333333333" y="570.0" type="line"/>
      <point x="485.1" y="570.0" type="line"/>
      <point x="453.3" y="622.0" type="line"/>
      <point x="-27.533333333333335" y="622.0" type="line"/>
      <point x="5.9" y="570.0" type="line"/>
      <point x="75.23333333333333" y="570.0" type="line"/>
      <point x="75.23333333333333" y="154.13333333333333" type="line" smooth="yes"/>
      <point x="75.23333333333333" y="80.13333333333334"/>
      <point x="126.66666666666667" y="34.166666666666664"/>
    </contour>
  </outline>
</glyph>
<glyph name="nna-beng" format="2">
  <advance width="516.0666666666667"/>
  <unicode hex="09A3"/>
  <anchor x="430.2" y="52.666666666666664" name="bottom"/>
  <anchor x="440.8333333333333" y="-3.0" name="bottom.rakaar"/>
  <anchor x="440.8333333333333" y="-2.0" name="bottom.rvocalic"/>
  <anchor x="421.2" y="6.0" name="bottom.virama"/>
  <anchor x="436.8" y="560.0" name="top"/>
  <anchor x="412.3" y="552.0" name="topright"/>
  <anchor x="257.53333333333336" y="0.0" name="vedic"/>
  <outline>
    <contour>
      <point x="437.4666666666667" y="-25.0" type="line"/>
      <point x="440.8333333333333" y="-24.0" type="line"/>
      <point x="440.8333333333333" y="570.0" type="line"/>
      <point x="543.6" y="570.0" type="line"/>
      <point x="511.1666666666667" y="622.0" type="line"/>
      <point x="439.73333333333335" y="622.0" type="line"/>
      <point x="435.3666666666667" y="665.0" type="line"/>
      <point x="391.93333333333334" y="698.0" type="line"/>
      <point x="387.93333333333334" y="697.0" type="line"/>
      <point x="387.93333333333334" y="545.5" type="line" smooth="yes"/>
      <point x="387.93333333333334" y="494.56666666666666"/>
      <point x="390.56666666666666" y="444.43333333333334"/>
      <point x="393.6666666666667" y="403.73333333333335" type="curve"/>
      <point x="398.1333333333333" y="412.53333333333336" type="line"/>
      <point x="317.3666666666667" y="581.5333333333333"/>
      <point x="255.26666666666668" y="627.0"/>
      <point x="180.5" y="627.0" type="curve" smooth="yes"/>
      <point x="94.73333333333333" y="627.0"/>
      <point x="34.86666666666667" y="557.2"/>
      <point x="34.86666666666667" y="455.46666666666664" type="curve" smooth="yes"/>
      <point x="34.86666666666667" y="338.1"/>
      <point x="106.86666666666667" y="276.0"/>
      <point x="183.53333333333333" y="276.0" type="curve" smooth="yes"/>
      <point x="239.33333333333334" y="276.0"/>
      <point x="271.5" y="310.0"/>
      <point x="271.5" y="359.0" type="curve" smooth="yes"/>
      <point x="271.5" y="405.0"/>
      <point x="242.6" y="438.0"/>
      <point x="196.9" y="438.0" type="curve" smooth="yes"/>
      <point x="157.36666666666667" y="438.0"/>
      <point x="128.56666666666666" y="408.3666666666667"/>
      <point x="128.56666666666666" y="366.3666666666667" type="curve" smooth="yes"/>
      <point x="128.56666666666666" y="353.0"/>
      <point x="132.56666666666666" y="336.0"/>
      <point x="138.2" y="326.3666666666667" type="curve"/>
      <point x="177.26666666666668" y="354.0" type="line"/>
      <point x="167.63333333333333" y="352.0"/>
      <point x="157.73333333333335" y="351.0"/>
      <point x="148.46666666666667" y="351.0" type="curve" smooth="yes"/>
      <point x="113.13333333333334" y="351.0"/>
      <point x="88.13333333333334" y="384.1"/>
      <point x="88.13333333333334" y="434.56666666666666" type="curve" smooth="yes"/>
      <point x="88.13333333333334" y="499.46666666666664"/>
      <point x="132.8" y="537.2"/>
      <point x="193.13333333333333" y="537.2" type="curve" smooth="yes"/>
      <point x="268.3333333333333" y="537.2"/>
      <point x="320.7" y="496.6333333333333"/>
      <point x="395.8333333333333" y="336.8" type="curve"/>
      <point x="387.93333333333334" y="389.3666666666667" type="line"/>
      <point x="387.93333333333334" y="3.0" type="line"/>
    </contour>
  </outline>
</glyph>
<glyph name="ta-beng" format="2">
  <advance width="560.9333333333334"/>
  <unicode hex="09A4"/>
  <anchor x="391.5" y="41.0" name="bottom"/>
  <anchor x="469.23333333333335" y="1.0" name="bottom.rakaar"/>
  <anchor x="402.03333333333336" y="55.0" name="bottom.rvocalic"/>
  <anchor x="350.06666666666666" y="21.0" name="bottom.virama"/>
  <anchor x="335.2" y="570.0" name="top"/>
  <anchor x="337.8333333333333" y="570.0" name="topright"/>
  <anchor x="280.4666666666667" y="0.0" name="vedic"/>
  <outline>
    <contour>
      <point x="334.6" y="57.0" type="curve" smooth="yes"/>
      <point x="444.06666666666666" y="57.0"/>
      <point x="520.6666666666666" y="126.46666666666667"/>
      <point x="520.6666666666666" y="268.56666666666666" type="curve" smooth="yes"/>
      <point x="520.6666666666666" y="400.43333333333334"/>
      <point x="449.7" y="508.0"/>
      <point x="316.8333333333333" y="508.0" type="curve" smooth="yes"/>
      <point x="241.96666666666667" y="508.0"/>
      <point x="196.8" y="462.1"/>
      <point x="196.8" y="394.0" type="curve" smooth="yes"/>
      <point x="196.8" y="337.46666666666664"/>
      <point x="230.06666666666666" y="290.6666666666667"/>
      <point x="292.93333333333334" y="290.6666666666667" type="curve" smooth="yes"/>
      <point x="347.26666666666665" y="290.6666666666667"/>
      <point x="379.43333333333334" y="330.6666666666667"/>
      <point x="379.43333333333334" y="383.0" type="curve" smooth="yes"/>
      <point x="379.43333333333334" y="418.6333333333333"/>
      <point x="365.43333333333334" y="448.0"/>
      <point x="351.53333333333336" y="463.0" type="curve"/>
      <point x="324.1666666666667" y="420.0" type="line"/>
      <point x="335.06666666666666" y="424.0"/>
      <point x="349.9666666666667" y="426.0"/>
      <point x="365.6" y="426.0" type="curve" smooth="yes"/>
      <point x="415.1333333333333" y="426.0"/>
      <point x="469.1333333333333" y="385.73333333333335"/>
      <point x="469.1333333333333" y="288.8333333333333" type="curve" smooth="yes"/>
      <point x="469.1333333333333" y="188.8"/>
      <point x="412.9666666666667" y="146.43333333333334"/>
      <point x="334.4" y="146.43333333333334" type="curve" smooth="yes"/>
      <point x="208.86666666666667" y="146.43333333333334"/>
      <point x="123.33333333333333" y="238.6"/>
      <point x="53.96666666666667" y="503.1666666666667" type="curve"/>
      <point x="14.066666666666666" y="492.0" type="line"/>
      <point x="82.43333333333334" y="182.33333333333334"/>
      <point x="180.26666666666668" y="57.0"/>
    </contour>
    <contour>
      <point x="3.2666666666666666" y="570.0" type="line"/>
      <point x="588.4666666666667" y="570.0" type="line"/>
      <point x="556.6666666666666" y="622.0" type="line"/>
      <point x="-27.533333333333335" y="622.0" type="line"/>
    </contour>
  </outline>
</glyph>
<glyph name="tha-beng" format="2">
  <advance width="505.9666666666667"/>
  <unicode hex="09A5"/>
  <anchor x="425.73333333333335" y="30.0" name="bottom"/>
  <anchor x="430.73333333333335" y="70.0" name="bottom.rakaar"/>
  <anchor x="430.73333333333335" y="12.0" name="bottom.rvocalic"/>
  <anchor x="412.93333333333334" y="6.0" name="bottom.virama"/>
  <anchor x="426.7" y="560.0" name="top"/>
  <anchor x="402.2" y="552.0" name="topright"/>
  <anchor x="252.8" y="0.0" name="vedic"/>
  <outline>
    <contour>
      <point x="425.73333333333335" y="-13.0" type="line"/>
      <point x="430.73333333333335" y="-12.0" type="line"/>
      <point x="430.73333333333335" y="570.0" type="line"/>
      <point x="533.5" y="570.0" type="line"/>
      <point x="501.06666666666666" y="622.0" type="line"/>
      <point x="429.6333333333333" y="622.0" type="line"/>
      <point x="425.26666666666665" y="665.0" type="line"/>
      <point x="381.8333333333333" y="698.0" type="line"/>
      <point x="377.8333333333333" y="697.0" type="line"/>
      <point x="377.8333333333333" y="74.66666666666667" type="line"/>
      <point x="385.93333333333334" y="87.0" type="line"/>
      <point x="339.26666666666665" y="191.2"/>
      <point x="253.16666666666666" y="264.6333333333333"/>
      <point x="150.13333333333333" y="300.7" type="curve"/>
      <point x="158.83333333333334" y="275.56666666666666" type="line"/>
      <point x="252.83333333333334" y="294.93333333333334"/>
      <point x="310.4" y="344.3"/>
      <point x="310.4" y="449.0" type="curve" smooth="yes"/>
      <point x="310.4" y="559.7666666666667"/>
      <point x="241.0" y="625.0"/>
      <point x="150.7" y="625.0" type="curve" smooth="yes"/>
      <point x="73.43333333333334" y="625.0"/>
      <point x="22.8" y="575.5333333333333"/>
      <point x="22.8" y="513.4333333333333" type="curve" smooth="yes"/>
      <point x="22.8" y="456.73333333333335"/>
      <point x="57.5" y="426.73333333333335"/>
      <point x="99.3" y="426.73333333333335" type="curve" smooth="yes"/>
      <point x="141.63333333333333" y="426.73333333333335"/>
      <point x="165.16666666666666" y="453.0"/>
      <point x="165.16666666666666" y="491.26666666666665" type="curve" smooth="yes"/>
      <point x="165.16666666666666" y="519.2666666666667"/>
      <point x="153.16666666666666" y="540.5333333333333"/>
      <point x="129.63333333333333" y="551.9666666666667" type="curve"/>
      <point x="127.83333333333333" y="528.0" type="line"/>
      <point x="138.9" y="548.0"/>
      <point x="158.6" y="559.4666666666667"/>
      <point x="182.66666666666666" y="559.4666666666667" type="curve" smooth="yes"/>
      <point x="225.9" y="559.4666666666667"/>
      <point x="257.23333333333335" y="525.0"/>
      <point x="257.23333333333335" y="467.8" type="curve" smooth="yes"/>
      <point x="257.23333333333335" y="370.73333333333335"/>
      <point x="147.4" y="342.2"/>
      <point x="57.333333333333336" y="344.1666666666667" type="curve"/>
      <point x="94.76666666666667" y="234.0" type="line"/>
      <point x="224.9" y="217.0"/>
      <point x="317.3666666666667" y="143.63333333333333"/>
      <point x="381.3" y="24.0" type="curve"/>
    </contour>
  </outline>
</glyph>
<glyph name="da-beng" format="2">
  <advance width="469.56666666666666"/>
  <unicode hex="09A6"/>
  <anchor x="388.43333333333334" y="87.0" name="bottom"/>
  <anchor x="400.7" y="70.0" name="bottom.rakaar"/>
  <anchor x="398.43333333333334" y="14.0" name="bottom.rvocalic"/>
  <anchor x="382.0" y="0.0" name="bottom.virama"/>
  <anchor x="114.3" y="570.0" name="top"/>
  <anchor x="116.93333333333334" y="570.0" name="topright"/>
  <anchor x="234.46666666666667" y="0.0" name="vedic"/>
  <outline>
    <contour>
      <point x="359.8" y="-11.8" type="curve"/>
      <point x="398.43333333333334" y="4.0" type="line"/>
      <point x="378.26666666666665" y="64.0"/>
      <point x="366.73333333333335" y="122.1"/>
      <point x="366.73333333333335" y="182.1" type="curve" smooth="yes"/>
      <point x="366.73333333333335" y="263.73333333333335"/>
      <point x="387.1666666666667" y="344.0"/>
      <point x="429.5" y="418.0" type="curve"/>
      <point x="346.26666666666665" y="494.7" type="line"/>
      <point x="248.83333333333334" y="433.7"/>
      <point x="157.73333333333335" y="348.9"/>
      <point x="97.7" y="277.53333333333336" type="curve"/>
      <point x="117.96666666666667" y="261.0" type="line"/>
      <point x="117.96666666666667" y="570.0" type="line"/>
      <point x="497.1" y="570.0" type="line"/>
      <point x="465.3" y="622.0" type="line"/>
      <point x="-27.533333333333335" y="622.0" type="line"/>
      <point x="4.266666666666667" y="570.0" type="line"/>
      <point x="65.06666666666666" y="570.0" type="line"/>
      <point x="65.06666666666666" y="206.2" type="line"/>
      <point x="114.06666666666666" y="174.3" type="line"/>
      <point x="197.8" y="269.46666666666664"/>
      <point x="276.26666666666665" y="348.0"/>
      <point x="365.8" y="408.6333333333333" type="curve"/>
      <point x="349.26666666666665" y="417.0" type="line"/>
      <point x="323.4666666666667" y="355.0"/>
      <point x="310.56666666666666" y="287.1"/>
      <point x="310.56666666666666" y="219.0" type="curve" smooth="yes"/>
      <point x="310.56666666666666" y="141.0"/>
      <point x="328.4666666666667" y="64.36666666666666"/>
    </contour>
  </outline>
</glyph>
<glyph name="dha-beng" format="2">
  <advance width="472.0"/>
  <unicode hex="09A7"/>
  <anchor x="392.1333333333333" y="30.0" name="bottom"/>
  <anchor x="394.56666666666666" y="70.0" name="bottom.rakaar"/>
  <anchor x="396.76666666666665" y="10.533333333333333" name="bottom.rvocalic"/>
  <anchor x="380.8" y="6.0" name="bottom.virama"/>
  <anchor x="393.1" y="570.0" name="top"/>
  <anchor x="395.73333333333335" y="570.0" name="topright"/>
  <anchor x="236.0" y="0.0" name="vedic"/>
  <outline>
    <contour>
      <point x="391.4" y="-13.0" type="line"/>
      <point x="396.76666666666665" y="-12.0" type="line"/>
      <point x="396.76666666666665" y="570.0" type="line"/>
      <point x="499.53333333333336" y="570.0" type="line"/>
      <point x="467.73333333333335" y="622.0" type="line"/>
      <point x="343.8666666666667" y="622.0" type="line"/>
      <point x="343.8666666666667" y="493.03333333333336" type="line"/>
      <point x="349.8666666666667" y="513.0333333333333" type="line"/>
      <point x="229.8" y="466.03333333333336"/>
      <point x="133.76666666666668" y="413.8333333333333"/>
      <point x="24.5" y="336.3" type="curve"/>
      <point x="70.26666666666667" y="225.5" type="line"/>
      <point x="186.83333333333334" y="199.83333333333334"/>
      <point x="285.6" y="135.9"/>
      <point x="348.06666666666666" y="21.433333333333334" type="curve"/>
    </contour>
    <contour>
      <point x="343.8666666666667" y="73.56666666666666" type="line"/>
      <point x="353.06666666666666" y="82.23333333333333" type="line"/>
      <point x="294.1" y="209.23333333333332"/>
      <point x="185.46666666666667" y="271.6666666666667"/>
      <point x="92.86666666666667" y="302.3" type="curve"/>
      <point x="102.66666666666667" y="280.96666666666664" type="line"/>
      <point x="176.23333333333335" y="340.96666666666664"/>
      <point x="269.6" y="387.4"/>
      <point x="354.4" y="421.6666666666667" type="curve"/>
      <point x="343.8666666666667" y="439.96666666666664" type="line"/>
    </contour>
    <contour>
      <point x="181.5" y="405.73333333333335" type="curve"/>
      <point x="202.13333333333333" y="437.73333333333335" type="line"/>
      <point x="151.96666666666667" y="443.0"/>
      <point x="121.53333333333333" y="473.3666666666667"/>
      <point x="121.53333333333333" y="507.0" type="curve" smooth="yes"/>
      <point x="121.53333333333333" y="541.0"/>
      <point x="142.7" y="558.7333333333333"/>
      <point x="169.76666666666668" y="558.7333333333333" type="curve" smooth="yes"/>
      <point x="177.03333333333333" y="558.7333333333333"/>
      <point x="184.93333333333334" y="557.7333333333333"/>
      <point x="193.2" y="554.7333333333333" type="curve"/>
      <point x="161.66666666666666" y="590.0" type="line"/>
      <point x="154.4" y="579.0"/>
      <point x="151.76666666666668" y="564.6333333333333"/>
      <point x="151.76666666666668" y="553.0" type="curve" smooth="yes"/>
      <point x="151.76666666666668" y="517.0"/>
      <point x="176.56666666666666" y="498.3666666666667"/>
      <point x="204.46666666666667" y="498.3666666666667" type="curve" smooth="yes"/>
      <point x="235.9" y="498.3666666666667"/>
      <point x="260.43333333333334" y="521.0"/>
      <point x="260.43333333333334" y="557.0" type="curve" smooth="yes"/>
      <point x="260.43333333333334" y="598.0"/>
      <point x="232.26666666666668" y="631.0"/>
      <point x="174.66666666666666" y="631.0" type="curve" smooth="yes"/>
      <point x="106.9" y="631.0"/>
      <point x="60.46666666666667" y="587.0"/>
      <point x="60.46666666666667" y="523.0" type="curve" smooth="yes"/>
      <point x="60.46666666666667" y="446.73333333333335"/>
      <point x="133.23333333333335" y="405.73333333333335"/>
    </contour>
  </outline>
</glyph>
<glyph name="na-beng" format="2">
  <advance width="477.06666666666666"/>
  <unicode hex="09A8"/>
  <anchor x="391.8333333333333" y="71.0" name="bottom"/>
  <anchor x="401.8333333333333" y="70.0" name="bottom.rakaar"/>
  <anchor x="401.8333333333333" y="11.0" name="bottom.rvocalic"/>
  <anchor x="384.03333333333336" y="6.0" name="bottom.virama"/>
  <anchor x="398.1666666666667" y="570.0" name="top"/>
  <anchor x="400.8" y="570.0" name="topright"/>
  <anchor x="238.53333333333333" y="0.0" name="vedic"/>
  <outline>
    <contour>
      <point x="396.8333333333333" y="-13.0" type="line"/>
      <point x="401.8333333333333" y="-12.0" type="line"/>
      <point x="401.8333333333333" y="570.0" type="line"/>
      <point x="504.6" y="570.0" type="line"/>
      <point x="472.8" y="622.0" type="line"/>
      <point x="-27.533333333333335" y="622.0" type="line"/>
      <point x="4.266666666666667" y="570.0" type="line"/>
      <point x="348.93333333333334" y="570.0" type="line"/>
      <point x="348.93333333333334" y="325.0" type="line" smooth="yes"/>
      <point x="348.93333333333334" y="262.56666666666666"/>
      <point x="355.3" y="194.1"/>
      <point x="357.6666666666667" y="159.1" type="curve"/>
      <point x="364.56666666666666" y="148.1" type="line"/>
      <point x="353.4666666666667" y="286.1"/>
      <point x="273.73333333333335" y="421.0"/>
      <point x="144.23333333333335" y="421.0" type="curve" smooth="yes"/>
      <point x="77.1" y="421.0"/>
      <point x="30.3" y="379.0"/>
      <point x="30.3" y="312.0" type="curve" smooth="yes"/>
      <point x="30.3" y="253.46666666666667"/>
      <point x="62.2" y="206.46666666666667"/>
      <point x="126.96666666666667" y="206.46666666666667" type="curve" smooth="yes"/>
      <point x="181.93333333333334" y="206.46666666666667"/>
      <point x="211.36666666666667" y="242.83333333333334"/>
      <point x="211.36666666666667" y="293.0" type="curve" smooth="yes"/>
      <point x="211.36666666666667" y="314.0"/>
      <point x="205.36666666666667" y="341.0"/>
      <point x="189.1" y="353.0" type="curve"/>
      <point x="166.56666666666666" y="322.0" type="line"/>
      <point x="174.83333333333334" y="327.0"/>
      <point x="187.46666666666667" y="329.0"/>
      <point x="199.73333333333335" y="329.0" type="curve" smooth="yes"/>
      <point x="290.1" y="329.0"/>
      <point x="350.6666666666667" y="154.63333333333333"/>
      <point x="356.4" y="20.633333333333333" type="curve"/>
    </contour>
  </outline>
</glyph>
<glyph name="pa-beng" format="2">
  <advance width="578.5666666666667"/>
  <unicode hex="09AA"/>
  <anchor x="492.7" y="52.666666666666664" name="bottom"/>
  <anchor x="503.3333333333333" y="-3.0" name="bottom.rakaar"/>
  <anchor x="503.3333333333333" y="-2.0" name="bottom.rvocalic"/>
  <anchor x="483.7" y="6.0" name="bottom.virama"/>
  <anchor x="499.3" y="560.0" name="top"/>
  <anchor x="474.8" y="552.0" name="topright"/>
  <anchor x="288.9666666666667" y="0.0" name="vedic"/>
  <outline>
    <contour>
      <point x="499.9666666666667" y="-25.0" type="line"/>
      <point x="503.3333333333333" y="-24.0" type="line"/>
      <point x="503.3333333333333" y="570.0" type="line"/>
      <point x="606.1" y="570.0" type="line"/>
      <point x="573.6666666666666" y="622.0" type="line"/>
      <point x="502.23333333333335" y="622.0" type="line"/>
      <point x="497.8666666666667" y="665.0" type="line"/>
      <point x="454.43333333333334" y="698.0" type="line"/>
      <point x="450.43333333333334" y="697.0" type="line"/>
      <point x="450.43333333333334" y="537.3333333333334" type="line" smooth="yes"/>
      <point x="450.43333333333334" y="484.5"/>
      <point x="452.43333333333334" y="449.56666666666666"/>
      <point x="456.1666666666667" y="393.6666666666667" type="curve"/>
      <point x="460.26666666666665" y="404.2" type="line"/>
      <point x="398.6666666666667" y="537.8666666666667"/>
      <point x="326.8" y="626.6333333333333"/>
      <point x="227.7" y="626.6333333333333" type="curve" smooth="yes"/>
      <point x="138.7" y="626.6333333333333"/>
      <point x="64.66666666666667" y="549.0666666666667"/>
      <point x="11.7" y="442.56666666666666" type="curve"/>
      <point x="78.76666666666667" y="377.1666666666667" type="line"/>
      <point x="95.56666666666666" y="391.26666666666665"/>
      <point x="113.3" y="401.53333333333336"/>
      <point x="139.53333333333333" y="401.53333333333336" type="curve" smooth="yes"/>
      <point x="166.63333333333333" y="401.53333333333336"/>
      <point x="188.6" y="383.7"/>
      <point x="188.6" y="349.6333333333333" type="curve" smooth="yes"/>
      <point x="188.6" y="313.23333333333335"/>
      <point x="169.0" y="283.8666666666667"/>
      <point x="139.76666666666668" y="258.43333333333334" type="curve"/>
      <point x="198.66666666666666" y="201.3" type="line"/>
      <point x="409.76666666666665" y="434.3" type="line"/>
      <point x="364.26666666666665" y="502.8666666666667" type="line"/>
      <point x="202.76666666666668" y="318.56666666666666" type="line"/>
      <point x="211.96666666666667" y="295.76666666666665" type="line"/>
      <point x="222.5" y="318.56666666666666"/>
      <point x="227.5" y="340.56666666666666"/>
      <point x="227.5" y="360.56666666666666" type="curve" smooth="yes"/>
      <point x="227.5" y="415.96666666666664"/>
      <point x="197.9" y="457.3333333333333"/>
      <point x="145.36666666666667" y="457.3333333333333" type="curve" smooth="yes"/>
      <point x="119.93333333333334" y="457.3333333333333"/>
      <point x="97.3" y="449.06666666666666"/>
      <point x="80.76666666666667" y="438.7" type="curve"/>
      <point x="104.03333333333333" y="425.7" type="line"/>
      <point x="138.16666666666666" y="503.73333333333335"/>
      <point x="193.5" y="553.6666666666666"/>
      <point x="246.23333333333335" y="553.6666666666666" type="curve" smooth="yes"/>
      <point x="333.76666666666665" y="553.6666666666666"/>
      <point x="396.5" y="455.56666666666666"/>
      <point x="456.43333333333334" y="319.7" type="curve"/>
      <point x="450.43333333333334" y="378.6666666666667" type="line"/>
      <point x="450.43333333333334" y="3.0" type="line"/>
    </contour>
  </outline>
</glyph>
<glyph name="pha-beng" format="2">
  <advance width="633.1333333333333"/>
  <unicode hex="09AB"/>
  <anchor x="404.73333333333335" y="30.0" name="bottom"/>
  <anchor x="407.1666666666667" y="70.0" name="bottom.rakaar"/>
  <anchor x="409.3666666666667" y="10.533333333333333" name="bottom.rvocalic"/>
  <anchor x="393.4" y="6.0" name="bottom.virama"/>
  <anchor x="405.7" y="570.0" name="top"/>
  <anchor x="408.3333333333333" y="570.0" name="topright"/>
  <anchor x="316.06666666666666" y="0.0" name="vedic"/>
  <outline>
    <contour>
      <point x="404.0" y="-13.0" type="line"/>
      <point x="409.3666666666667" y="-12.0" type="line"/>
      <point x="409.3666666666667" y="473.1666666666667" type="line"/>
      <point x="381.9666666666667" y="433.56666666666666" type="line"/>
      <point x="398.76666666666665" y="435.56666666666666"/>
      <point x="415.3" y="436.56666666666666"/>
      <point x="429.8333333333333" y="436.56666666666666" type="curve" smooth="yes"/>
      <point x="529.8666666666667" y="436.56666666666666"/>
      <point x="576.7333333333333" y="387.23333333333335"/>
      <point x="576.7333333333333" y="322.7" type="curve" smooth="yes"/>
      <point x="576.7333333333333" y="306.96666666666664"/>
      <point x="573.1" y="296.5"/>
      <point x="565.2" y="284.8666666666667" type="curve"/>
      <point x="584.8333333333334" y="283.6666666666667" type="line"/>
      <point x="575.6666666666666" y="323.6666666666667"/>
      <point x="554.1333333333333" y="341.93333333333334"/>
      <point x="522.8666666666667" y="341.93333333333334" type="curve" smooth="yes"/>
      <point x="482.43333333333334" y="341.93333333333334"/>
      <point x="460.8" y="310.6666666666667"/>
      <point x="460.8" y="272.6666666666667" type="curve" smooth="yes"/>
      <point x="460.8" y="237.66666666666666"/>
      <point x="482.06666666666666" y="199.66666666666666"/>
      <point x="532.7666666666667" y="199.66666666666666" type="curve" smooth="yes"/>
      <point x="589.1" y="199.66666666666666"/>
      <point x="618.0" y="252.3"/>
      <point x="618.0" y="322.93333333333334" type="curve" smooth="yes"/>
      <point x="618.0" y="450.93333333333334"/>
      <point x="517.3" y="521.0"/>
      <point x="401.6333333333333" y="521.0" type="curve" smooth="yes"/>
      <point x="383.3666666666667" y="521.0"/>
      <point x="371.73333333333335" y="520.0"/>
      <point x="356.4666666666667" y="517.0" type="curve"/>
      <point x="356.4666666666667" y="73.56666666666666" type="line"/>
      <point x="365.6666666666667" y="82.23333333333333" type="line"/>
      <point x="307.3333333333333" y="214.3"/>
      <point x="199.6" y="264.2"/>
      <point x="105.1" y="291.8" type="curve"/>
      <point x="114.53333333333333" y="269.73333333333335" type="line"/>
      <point x="157.6" y="304.73333333333335"/>
      <point x="231.96666666666667" y="347.73333333333335"/>
      <point x="286.6666666666667" y="378.2" type="curve"/>
      <point x="243.6" y="466.46666666666664"/>
      <point x="175.96666666666667" y="537.0"/>
      <point x="67.53333333333333" y="582.0" type="curve"/>
      <point x="70.06666666666666" y="570.0" type="line"/>
      <point x="660.6666666666666" y="570.0" type="line"/>
      <point x="629.2333333333333" y="622.0" type="line"/>
      <point x="-27.533333333333335" y="622.0" type="line"/>
      <point x="44.5" y="500.3" type="line"/>
      <point x="116.6" y="486.8333333333333"/>
      <point x="169.36666666666667" y="461.46666666666664"/>
      <point x="230.66666666666666" y="403.8333333333333" type="curve"/>
      <point x="224.93333333333334" y="441.8" type="line"/>
      <point x="167.1" y="412.8"/>
      <point x="89.76666666666667" y="363.43333333333334"/>
      <point x="37.1" y="325.43333333333334" type="curve"/>
      <point x="83.96666666666667" y="214.63333333333333" type="line"/>
      <point x="213.83333333333334" y="193.9"/>
      <point x="297.56666666666666" y="138.43333333333334"/>
      <point x="360.6666666666667" y="21.433333333333334" type="curve"/>
    </contour>
  </outline>
</glyph>
<glyph name="ba-beng" format="2">
  <advance width="468.8333333333333"/>
  <unicode hex="09AC"/>
  <anchor x="388.9666666666667" y="30.0" name="bottom"/>
  <anchor x="391.4" y="70.0" name="bottom.rakaar"/>
  <anchor x="393.6" y="8.0" name="bottom.rvocalic"/>
  <anchor x="377.6333333333333" y="6.0" name="bottom.virama"/>
  <anchor x="182.0" y="71.66666666666667" name="nukta"/>
  <anchor x="389.93333333333334" y="570.0" name="top"/>
  <anchor x="392.56666666666666" y="570.0" name="topright"/>
  <anchor x="234.1" y="0.0" name="vedic"/>
  <outline>
    <contour>
      <point x="388.23333333333335" y="-13.0" type="line"/>
      <point x="393.6" y="-12.0" type="line"/>
      <point x="393.6" y="570.0" type="line"/>
      <point x="496.3666666666667" y="570.0" type="line"/>
      <point x="464.56666666666666" y="622.0" type="line"/>
      <point x="-27.533333333333335" y="622.0" type="line"/>
      <point x="4.266666666666667" y="570.0" type="line"/>
      <point x="340.7" y="570.0" type="line"/>
      <point x="340.7" y="502.53333333333336" type="line"/>
      <point x="346.7" y="522.5333333333333" type="line"/>
      <point x="226.63333333333333" y="475.53333333333336"/>
      <point x="130.6" y="423.3333333333333"/>
      <point x="21.333333333333332" y="345.8" type="curve"/>
      <point x="67.1" y="235.0" type="line"/>
      <point x="191.26666666666668" y="211.86666666666667"/>
      <point x="282.43333333333334" y="140.33333333333334"/>
      <point x="344.9" y="21.433333333333334" type="curve"/>
    </contour>
    <contour>
      <point x="340.7" y="73.56666666666666" type="line"/>
      <point x="349.9" y="82.23333333333333" type="line"/>
      <point x="288.4" y="220.0"/>
      <point x="181.66666666666666" y="286.23333333333335"/>
      <point x="89.7" y="311.8" type="curve"/>
      <point x="99.5" y="291.1" type="line"/>
      <point x="173.06666666666666" y="351.1"/>
      <point x="266.43333333333334" y="397.53333333333336"/>
      <point x="351.23333333333335" y="431.8" type="curve"/>
      <point x="340.7" y="452.0" type="line"/>
    </contour>
  </outline>
</glyph>
<glyph name="bha-beng" format="2">
  <advance width="565.4666666666667"/>
  <unicode hex="09AD"/>
  <anchor x="399.6333333333333" y="54.0" name="bottom"/>
  <anchor x="472.1333333333333" y="14.0" name="bottom.rakaar"/>
  <anchor x="403.8333333333333" y="61.0" name="bottom.rvocalic"/>
  <anchor x="352.9666666666667" y="34.0" name="bottom.virama"/>
  <anchor x="306.73333333333335" y="570.0" name="top"/>
  <anchor x="309.3666666666667" y="570.0" name="topright"/>
  <anchor x="282.73333333333335" y="0.0" name="vedic"/>
  <outline>
    <contour>
      <point x="334.8666666666667" y="71.0" type="curve" smooth="yes"/>
      <point x="460.1333333333333" y="71.0"/>
      <point x="532.8" y="160.0"/>
      <point x="532.8" y="291.26666666666665" type="curve" smooth="yes"/>
      <point x="532.8" y="398.0"/>
      <point x="483.2" y="471.0"/>
      <point x="443.4" y="509.26666666666665" type="curve"/>
      <point x="376.3333333333333" y="408.43333333333334"/>
      <point x="329.73333333333335" y="377.06666666666666"/>
      <point x="284.2" y="371.06666666666666" type="curve"/>
      <point x="300.3" y="356.43333333333334" type="line"/>
      <point x="315.2" y="372.43333333333334"/>
      <point x="323.4666666666667" y="389.1666666666667"/>
      <point x="323.4666666666667" y="414.43333333333334" type="curve" smooth="yes"/>
      <point x="323.4666666666667" y="459.3333333333333"/>
      <point x="294.3" y="489.3333333333333"/>
      <point x="254.13333333333333" y="489.3333333333333" type="curve" smooth="yes"/>
      <point x="205.7" y="489.3333333333333"/>
      <point x="177.53333333333333" y="452.3333333333333"/>
      <point x="177.53333333333333" y="409.43333333333334" type="curve" smooth="yes"/>
      <point x="177.53333333333333" y="341.43333333333334"/>
      <point x="225.33333333333334" y="299.1666666666667"/>
      <point x="296.56666666666666" y="299.1666666666667" type="curve" smooth="yes"/>
      <point x="363.3" y="299.1666666666667"/>
      <point x="422.4666666666667" y="339.7"/>
      <point x="476.4" y="422.0" type="curve"/>
      <point x="448.93333333333334" y="417.43333333333334" type="line"/>
      <point x="471.3666666666667" y="386.43333333333334"/>
      <point x="483.6333333333333" y="354.6333333333333"/>
      <point x="483.6333333333333" y="306.0" type="curve" smooth="yes"/>
      <point x="483.6333333333333" y="223.0"/>
      <point x="426.3333333333333" y="160.16666666666666"/>
      <point x="332.5" y="160.16666666666666" type="curve" smooth="yes"/>
      <point x="220.3" y="160.16666666666666"/>
      <point x="122.5" y="242.0"/>
      <point x="60.03333333333333" y="505.53333333333336" type="curve"/>
      <point x="20.4" y="494.0" type="line"/>
      <point x="81.6" y="181.33333333333334"/>
      <point x="195.03333333333333" y="71.0"/>
    </contour>
    <contour>
      <point x="4.266666666666667" y="570.0" type="line"/>
      <point x="593.0" y="570.0" type="line"/>
      <point x="560.8333333333334" y="622.0" type="line"/>
      <point x="-27.533333333333335" y="622.0" type="line"/>
    </contour>
  </outline>
</glyph>
<glyph name="ma-beng" format="2">
  <advance width="500.73333333333335"/>
  <unicode hex="09AE"/>
  <anchor x="418.6666666666667" y="45.03333333333333" name="bottom"/>
  <anchor x="425.5" y="70.0" name="bottom.rakaar"/>
  <anchor x="425.5" y="11.633333333333333" name="bottom.rvocalic"/>
  <anchor x="407.7" y="6.0" name="bottom.virama"/>
  <anchor x="421.8333333333333" y="570.0" name="top"/>
  <anchor x="424.4666666666667" y="570.0" name="topright"/>
  <anchor x="250.36666666666667" y="0.0" name="vedic"/>
  <outline>
    <contour>
      <point x="420.5" y="-13.0" type="line"/>
      <point x="425.5" y="-12.0" type="line"/>
      <point x="425.5" y="570.0" type="line"/>
      <point x="528.2666666666667" y="570.0" type="line"/>
      <point x="496.4666666666667" y="622.0" type="line"/>
      <point x="-27.533333333333335" y="622.0" type="line"/>
      <point x="4.266666666666667" y="570.0" type="line"/>
      <point x="43.5" y="570.0" type="line"/>
      <point x="31.1" y="596.0" type="line"/>
      <point x="26.466666666666665" y="590.0"/>
      <point x="23.2" y="573.2666666666667"/>
      <point x="23.2" y="559.0" type="curve" smooth="yes"/>
      <point x="23.2" y="515.3666666666667"/>
      <point x="47.1" y="487.6333333333333"/>
      <point x="119.4" y="454.8" type="curve" smooth="yes"/>
      <point x="186.56666666666666" y="425.26666666666665"/>
      <point x="202.23333333333335" y="393.73333333333335"/>
      <point x="202.23333333333335" y="351.26666666666665" type="curve" smooth="yes"/>
      <point x="202.23333333333335" y="328.6333333333333"/>
      <point x="189.5" y="305.26666666666665"/>
      <point x="178.23333333333335" y="294.26666666666665" type="curve"/>
      <point x="246.83333333333334" y="320.26666666666665" type="line"/>
      <point x="227.03333333333333" y="332.26666666666665"/>
      <point x="206.33333333333334" y="340.26666666666665"/>
      <point x="177.9" y="340.26666666666665" type="curve" smooth="yes"/>
      <point x="113.76666666666667" y="340.26666666666665"/>
      <point x="79.23333333333333" y="303.1"/>
      <point x="79.23333333333333" y="246.46666666666667" type="curve" smooth="yes"/>
      <point x="79.23333333333333" y="189.1"/>
      <point x="117.93333333333334" y="154.46666666666667"/>
      <point x="167.63333333333333" y="154.46666666666667" type="curve" smooth="yes"/>
      <point x="225.5" y="154.46666666666667"/>
      <point x="251.93333333333334" y="192.73333333333332"/>
      <point x="267.4666666666667" y="239.73333333333332" type="curve"/>
      <point x="242.5" y="237.2" type="line"/>
      <point x="300.56666666666666" y="223.96666666666667"/>
      <point x="344.06666666666666" y="150.2"/>
      <point x="377.53333333333336" y="22.533333333333335" type="curve"/>
    </contour>
    <contour>
      <point x="379.8" y="89.3" type="curve"/>
      <point x="386.8" y="97.96666666666667" type="line"/>
      <point x="362.1" y="226.2"/>
      <point x="306.8666666666667" y="286.73333333333335"/>
      <point x="259.1" y="315.1666666666667" type="curve"/>
      <point x="270.8333333333333" y="272.53333333333336" type="line"/>
      <point x="276.4666666666667" y="294.1666666666667"/>
      <point x="277.4666666666667" y="311.8"/>
      <point x="277.4666666666667" y="329.53333333333336" type="curve" smooth="yes"/>
      <point x="277.4666666666667" y="400.0"/>
      <point x="241.2" y="433.1666666666667"/>
      <point x="179.8" y="470.46666666666664" type="curve" smooth="yes"/>
      <point x="136.13333333333333" y="497.26666666666665"/>
      <point x="116.36666666666666" y="526.4333333333333"/>
      <point x="116.36666666666666" y="567.0" type="curve" smooth="yes"/>
      <point x="116.36666666666666" y="573.0"/>
      <point x="117.73333333333333" y="580.0"/>
      <point x="120.46666666666667" y="587.0" type="curve"/>
      <point x="92.06666666666666" y="570.0" type="line"/>
      <point x="372.6" y="570.0" type="line"/>
      <point x="372.6" y="294.6" type="line" smooth="yes"/>
      <point x="372.6" y="243.56666666666666"/>
      <point x="374.9666666666667" y="153.26666666666665"/>
    </contour>
  </outline>
</glyph>
<glyph name="ya-beng" format="2">
  <advance width="484.6"/>
  <unicode hex="09AF"/>
  <anchor x="404.73333333333335" y="30.0" name="bottom"/>
  <anchor x="407.1666666666667" y="70.0" name="bottom.rakaar"/>
  <anchor x="409.3666666666667" y="10.533333333333333" name="bottom.rvocalic"/>
  <anchor x="393.4" y="6.0" name="bottom.virama"/>
  <anchor x="197.13333333333333" y="69.46666666666667" name="nukta"/>
  <anchor x="405.7" y="570.0" name="top"/>
  <anchor x="408.3333333333333" y="570.0" name="topright"/>
  <anchor x="241.8" y="0.0" name="vedic"/>
  <outline>
    <contour>
      <point x="404.0" y="-13.0" type="line"/>
      <point x="409.3666666666667" y="-12.0" type="line"/>
      <point x="409.3666666666667" y="570.0" type="line"/>
      <point x="512.1333333333333" y="570.0" type="line"/>
      <point x="480.3333333333333" y="622.0" type="line"/>
      <point x="-27.533333333333335" y="622.0" type="line"/>
      <point x="43.86666666666667" y="502.2" type="line"/>
      <point x="116.6" y="489.3666666666667"/>
      <point x="169.36666666666667" y="461.46666666666664"/>
      <point x="230.66666666666666" y="403.8333333333333" type="curve"/>
      <point x="224.93333333333334" y="441.8" type="line"/>
      <point x="167.1" y="412.8"/>
      <point x="89.76666666666667" y="363.43333333333334"/>
      <point x="37.1" y="325.43333333333334" type="curve"/>
      <point x="83.96666666666667" y="214.63333333333333" type="line"/>
      <point x="213.83333333333334" y="193.9"/>
      <point x="297.56666666666666" y="138.43333333333334"/>
      <point x="360.6666666666667" y="21.433333333333334" type="curve"/>
    </contour>
    <contour>
      <point x="356.4666666666667" y="73.56666666666666" type="line"/>
      <point x="365.6666666666667" y="82.23333333333333" type="line"/>
      <point x="307.3333333333333" y="214.3"/>
      <point x="199.6" y="264.2"/>
      <point x="105.1" y="291.8" type="curve"/>
      <point x="114.53333333333333" y="269.73333333333335" type="line"/>
      <point x="157.6" y="304.73333333333335"/>
      <point x="231.96666666666667" y="347.73333333333335"/>
      <point x="286.6666666666667" y="378.2" type="curve"/>
      <point x="243.6" y="466.46666666666664"/>
      <point x="175.96666666666667" y="537.0"/>
      <point x="67.53333333333333" y="582.0" type="curve"/>
      <point x="70.06666666666666" y="570.0" type="line"/>
      <point x="356.4666666666667" y="570.0" type="line"/>
    </contour>
  </outline>
</glyph>
<glyph name="la-beng" format="2">
  <advance width="565.6666666666666"/>
  <unicode hex="09B2"/>
  <anchor x="479.8" y="52.666666666666664" name="bottom"/>
  <anchor x="490.43333333333334" y="-3.0" name="bottom.rakaar"/>
  <anchor x="490.43333333333334" y="-2.0" name="bottom.rvocalic"/>
  <anchor x="470.8" y="6.0" name="bottom.virama"/>
  <anchor x="486.76666666666665" y="570.0" name="top"/>
  <anchor x="489.4" y="570.0" name="topright"/>
  <anchor x="282.3333333333333" y="0.0" name="vedic"/>
  <outline>
    <contour>
      <point x="487.06666666666666" y="-25.0" type="line"/>
      <point x="490.43333333333334" y="-24.0" type="line"/>
      <point x="490.43333333333334" y="570.0" type="line"/>
      <point x="593.2" y="570.0" type="line"/>
      <point x="560.7666666666667" y="622.0" type="line"/>
      <point x="-27.533333333333335" y="622.0" type="line"/>
      <point x="4.266666666666667" y="570.0" type="line"/>
      <point x="437.53333333333336" y="570.0" type="line"/>
      <point x="437.53333333333336" y="455.0" type="line" smooth="yes"/>
      <point x="437.53333333333336" y="412.0"/>
      <point x="439.9" y="370.0"/>
      <point x="443.26666666666665" y="323.0" type="curve"/>
      <point x="445.0" y="332.0" type="line"/>
      <point x="416.56666666666666" y="435.0"/>
      <point x="374.8666666666667" y="472.0"/>
      <point x="334.7" y="472.0" type="curve" smooth="yes"/>
      <point x="293.1" y="472.0"/>
      <point x="260.4" y="436.0"/>
      <point x="261.5" y="356.0" type="curve"/>
      <point x="274.4" y="363.0" type="line"/>
      <point x="253.43333333333334" y="422.0"/>
      <point x="213.9" y="474.0"/>
      <point x="144.13333333333333" y="474.0" type="curve" smooth="yes"/>
      <point x="71.26666666666667" y="474.0"/>
      <point x="15.866666666666667" y="412.46666666666664"/>
      <point x="15.866666666666667" y="311.8333333333333" type="curve" smooth="yes"/>
      <point x="15.866666666666667" y="189.83333333333334"/>
      <point x="89.56666666666666" y="124.0"/>
      <point x="165.36666666666667" y="124.0" type="curve" smooth="yes"/>
      <point x="217.7" y="124.0"/>
      <point x="250.86666666666667" y="154.0"/>
      <point x="250.86666666666667" y="205.0" type="curve" smooth="yes"/>
      <point x="250.86666666666667" y="252.26666666666668"/>
      <point x="221.43333333333334" y="282.6333333333333"/>
      <point x="178.0" y="282.6333333333333" type="curve" smooth="yes"/>
      <point x="140.83333333333334" y="282.6333333333333"/>
      <point x="111.66666666666667" y="256.6333333333333"/>
      <point x="111.66666666666667" y="215.0" type="curve" smooth="yes"/>
      <point x="111.66666666666667" y="193.73333333333332"/>
      <point x="116.56666666666666" y="175.0"/>
      <point x="132.0" y="160.1" type="curve"/>
      <point x="155.33333333333334" y="200.63333333333333" type="line"/>
      <point x="146.06666666666666" y="197.63333333333333"/>
      <point x="136.8" y="196.63333333333333"/>
      <point x="127.9" y="196.63333333333333" type="curve" smooth="yes"/>
      <point x="96.3" y="196.63333333333333"/>
      <point x="70.76666666666667" y="237.26666666666668"/>
      <point x="70.76666666666667" y="288.1" type="curve" smooth="yes"/>
      <point x="70.76666666666667" y="347.1"/>
      <point x="104.0" y="381.73333333333335"/>
      <point x="162.4" y="381.73333333333335" type="curve" smooth="yes"/>
      <point x="214.73333333333335" y="381.73333333333335"/>
      <point x="256.9666666666667" y="353.0"/>
      <point x="277.76666666666665" y="292.0" type="curve"/>
      <point x="299.4" y="284.0" type="line"/>
      <point x="299.4" y="351.6333333333333"/>
      <point x="325.0" y="378.0"/>
      <point x="353.06666666666666" y="378.0" type="curve" smooth="yes"/>
      <point x="389.56666666666666" y="378.0"/>
      <point x="423.0" y="342.1"/>
      <point x="444.43333333333334" y="237.0" type="curve"/>
      <point x="437.53333333333336" y="290.0" type="line"/>
      <point x="437.53333333333336" y="3.0" type="line"/>
    </contour>
  </outline>
</glyph>
<glyph name="sha-beng" format="2">
  <advance width="560.7333333333333"/>
  <unicode hex="09B6"/>
  <anchor x="474.8666666666667" y="52.666666666666664" name="bottom"/>
  <anchor x="485.5" y="-3.0" name="bottom.rakaar"/>
  <anchor x="485.5" y="-2.0" name="bottom.rvocalic"/>
  <anchor x="465.8666666666667" y="6.0" name="bottom.virama"/>
  <anchor x="481.4666666666667" y="560.0" name="top"/>
  <anchor x="456.9666666666667" y="552.0" name="topright"/>
  <anchor x="279.8666666666667" y="0.0" name="vedic"/>
  <outline>
    <contour>
      <point x="482.1333333333333" y="-25.0" type="line"/>
      <point x="485.5" y="-24.0" type="line"/>
      <point x="485.5" y="570.0" type="line"/>
      <point x="588.2666666666667" y="570.0" type="line"/>
      <point x="555.8333333333334" y="622.0" type="line"/>
      <point x="484.4" y="622.0" type="line"/>
      <point x="480.03333333333336" y="665.0" type="line"/>
      <point x="436.6" y="698.0" type="line"/>
      <point x="432.6" y="697.0" type="line"/>
      <point x="432.6" y="569.2333333333333" type="line" smooth="yes"/>
      <point x="432.6" y="532.8666666666667"/>
      <point x="433.9666666666667" y="494.6666666666667"/>
      <point x="437.3333333333333" y="464.7" type="curve"/>
      <point x="442.3333333333333" y="466.1666666666667" type="line"/>
      <point x="405.3666666666667" y="562.3333333333334"/>
      <point x="341.0" y="629.0"/>
      <point x="280.56666666666666" y="629.0" type="curve" smooth="yes"/>
      <point x="241.86666666666667" y="629.0"/>
      <point x="208.43333333333334" y="605.0"/>
      <point x="169.5" y="543.0" type="curve"/>
      <point x="127.1" y="599.0"/>
      <point x="100.83333333333333" y="622.0"/>
      <point x="46.43333333333334" y="622.0" type="curve" smooth="yes"/>
      <point x="-27.533333333333335" y="622.0" type="line"/>
      <point x="4.266666666666667" y="570.0" type="line"/>
      <point x="47.333333333333336" y="570.0" type="line" smooth="yes"/>
      <point x="92.36666666666667" y="570.0"/>
      <point x="119.9" y="550.0"/>
      <point x="151.03333333333333" y="503.7" type="curve"/>
      <point x="158.76666666666668" y="518.0666666666667" type="line"/>
      <point x="58.46666666666667" y="477.0"/>
      <point x="28.766666666666666" y="410.6666666666667"/>
      <point x="28.766666666666666" y="359.6666666666667" type="curve" smooth="yes"/>
      <point x="28.766666666666666" y="303.6666666666667"/>
      <point x="66.83333333333333" y="283.6666666666667"/>
      <point x="97.0" y="283.6666666666667" type="curve" smooth="yes"/>
      <point x="140.96666666666667" y="283.6666666666667"/>
      <point x="171.4" y="315.6666666666667"/>
      <point x="182.66666666666666" y="367.6666666666667" type="curve"/>
      <point x="194.56666666666666" y="309.6666666666667"/>
      <point x="227.63333333333333" y="283.6666666666667"/>
      <point x="266.9666666666667" y="283.6666666666667" type="curve" smooth="yes"/>
      <point x="307.3" y="283.6666666666667"/>
      <point x="336.1" y="306.6666666666667"/>
      <point x="336.1" y="359.6666666666667" type="curve" smooth="yes"/>
      <point x="336.1" y="415.6666666666667"/>
      <point x="297.3" y="467.0"/>
      <point x="223.93333333333334" y="506.06666666666666" type="curve"/>
      <point x="229.4" y="488.06666666666666" type="line"/>
      <point x="250.16666666666666" y="531.0"/>
      <point x="269.43333333333334" y="554.0"/>
      <point x="298.1333333333333" y="554.0" type="curve" smooth="yes"/>
      <point x="338.1666666666667" y="554.0"/>
      <point x="396.73333333333335" y="505.5"/>
      <point x="439.1333333333333" y="394.76666666666665" type="curve"/>
      <point x="432.6" y="437.1666666666667" type="line"/>
      <point x="432.6" y="3.0" type="line"/>
    </contour>
  </outline>
</glyph>
<glyph name="ssa-beng" format="2">
  <advance width="484.6"/>
  <unicode hex="09B7"/>
  <anchor x="404.73333333333335" y="30.0" name="bottom"/>
  <anchor x="407.1666666666667" y="70.0" name="bottom.rakaar"/>
  <anchor x="409.3666666666667" y="10.533333333333333" name="bottom.rvocalic"/>
  <anchor x="393.4" y="6.0" name="bottom.virama"/>
  <anchor x="405.7" y="570.0" name="top"/>
  <anchor x="408.3333333333333" y="570.0" name="topright"/>
  <anchor x="241.8" y="0.0" name="vedic"/>
  <outline>
    <contour>
      <point x="404.0" y="-13.0" type="line"/>
      <point x="409.3666666666667" y="-12.0" type="line"/>
      <point x="409.3666666666667" y="570.0" type="line"/>
      <point x="512.1333333333333" y="570.0" type="line"/>
      <point x="480.3333333333333" y="622.0" type="line"/>
      <point x="-27.533333333333335" y="622.0" type="line"/>
      <point x="43.86666666666667" y="502.2" type="line"/>
      <point x="165.96666666666667" y="487.0"/>
      <point x="271.7" y="388.3666666666667"/>
      <point x="375.76666666666665" y="262.3" type="curve"/>
      <point x="379.43333333333334" y="321.3" type="line"/>
      <point x="333.56666666666666" y="383.73333333333335"/>
      <point x="196.86666666666667" y="535.3666666666667"/>
      <point x="66.0" y="582.0" type="curve"/>
      <point x="70.06666666666666" y="570.0" type="line"/>
      <point x="356.4666666666667" y="570.0" type="line"/>
      <point x="356.4666666666667" y="73.56666666666666" type="line"/>
      <point x="365.6666666666667" y="80.96666666666667" type="line"/>
      <point x="312.4" y="211.13333333333333"/>
      <point x="191.36666666666667" y="269.26666666666665"/>
      <point x="105.1" y="291.8" type="curve"/>
      <point x="118.2" y="269.0" type="line"/>
      <point x="160.73333333333335" y="303.73333333333335"/>
      <point x="236.63333333333333" y="350.0"/>
      <point x="286.43333333333334" y="377.56666666666666" type="curve"/>
      <point x="227.7" y="444.0" type="line"/>
      <point x="175.93333333333334" y="418.0"/>
      <point x="92.36666666666667" y="367.3666666666667"/>
      <point x="37.1" y="325.43333333333334" type="curve"/>
      <point x="90.3" y="214.63333333333333" type="line"/>
      <point x="214.46666666666667" y="193.9"/>
      <point x="297.56666666666666" y="137.8"/>
      <point x="360.6666666666667" y="21.433333333333334" type="curve"/>
    </contour>
  </outline>
</glyph>
<glyph name="sa-beng" format="2">
  <advance width="557.5"/>
  <unicode hex="09B8"/>
  <anchor x="471.6333333333333" y="52.666666666666664" name="bottom"/>
  <anchor x="482.26666666666665" y="-3.0" name="bottom.rakaar"/>
  <anchor x="482.26666666666665" y="-0.7333333333333333" name="bottom.rvocalic"/>
  <anchor x="462.6333333333333" y="6.0" name="bottom.virama"/>
  <anchor x="478.6" y="570.0" name="top"/>
  <anchor x="481.23333333333335" y="570.0" name="topright"/>
  <anchor x="278.43333333333334" y="0.0" name="vedic"/>
  <outline>
    <contour>
      <point x="478.9" y="-25.0" type="line"/>
      <point x="482.26666666666665" y="-24.0" type="line"/>
      <point x="482.26666666666665" y="570.0" type="line"/>
      <point x="585.0333333333333" y="570.0" type="line"/>
      <point x="552.6" y="622.0" type="line"/>
      <point x="-27.533333333333335" y="622.0" type="line"/>
      <point x="46.8" y="500.0" type="line"/>
      <point x="58.7" y="502.0"/>
      <point x="74.23333333333333" y="504.0"/>
      <point x="92.13333333333334" y="504.0" type="curve" smooth="yes"/>
      <point x="179.93333333333334" y="504.0"/>
      <point x="238.43333333333334" y="442.0"/>
      <point x="240.8" y="302.0" type="curve"/>
      <point x="267.6" y="356.0" type="line"/>
      <point x="269.1333333333333" y="492.0"/>
      <point x="204.23333333333335" y="557.0"/>
      <point x="99.06666666666666" y="580.0" type="curve"/>
      <point x="102.63333333333334" y="570.0" type="line"/>
      <point x="429.3666666666667" y="570.0" type="line"/>
      <point x="429.3666666666667" y="471.46666666666664" type="line" smooth="yes"/>
      <point x="429.3666666666667" y="435.43333333333334"/>
      <point x="431.73333333333335" y="375.06666666666666"/>
      <point x="436.3666666666667" y="336.3" type="curve"/>
      <point x="441.6333333333333" y="344.0" type="line"/>
      <point x="409.93333333333334" y="412.0"/>
      <point x="378.6" y="453.0"/>
      <point x="338.06666666666666" y="453.0" type="curve" smooth="yes"/>
      <point x="315.7" y="453.0"/>
      <point x="282.6333333333333" y="442.76666666666665"/>
      <point x="254.3" y="361.76666666666665" type="curve" smooth="yes"/>
      <point x="216.0" y="252.83333333333334"/>
      <point x="191.13333333333333" y="208.43333333333334"/>
      <point x="153.43333333333334" y="208.43333333333334" type="curve" smooth="yes"/>
      <point x="128.9" y="208.43333333333334"/>
      <point x="108.1" y="218.9"/>
      <point x="79.03333333333333" y="279.9" type="curve"/>
      <point x="43.03333333333333" y="264.0" type="line"/>
      <point x="83.36666666666667" y="158.53333333333333"/>
      <point x="126.06666666666666" y="125.0"/>
      <point x="172.5" y="125.0" type="curve" smooth="yes"/>
      <point x="225.26666666666668" y="125.0"/>
      <point x="256.43333333333334" y="163.0"/>
      <point x="293.03333333333336" y="259.26666666666665" type="curve" smooth="yes"/>
      <point x="328.3666666666667" y="352.0"/>
      <point x="344.43333333333334" y="367.0"/>
      <point x="365.6" y="367.0" type="curve" smooth="yes"/>
      <point x="384.5" y="367.0"/>
      <point x="405.76666666666665" y="350.0"/>
      <point x="434.3666666666667" y="282.3333333333333" type="curve"/>
      <point x="429.3666666666667" y="328.73333333333335" type="line"/>
      <point x="429.3666666666667" y="3.0" type="line"/>
    </contour>
  </outline>
</glyph>
<glyph name="ha-beng" format="2">
  <advance width="426.03333333333336"/>
  <unicode hex="09B9"/>
  <anchor x="241.9" y="90.0" name="bottom"/>
  <anchor x="350.53333333333336" y="-59.0" name="bottom.rakaar"/>
  <anchor x="295.06666666666666" y="90.0" name="bottom.rvocalic"/>
  <anchor x="224.56666666666666" y="90.0" name="bottom.virama"/>
  <anchor x="215.9" y="570.0" name="top"/>
  <anchor x="193.13333333333333" y="570.0" name="topright"/>
  <anchor x="212.83333333333334" y="0.0" name="vedic"/>
  <outline>
    <contour>
      <point x="417.1" y="-45.0" type="curve"/>
      <point x="445.9" y="-12.0" type="line"/>
      <point x="367.23333333333335" y="70.0"/>
      <point x="268.03333333333336" y="160.46666666666667"/>
      <point x="164.66666666666666" y="185.83333333333334" type="curve"/>
      <point x="115.0" y="165.73333333333332" type="line"/>
      <point x="135.53333333333333" y="154.56666666666666"/>
      <point x="167.66666666666666" y="151.66666666666666"/>
      <point x="196.63333333333333" y="151.66666666666666" type="curve" smooth="yes"/>
      <point x="299.4666666666667" y="151.66666666666666"/>
      <point x="382.7" y="217.46666666666667"/>
      <point x="382.7" y="334.26666666666665" type="curve" smooth="yes"/>
      <point x="382.7" y="432.1"/>
      <point x="325.53333333333336" y="508.0"/>
      <point x="180.1" y="508.0" type="curve" smooth="yes"/>
      <point x="97.53333333333333" y="508.0"/>
      <point x="49.3" y="475.9"/>
      <point x="49.3" y="415.26666666666665" type="curve" smooth="yes"/>
      <point x="49.3" y="364.26666666666665"/>
      <point x="81.1" y="331.0"/>
      <point x="132.06666666666666" y="331.0" type="curve" smooth="yes"/>
      <point x="190.4" y="331.0"/>
      <point x="215.3" y="377.26666666666665"/>
      <point x="215.3" y="433.26666666666665" type="curve" smooth="yes"/>
      <point x="215.3" y="483.6333333333333"/>
      <point x="183.93333333333334" y="544.0"/>
      <point x="150.33333333333334" y="578.0" type="curve"/>
      <point x="59.16666666666667" y="578.0" type="line"/>
      <point x="104.96666666666667" y="558.0"/>
      <point x="145.93333333333334" y="520.6333333333333"/>
      <point x="161.13333333333333" y="468.0" type="curve"/>
      <point x="153.33333333333334" y="408.0" type="line"/>
      <point x="170.5" y="427.73333333333335"/>
      <point x="201.93333333333334" y="444.0"/>
      <point x="231.8" y="444.0" type="curve" smooth="yes"/>
      <point x="299.8" y="444.0"/>
      <point x="329.06666666666666" y="401.46666666666664"/>
      <point x="329.06666666666666" y="348.1" type="curve" smooth="yes"/>
      <point x="329.06666666666666" y="272.1666666666667"/>
      <point x="272.1666666666667" y="227.73333333333332"/>
      <point x="172.43333333333334" y="227.73333333333332" type="curve" smooth="yes"/>
      <point x="118.3" y="227.73333333333332"/>
      <point x="73.43333333333334" y="235.46666666666667"/>
      <point x="31.96666666666667" y="252.1" type="curve"/>
      <point x="51.96666666666667" y="155.2" type="line"/>
      <point x="197.7" y="130.2"/>
      <point x="287.4666666666667" y="77.63333333333334"/>
    </contour>
    <contour>
      <point x="4.266666666666667" y="570.0" type="line"/>
      <point x="453.56666666666666" y="570.0" type="line"/>
      <point x="421.76666666666665" y="622.0" type="line"/>
      <point x="-27.533333333333335" y="622.0" type="line"/>
    </contour>
  </outline>
</glyph>
<glyph name="nukta-beng" format="2">
  <unicode hex="09BC"/>
  <anchor x="0.0" y="-125.0" name="_nukta"/>
  <outline>
    <contour>
      <point x="0.0" y="-185.26666666666668" type="curve" smooth="yes"/>
      <point x="32.266666666666666" y="-185.26666666666668"/>
      <point x="57.96666666666667" y="-161.63333333333333"/>
      <point x="57.96666666666667" y="-125.0" type="curve" smooth="yes"/>
      <point x="57.96666666666667" y="-88.0"/>
      <point x="32.9" y="-63.733333333333334"/>
      <point x="0.0" y="-63.733333333333334" type="curve" smooth="yes"/>
      <point x="-34.9" y="-63.733333333333334"/>
      <point x="-59.96666666666667" y="-88.0"/>
      <point x="-59.96666666666667" y="-125.0" type="curve" smooth="yes"/>
      <point x="-59.96666666666667" y="-161.0"/>
      <point x="-34.266666666666666" y="-185.26666666666668"/>
    </contour>
  </outline>
</glyph>
